<?xml version="1.0" encoding="iso-8859-1"?>
<!-- Generator: Adobe Illustrator 19.0.0, SVG Export Plug-In . SVG Version: 6.00 Build 0)  -->
<svg version="1.1" id="Capa_1" xmlns="http://www.w3.org/2000/svg" xmlns:xlink="http://www.w3.org/1999/xlink" x="0px" y="0px"
	 viewBox="0 0 511.999 511.999" style="enable-background:new 0 0 511.999 511.999;" xml:space="preserve">
<linearGradient id="SVGID_1_" gradientUnits="userSpaceOnUse" x1="185.0755" y1="198.0296" x2="219.0955" y2="164.0095" gradientTransform="matrix(1.0039 0 0 -1.0039 0.1922 516.56)">
	<stop  offset="0" style="stop-color:#E6E6E6"/>
	<stop  offset="1" style="stop-color:#999999"/>
</linearGradient>
<polygon style="fill:url(#SVGID_1_);" points="178.094,383.845 130.441,336.193 204.432,262.202 252.085,309.854 "/>
<linearGradient id="SVGID_2_" gradientUnits="userSpaceOnUse" x1="218.592" y1="168.1026" x2="218.592" y2="242.4926" gradientTransform="matrix(1.0039 0 0 -1.0039 0.1922 516.56)">
	<stop  offset="0" style="stop-color:#E6E6E6;stop-opacity:0"/>
	<stop  offset="0.143" style="stop-color:#DCDCDC;stop-opacity:0.143"/>
	<stop  offset="0.384" style="stop-color:#C2C2C2;stop-opacity:0.384"/>
	<stop  offset="0.692" style="stop-color:#979797;stop-opacity:0.692"/>
	<stop  offset="1" style="stop-color:#666666"/>
</linearGradient>
<polygon style="fill:url(#SVGID_2_);" points="187.198,374.74 252.085,309.854 204.432,262.202 187.198,279.436 "/>
<circle style="opacity:0.2;fill:#FFFFFF;enable-background:new    ;" cx="334.226" cy="177.774" r="166.932"/>
<linearGradient id="SVGID_3_" gradientUnits="userSpaceOnUse" x1="380.488" y1="289.702" x2="277.458" y2="392.732" gradientTransform="matrix(1.0039 0 0 -1.0039 0.1922 516.56)">
	<stop  offset="0" style="stop-color:#4D4D4D"/>
	<stop  offset="1" style="stop-color:#333333"/>
</linearGradient>
<path style="fill:url(#SVGID_3_);" d="M208.519,52.069c-69.425,69.425-69.425,181.986,0,251.411s181.986,69.425,251.411,0
	s69.425-181.986,0-251.411S277.945-17.356,208.519,52.069z M249.211,92.76c46.952-46.952,123.077-46.952,170.029,0
	s46.952,123.077,0,170.029s-123.077,46.952-170.029,0S202.259,139.712,249.211,92.76z"/>
<linearGradient id="SVGID_4_" gradientUnits="userSpaceOnUse" x1="215.153" y1="455.0421" x2="450.303" y2="219.8821" gradientTransform="matrix(1.0039 0 0 -1.0039 0.1922 516.56)">
	<stop  offset="0" style="stop-color:#4D4D4D"/>
	<stop  offset="1" style="stop-color:#333333"/>
</linearGradient>
<path style="fill:url(#SVGID_4_);" d="M452.264,59.736c-65.191-65.191-170.887-65.191-236.077,0s-65.191,170.887,0,236.077
	s170.887,65.191,236.077,0S517.455,124.927,452.264,59.736z M241.956,270.044c-50.959-50.959-50.959-133.581,0-184.54
	s133.581-50.959,184.54,0s50.959,133.581,0,184.54S292.915,321.004,241.956,270.044z"/>
<linearGradient id="SVGID_5_" gradientUnits="userSpaceOnUse" x1="466.6485" y1="471.3825" x2="357.5385" y2="362.2726" gradientTransform="matrix(1.0039 0 0 -1.0039 0.1922 516.56)">
	<stop  offset="0" style="stop-color:#B3B3B3"/>
	<stop  offset="1" style="stop-color:#FFFFFF;stop-opacity:0"/>
</linearGradient>
<path style="fill:url(#SVGID_5_);" d="M320.615,76.248c-21.082,21.082-12.399,63.947,19.395,95.741s74.659,40.477,95.741,19.395
	c21.082-21.082,12.398-63.947-19.395-95.741S341.698,55.166,320.615,76.248z"/>
<linearGradient id="SVGID_6_" gradientUnits="userSpaceOnUse" x1="78.8478" y1="102.1519" x2="101.4378" y2="79.5719" gradientTransform="matrix(1.0039 0 0 -1.0039 0.1922 516.56)">
	<stop  offset="0" style="stop-color:#4D4D4D"/>
	<stop  offset="1" style="stop-color:#333333"/>
</linearGradient>
<path style="fill:url(#SVGID_6_);" d="M11.22,439.776c34.131-28.432,65.472-59.772,93.903-93.903
	c7.901-9.484,19.925-13.765,27.448-9.666c18.671,10.171,33.049,24.549,43.221,43.221c4.098,7.523-0.182,19.548-9.666,27.448
	c-34.13,28.432-65.471,59.771-93.903,93.903c-7.901,9.484-19.926,13.765-27.449,9.666c-18.672-10.172-33.049-24.55-43.22-43.221
	C-2.545,459.701,1.735,447.677,11.22,439.776z"/>
<linearGradient id="SVGID_7_" gradientUnits="userSpaceOnUse" x1="138.8272" y1="95.8125" x2="138.8272" y2="195.5526" gradientTransform="matrix(1.0039 0 0 -1.0039 0.1922 516.56)">
	<stop  offset="0" style="stop-color:#4D4D4D;stop-opacity:0"/>
	<stop  offset="1" style="stop-color:#000000"/>
</linearGradient>
<path style="fill:url(#SVGID_7_);" d="M175.793,379.429c-10.172-18.672-24.55-33.05-43.221-43.221
	c-7.523-4.098-19.548,0.182-27.448,9.666c-1.107,1.329-2.227,2.646-3.342,3.966v117.59c20.194-21.445,41.65-41.646,64.346-60.553
	C175.611,398.977,179.891,386.952,175.793,379.429z"/>
<linearGradient id="SVGID_8_" gradientUnits="userSpaceOnUse" x1="132.1348" y1="174.4488" x2="197.9348" y2="108.6488" gradientTransform="matrix(1.0039 0 0 -1.0039 0.1922 516.56)">
	<stop  offset="0" style="stop-color:#E6E6E6"/>
	<stop  offset="1" style="stop-color:#999999"/>
</linearGradient>
<polygon style="fill:url(#SVGID_8_);" points="169.174,401.866 110.134,342.826 134.244,318.716 193.284,377.755 "/>
<linearGradient id="SVGID_9_" gradientUnits="userSpaceOnUse" x1="159.569" y1="113.5526" x2="159.569" y2="221.8526" gradientTransform="matrix(1.0039 0 0 -1.0039 0.1922 516.56)">
	<stop  offset="0" style="stop-color:#E6E6E6;stop-opacity:0"/>
	<stop  offset="0.143" style="stop-color:#DCDCDC;stop-opacity:0.143"/>
	<stop  offset="0.384" style="stop-color:#C2C2C2;stop-opacity:0.384"/>
	<stop  offset="0.692" style="stop-color:#979797;stop-opacity:0.692"/>
	<stop  offset="1" style="stop-color:#666666"/>
</linearGradient>
<polygon style="fill:url(#SVGID_9_);" points="127.49,325.47 127.49,350.113 174.207,396.832 193.284,377.755 134.244,318.716 "/>
<linearGradient id="SVGID_10_" gradientUnits="userSpaceOnUse" x1="165.7085" y1="170.4426" x2="151.1185" y2="155.8526" gradientTransform="matrix(1.0039 0 0 -1.0039 0.1922 516.56)">
	<stop  offset="0" style="stop-color:#E6E6E6"/>
	<stop  offset="1" style="stop-color:#999999"/>
</linearGradient>
<path style="fill:url(#SVGID_10_);" d="M184.098,382.462l-54.56-54.56c-4.015-4.015-4.015-10.523,0-14.538l0,0
	c4.015-4.015,10.523-4.015,14.538,0l54.56,54.56c4.015,4.015,4.015,10.523,0,14.538l0,0
	C194.621,386.476,188.113,386.476,184.098,382.462z"/>
<linearGradient id="SVGID_11_" gradientUnits="userSpaceOnUse" x1="141.3685" y1="146.1026" x2="126.7885" y2="131.5225" gradientTransform="matrix(1.0039 0 0 -1.0039 0.1922 516.56)">
	<stop  offset="0" style="stop-color:#E6E6E6"/>
	<stop  offset="1" style="stop-color:#999999"/>
</linearGradient>
<path style="fill:url(#SVGID_11_);" d="M159.665,406.895l-54.56-54.56c-4.015-4.015-4.015-10.523,0-14.538l0,0
	c4.015-4.015,10.523-4.015,14.538,0l54.56,54.56c4.015,4.015,4.015,10.523,0,14.538l0,0
	C170.188,410.91,163.679,410.91,159.665,406.895z"/>
<g>
</g>
<g>
</g>
<g>
</g>
<g>
</g>
<g>
</g>
<g>
</g>
<g>
</g>
<g>
</g>
<g>
</g>
<g>
</g>
<g>
</g>
<g>
</g>
<g>
</g>
<g>
</g>
<g>
</g>
</svg>
