<svg id="Capa_1" enable-background="new 0 0 510 510" height="512" viewBox="0 0 510 510" width="512" xmlns="http://www.w3.org/2000/svg" xmlns:xlink="http://www.w3.org/1999/xlink"><linearGradient id="lg1"><stop offset="0" stop-color="#f9f7fc"/><stop offset="1" stop-color="#f0ddfc"/></linearGradient><linearGradient id="SVGID_1_" gradientUnits="userSpaceOnUse" x1="206.895" x2="384.711" xlink:href="#lg1" y1="119.661" y2="569.519"/><linearGradient id="SVGID_2_" gradientUnits="userSpaceOnUse" x1="109.697" x2="-3.348" y1="197.445" y2="191.792"><stop offset="0" stop-color="#fff" stop-opacity="0"/><stop offset="1" stop-color="#fff"/></linearGradient><linearGradient id="lg2"><stop offset="0" stop-color="#f0ddfc" stop-opacity="0"/><stop offset=".2085" stop-color="#dfcdf1" stop-opacity=".209"/><stop offset=".6167" stop-color="#b5a4d3" stop-opacity=".617"/><stop offset="1" stop-color="#8779b3"/></linearGradient><linearGradient id="SVGID_3_" gradientUnits="userSpaceOnUse" x1="240.22" x2="240.22" xlink:href="#lg2" y1="127.641" y2="72.201"/><linearGradient id="SVGID_4_" gradientUnits="userSpaceOnUse" x1="150.013" x2="124.578" xlink:href="#lg2" y1="137.069" y2="79.605"/><linearGradient id="SVGID_5_" gradientUnits="userSpaceOnUse" x1="285.448" x2="256.716" xlink:href="#lg2" y1="125.788" y2="69.737"/><linearGradient id="SVGID_6_" gradientUnits="userSpaceOnUse" x1="430.151" x2="398.121" xlink:href="#lg2" y1="132.614" y2="73.736"/><linearGradient id="lg3"><stop offset="0" stop-color="#ff7044"/><stop offset="1" stop-color="#f92814"/></linearGradient><linearGradient id="SVGID_7_" gradientUnits="userSpaceOnUse" x1="240.22" x2="240.22" xlink:href="#lg3" y1="25.297" y2="101.171"/><linearGradient id="SVGID_8_" gradientUnits="userSpaceOnUse" x1="258.9" x2="163.218" y1="105.821" y2="-152.874"><stop offset="0" stop-color="#ff7044" stop-opacity="0"/><stop offset="1" stop-color="#ffa425"/></linearGradient><linearGradient id="lg4"><stop offset="0" stop-color="#ffda45"/><stop offset="1" stop-color="#ffa425"/></linearGradient><linearGradient id="SVGID_9_" gradientUnits="userSpaceOnUse" x1="83.528" x2="114.022" xlink:href="#lg4" y1="85.081" y2="85.081"/><linearGradient id="SVGID_10_" gradientUnits="userSpaceOnUse" x1="224.973" x2="255.468" xlink:href="#lg4" y1="85.081" y2="85.081"/><linearGradient id="SVGID_11_" gradientUnits="userSpaceOnUse" x1="366.419" x2="396.913" xlink:href="#lg4" y1="85.081" y2="85.081"/><linearGradient id="lg5"><stop offset="0" stop-color="#f92814" stop-opacity="0"/><stop offset="1" stop-color="#c1272d"/></linearGradient><linearGradient id="SVGID_12_" gradientUnits="userSpaceOnUse" x1="122.649" x2="122.649" xlink:href="#lg5" y1="113.535" y2="60.141"/><linearGradient id="SVGID_13_" gradientUnits="userSpaceOnUse" x1="264.096" x2="264.096" xlink:href="#lg5" y1="113.535" y2="60.141"/><linearGradient id="SVGID_14_" gradientUnits="userSpaceOnUse" x1="405.535" x2="405.535" xlink:href="#lg5" y1="113.535" y2="60.141"/><linearGradient id="lg6"><stop offset="0" stop-color="#18cffc"/><stop offset="1" stop-color="#4a98f7"/></linearGradient><linearGradient id="SVGID_15_" gradientUnits="userSpaceOnUse" x1="313.812" x2="503.513" xlink:href="#lg6" y1="313.812" y2="503.513"/><linearGradient id="SVGID_16_" gradientUnits="userSpaceOnUse" x1="358.394" x2="308.127" y1="349.023" y2="223.955"><stop offset="0" stop-color="#18cffc" stop-opacity="0"/><stop offset="1" stop-color="#65e1dc"/></linearGradient><linearGradient id="SVGID_17_" gradientTransform="matrix(-1 0 0 -1 -1618 -5874)" gradientUnits="userSpaceOnUse" x1="-2023.221" x2="-1872.109" xlink:href="#lg6" y1="-6279.22" y2="-6128.109"/><linearGradient id="SVGID_18_" gradientUnits="userSpaceOnUse" x1="390.439" x2="271.275" y1="416.329" y2="72.856"><stop offset="0" stop-color="#0469bc" stop-opacity="0"/><stop offset="1" stop-color="#0469bc"/></linearGradient><linearGradient id="SVGID_19_" gradientUnits="userSpaceOnUse" x1="328.714" x2="462.853" y1="328.714" y2="462.853"><stop offset="0" stop-color="#7e8595"/><stop offset="1" stop-color="#555a66"/></linearGradient><linearGradient id="lg7"><stop offset="0" stop-color="#555a66" stop-opacity="0"/><stop offset="1" stop-color="#555a66"/></linearGradient><linearGradient id="SVGID_20_" gradientUnits="userSpaceOnUse" x1="378.522" x2="322.168" xlink:href="#lg7" y1="389.091" y2="193.374"/><linearGradient id="SVGID_21_" gradientUnits="userSpaceOnUse" x1="433.407" x2="389.211" xlink:href="#lg7" y1="409.247" y2="374.729"/><linearGradient id="SVGID_22_" gradientTransform="matrix(.707 .707 -.707 .707 652.24 58.918)" gradientUnits="userSpaceOnUse" x1="7.51" x2="20.45" xlink:href="#lg3" y1="379.665" y2="379.665"/><linearGradient id="SVGID_23_" gradientTransform="matrix(0 -1 1 0 -561.783 1135.343)" gradientUnits="userSpaceOnUse" x1="734.284" x2="734.284" xlink:href="#lg3" y1="924.903" y2="938.777"/><linearGradient id="SVGID_24_" gradientUnits="userSpaceOnUse" x1="359" x2="378.7" xlink:href="#lg4" y1="359" y2="378.7"/><linearGradient id="SVGID_25_" gradientUnits="userSpaceOnUse" x1="366.206" x2="352.441" y1="366.206" y2="352.441"><stop offset="0" stop-color="#ffda45" stop-opacity="0"/><stop offset="1" stop-color="#fcee21"/></linearGradient><linearGradient id="SVGID_26_" gradientUnits="userSpaceOnUse" x1="365.219" x2="386.127" y1="370.521" y2="331.635"><stop offset="0" stop-color="#ffda45" stop-opacity="0"/><stop offset="1" stop-color="#b53759"/></linearGradient><linearGradient id="SVGID_27_" gradientUnits="userSpaceOnUse" x1="307.231" x2="269.636" xlink:href="#lg7" y1="390.243" y2="328.168"/><linearGradient id="SVGID_28_" gradientUnits="userSpaceOnUse" x1="467.892" x2="430" xlink:href="#lg7" y1="386.836" y2="358.417"/><linearGradient id="SVGID_29_" gradientUnits="userSpaceOnUse" x1="284.937" x2="284.937" xlink:href="#lg1" y1="363.121" y2="376.995"/><linearGradient id="SVGID_30_" gradientUnits="userSpaceOnUse" x1="444.446" x2="444.446" xlink:href="#lg1" y1="363.121" y2="376.995"/><linearGradient id="SVGID_31_" gradientTransform="matrix(0 1 1 0 -558.435 558.435)" gradientUnits="userSpaceOnUse" x1="-250.052" x2="-287.944" xlink:href="#lg7" y1="945.271" y2="916.852"/><linearGradient id="SVGID_32_" gradientTransform="matrix(0 1 1 0 -558.435 558.435)" gradientUnits="userSpaceOnUse" x1="-90.543" x2="-128.435" xlink:href="#lg7" y1="945.271" y2="916.852"/><linearGradient id="SVGID_33_" gradientTransform="matrix(0 1 1 0 -561.783 561.783)" gradientUnits="userSpaceOnUse" x1="-276.846" x2="-276.846" xlink:href="#lg1" y1="924.903" y2="938.777"/><linearGradient id="SVGID_34_" gradientTransform="matrix(0 1 1 0 -561.783 561.783)" gradientUnits="userSpaceOnUse" x1="-117.337" x2="-117.337" xlink:href="#lg1" y1="924.903" y2="938.777"/><path d="m463.946 0h-447.451c-9.109 0-16.495 7.386-16.495 16.495v374.951c0 9.109 7.386 16.495 16.495 16.495h447.451c9.109 0 16.495-7.386 16.495-16.495v-374.951c0-9.109-7.386-16.495-16.495-16.495zm-65.321 140.732c-4.258 4.597-10.344 7.47-17.098 7.47s-12.84-2.873-17.098-7.47c-3.862-4.155-6.217-9.731-6.217-15.845 0-12.878 10.438-23.316 23.316-23.316s23.316 10.438 23.316 23.316c-.002 6.113-2.357 11.69-6.219 15.845zm-323.026-15.846c0-12.878 10.438-23.316 23.316-23.316s23.316 10.438 23.316 23.316c0 6.114-2.355 11.691-6.217 15.845-4.258 4.597-10.344 7.47-17.098 7.47s-12.84-2.873-17.098-7.47c-3.864-4.154-6.219-9.731-6.219-15.845zm141.306 0c0-12.878 10.438-23.316 23.316-23.316s23.316 10.438 23.316 23.316c0 6.114-2.355 11.691-6.217 15.845-4.258 4.597-10.344 7.47-17.098 7.47s-12.84-2.873-17.098-7.47c-3.864-4.154-6.219-9.731-6.219-15.845zm187.937-74.798c0 12.878-10.438 23.316-23.316 23.316s-23.316-10.438-23.316-23.316 10.438-23.316 23.316-23.316 23.316 10.439 23.316 23.316zm-141.306 0c0 12.878-10.438 23.316-23.316 23.316s-23.316-10.438-23.316-23.316 10.438-23.316 23.316-23.316 23.316 10.439 23.316 23.316zm-164.622-23.315c12.878 0 23.316 10.438 23.316 23.316s-10.438 23.316-23.316 23.316-23.315-10.439-23.315-23.317c0-12.877 10.438-23.315 23.315-23.315z" fill="url(#SVGID_1_)"/><path d="m455.364 12.708h-430.287c-8.648 0-15.657 7.009-15.657 15.657v351.212c0 8.648 7.009 15.657 15.657 15.657h430.287c8.648 0 15.657-7.009 15.657-15.657v-351.212c-.001-8.648-7.009-15.657-15.657-15.657zm-356.45 135.494c-6.754 0-12.84-2.873-17.098-7.47-3.862-4.155-6.217-9.731-6.217-15.845 0-12.878 10.438-23.316 23.316-23.316s23.316 10.438 23.316 23.316c0 6.114-2.355 11.691-6.217 15.845-4.26 4.597-10.345 7.47-17.1 7.47zm141.306 0c-6.754 0-12.84-2.873-17.098-7.47-3.862-4.155-6.217-9.731-6.217-15.845 0-12.878 10.438-23.316 23.316-23.316s23.316 10.438 23.316 23.316c0 6.114-2.355 11.691-6.217 15.845-4.26 4.597-10.345 7.47-17.1 7.47zm141.307 0c-6.754 0-12.84-2.873-17.098-7.47-3.862-4.155-6.217-9.731-6.217-15.845 0-12.878 10.438-23.316 23.316-23.316s23.316 10.438 23.316 23.316c0 6.114-2.355 11.691-6.217 15.845-4.26 4.597-10.346 7.47-17.1 7.47zm0-121.429c12.878 0 23.316 10.438 23.316 23.316s-10.438 23.316-23.316 23.316-23.316-10.438-23.316-23.316 10.438-23.316 23.316-23.316zm-141.307 0c12.878 0 23.316 10.438 23.316 23.316s-10.438 23.316-23.316 23.316-23.316-10.438-23.316-23.316c.001-12.878 10.439-23.316 23.316-23.316zm-141.306 0c12.878 0 23.316 10.438 23.316 23.316s-10.438 23.316-23.316 23.316-23.315-10.439-23.315-23.317c0-12.877 10.438-23.315 23.315-23.315z" fill="url(#SVGID_2_)"/><path d="m480.441 85.085v55.646h-81.816c3.862-4.155 6.217-9.731 6.217-15.845 0-12.878-10.438-23.316-23.316-23.316s-23.316 10.438-23.316 23.316c0 6.114 2.355 11.691 6.217 15.845h-107.11c3.862-4.155 6.217-9.731 6.217-15.845 0-12.878-10.438-23.316-23.316-23.316s-23.316 10.438-23.316 23.316c0 6.114 2.355 11.691 6.217 15.845h-107.11c3.862-4.155 6.217-9.731 6.217-15.845 0-12.878-10.438-23.316-23.316-23.316s-23.316 10.438-23.316 23.316c0 6.114 2.355 11.691 6.217 15.845h-81.811v-55.646z" fill="url(#SVGID_3_)"/><path d="m116.399 140.298c3.636-4.107 5.831-9.505 5.831-15.412 0-7.112-3.184-13.481-8.205-17.748v-39.302l17.249 17.249 55.213 55.213z" fill="url(#SVGID_4_)"/><path d="m257.842 140.298c3.636-4.107 5.831-9.505 5.831-15.412 0-7.112-3.184-13.481-8.205-17.748v-39.302l17.249 17.249 55.213 55.213z" fill="url(#SVGID_5_)"/><path d="m399.287 140.298c3.636-4.107 5.831-9.505 5.831-15.412 0-7.112-3.184-13.481-8.205-17.748v-39.302l17.249 17.249 55.213 55.213z" fill="url(#SVGID_6_)"/><path d="m463.946 0h-447.451c-9.109 0-16.495 7.386-16.495 16.495v68.59h480.441v-68.59c0-9.109-7.386-16.495-16.495-16.495zm-365.032 73.404c-12.878 0-23.316-10.438-23.316-23.316s10.438-23.316 23.316-23.316 23.316 10.438 23.316 23.316-10.438 23.316-23.316 23.316zm141.306 0c-12.878 0-23.316-10.438-23.316-23.316s10.438-23.316 23.316-23.316 23.316 10.438 23.316 23.316-10.438 23.316-23.316 23.316zm141.307 0c-12.878 0-23.316-10.438-23.316-23.316s10.438-23.316 23.316-23.316 23.316 10.438 23.316 23.316c-.001 12.878-10.439 23.316-23.316 23.316z" fill="url(#SVGID_7_)"/><path d="m455.364 12.708h-430.287c-8.648 0-15.657 7.009-15.657 15.657v56.72h461.6v-56.72c0-8.648-7.008-15.657-15.656-15.657zm-356.45 60.696c-12.878 0-23.316-10.438-23.316-23.316s10.438-23.316 23.316-23.316 23.316 10.438 23.316 23.316-10.438 23.316-23.316 23.316zm141.306 0c-12.878 0-23.316-10.438-23.316-23.316s10.438-23.316 23.316-23.316 23.316 10.438 23.316 23.316-10.438 23.316-23.316 23.316zm141.307 0c-12.878 0-23.316-10.438-23.316-23.316s10.438-23.316 23.316-23.316 23.316 10.438 23.316 23.316c-.001 12.878-10.439 23.316-23.316 23.316z" fill="url(#SVGID_8_)"/><path d="m98.775 124.886c-8.421 0-15.247-6.826-15.247-15.247v-49.117c0-8.421 6.826-15.247 15.247-15.247 8.421 0 15.247 6.826 15.247 15.247v49.117c0 8.421-6.826 15.247-15.247 15.247z" fill="url(#SVGID_9_)"/><path d="m240.22 124.886c-8.421 0-15.247-6.826-15.247-15.247v-49.117c0-8.421 6.826-15.247 15.247-15.247 8.421 0 15.247 6.826 15.247 15.247v49.117c.001 8.421-6.826 15.247-15.247 15.247z" fill="url(#SVGID_10_)"/><path d="m381.666 124.886c-8.421 0-15.247-6.826-15.247-15.247v-49.117c0-8.421 6.826-15.247 15.247-15.247 8.421 0 15.247 6.826 15.247 15.247v49.117c0 8.421-6.826 15.247-15.247 15.247z" fill="url(#SVGID_11_)"/><path d="m131.273 85.085h-17.248v-17.249z" fill="url(#SVGID_12_)"/><path d="m272.721 85.085h-17.249v-17.249z" fill="url(#SVGID_13_)"/><path d="m414.159 85.085h-17.249v-17.249z" fill="url(#SVGID_14_)"/><g fill="#bec3d2"><path d="m119.369 369.676h-66.946c-2.315 0-4.191-1.877-4.191-4.191v-39.542c0-2.315 1.877-4.191 4.191-4.191h66.945c2.315 0 4.191 1.877 4.191 4.191v39.542c.001 2.314-1.875 4.191-4.19 4.191z"/><path d="m222.252 369.676h-66.945c-2.315 0-4.191-1.877-4.191-4.191v-39.542c0-2.315 1.877-4.191 4.191-4.191h66.945c2.315 0 4.191 1.877 4.191 4.191v39.542c0 2.314-1.877 4.191-4.191 4.191z"/><path d="m253.998 321.751h75.328v47.925h-75.328z"/><path d="m356.881 321.751h75.328v47.925h-75.328z"/><path d="m119.369 298.172h-66.946c-2.315 0-4.191-1.877-4.191-4.191v-39.542c0-2.315 1.877-4.191 4.191-4.191h66.945c2.315 0 4.191 1.877 4.191 4.191v39.542c.001 2.314-1.875 4.191-4.19 4.191z"/><path d="m222.252 298.172h-66.945c-2.315 0-4.191-1.877-4.191-4.191v-39.542c0-2.315 1.877-4.191 4.191-4.191h66.945c2.315 0 4.191 1.877 4.191 4.191v39.542c0 2.314-1.877 4.191-4.191 4.191z"/><path d="m325.135 298.172h-66.945c-2.315 0-4.191-1.877-4.191-4.191v-39.542c0-2.315 1.877-4.191 4.191-4.191h66.945c2.315 0 4.191 1.877 4.191 4.191v39.542c0 2.314-1.877 4.191-4.191 4.191z"/><path d="m356.881 250.247h75.328v47.925h-75.328z"/><path d="m222.252 226.668h-66.945c-2.315 0-4.191-1.877-4.191-4.191v-39.542c0-2.315 1.877-4.191 4.191-4.191h66.945c2.315 0 4.191 1.877 4.191 4.191v39.542c0 2.315-1.877 4.191-4.191 4.191z"/><path d="m325.135 226.668h-66.945c-2.315 0-4.191-1.877-4.191-4.191v-39.542c0-2.315 1.877-4.191 4.191-4.191h66.945c2.315 0 4.191 1.877 4.191 4.191v39.542c0 2.315-1.877 4.191-4.191 4.191z"/><path d="m428.017 226.668h-66.945c-2.315 0-4.191-1.877-4.191-4.191v-39.542c0-2.315 1.877-4.191 4.191-4.191h66.945c2.315 0 4.191 1.877 4.191 4.191v39.542c.001 2.315-1.876 4.191-4.191 4.191z"/></g><circle cx="364.691" cy="364.691" fill="url(#SVGID_15_)" r="145.309"/><circle cx="364.691" cy="364.691" fill="url(#SVGID_16_)" r="136.89"/><circle cx="364.691" cy="364.691" fill="url(#SVGID_17_)" r="115.75"/><path d="m364.691 510c80.252 0 145.309-65.057 145.309-145.309 0-39.962-16.135-76.153-42.241-102.423l-205.49 205.49c26.269 26.107 62.46 42.242 102.422 42.242z" fill="url(#SVGID_18_)"/><circle cx="364.691" cy="364.691" fill="url(#SVGID_19_)" r="102.749"/><path d="m364.691 467.44c56.747 0 102.749-46.002 102.749-102.749 0-28.209-11.371-53.76-29.776-72.328l-145.301 145.301c18.568 18.405 44.119 29.776 72.328 29.776z" fill="url(#SVGID_20_)"/><path d="m506.997 394.208-85.911-85.911c-2.633-2.633-6.902-2.633-9.535 0l-41.987 41.987c-1.53-.517-3.168-.802-4.873-.802-8.401 0-15.21 6.81-15.21 15.21 0 4.693 2.132 8.881 5.473 11.67.595.718 2.638 2.73 2.995 3.083v44.496c0 2.367 1.223 4.446 3.068 5.649l66.269 66.269c40.365-19.297 70.431-56.675 79.711-101.651z" fill="url(#SVGID_21_)"/><path d="m364.691 364.691c-2.633-2.633-2.633-6.902 0-9.535l46.859-46.859c2.633-2.633 6.902-2.633 9.535 0 2.633 2.633 2.633 6.902 0 9.535l-46.859 46.859c-2.633 2.633-6.902 2.633-9.535 0z" fill="url(#SVGID_22_)"/><path d="m371.434 378.176v45.765c0 3.724-3.019 6.743-6.743 6.743-3.724 0-6.743-3.019-6.743-6.743v-45.765c0-3.724 3.019-6.743 6.743-6.743 3.724.001 6.743 3.019 6.743 6.743z" fill="url(#SVGID_23_)"/><circle cx="364.691" cy="364.691" fill="url(#SVGID_24_)" r="15.21"/><circle cx="364.691" cy="364.691" fill="url(#SVGID_25_)" r="12.694"/><path d="m371.495 351.085c1.026 2.047 1.604 4.358 1.604 6.804 0 8.401-6.81 15.211-15.21 15.211-2.446 0-4.757-.578-6.804-1.604 2.497 4.984 7.652 8.406 13.606 8.406 8.401 0 15.21-6.81 15.21-15.21.001-5.955-3.422-11.11-8.406-13.607z" fill="url(#SVGID_26_)"/><path d="m297.087 360.323c-1.237-1.451-3.075-2.374-5.131-2.374h-14.039c-3.724 0-6.742 3.019-6.742 6.743 0 2.02.893 3.828 2.3 5.063l34.422 34.758c1.237 1.451 3.075 2.374 5.131 2.374h14.039c3.724 0 6.743-3.019 6.743-6.743 0-2.02-.893-3.828-2.3-5.063z" fill="url(#SVGID_27_)"/><path d="m456.595 360.323c-1.237-1.451-3.075-2.374-5.131-2.374h-14.039c-3.724 0-6.742 3.019-6.742 6.743 0 2.02.893 3.828 2.3 5.063l34.422 34.758c1.237 1.451 3.075 2.374 5.13 2.374h14.039c3.724 0 6.743-3.019 6.743-6.743 0-2.02-.893-3.828-2.3-5.063z" fill="url(#SVGID_28_)"/><path d="m291.956 371.434h-14.039c-3.724 0-6.743-3.019-6.743-6.743 0-3.724 3.019-6.743 6.743-6.743h14.039c3.724 0 6.743 3.019 6.743 6.743-.001 3.724-3.019 6.743-6.743 6.743z" fill="url(#SVGID_29_)"/><path d="m451.465 371.434h-14.039c-3.724 0-6.742-3.019-6.742-6.743 0-3.724 3.019-6.743 6.742-6.743h14.039c3.724 0 6.742 3.019 6.742 6.743 0 3.724-3.018 6.743-6.742 6.743z" fill="url(#SVGID_30_)"/><path d="m360.323 297.087c-1.451-1.237-2.374-3.075-2.374-5.131v-14.039c0-3.724 3.019-6.742 6.743-6.742 2.02 0 3.828.893 5.063 2.3l34.758 34.422c1.451 1.237 2.374 3.075 2.374 5.131v14.039c0 3.724-3.019 6.743-6.743 6.743-2.02 0-3.828-.893-5.063-2.3z" fill="url(#SVGID_31_)"/><path d="m360.323 456.595c-1.451-1.237-2.374-3.075-2.374-5.131v-14.039c0-3.724 3.019-6.742 6.743-6.742 2.02 0 3.828.893 5.063 2.3l34.758 34.422c1.451 1.237 2.374 3.075 2.374 5.13v14.039c0 3.724-3.019 6.743-6.743 6.743-2.02 0-3.828-.893-5.063-2.3z" fill="url(#SVGID_32_)"/><path d="m371.434 291.956v-14.039c0-3.724-3.019-6.743-6.743-6.743-3.724 0-6.743 3.019-6.743 6.743v14.039c0 3.724 3.019 6.743 6.743 6.743 3.724 0 6.743-3.019 6.743-6.743z" fill="url(#SVGID_33_)"/><path d="m371.434 451.465v-14.039c0-3.724-3.019-6.742-6.743-6.742-3.724 0-6.743 3.019-6.743 6.742v14.039c0 3.724 3.019 6.742 6.743 6.742 3.724 0 6.743-3.018 6.743-6.742z" fill="url(#SVGID_34_)"/></svg>