<?xml version="1.0" encoding="utf-8"?>
<!-- Generator: Adobe Illustrator 23.0.0, SVG Export Plug-In . SVG Version: 6.00 Build 0)  -->
<svg version="1.1" xmlns="http://www.w3.org/2000/svg" xmlns:xlink="http://www.w3.org/1999/xlink" x="0px" y="0px"
	 viewBox="0 0 300 300" style="enable-background:new 0 0 300 300;" xml:space="preserve">
<style type="text/css">
	.st0{fill:url(#SVGID_1_);}
	.st1{fill:url(#SVGID_2_);}
	.st2{fill:url(#SVGID_3_);}
	.st3{fill:url(#SVGID_4_);}
	.st4{fill:url(#SVGID_5_);}
	.st5{fill:url(#SVGID_6_);}
	.st6{fill:url(#SVGID_7_);}
	.st7{fill:url(#SVGID_8_);}
	.st8{fill:url(#SVGID_9_);}
	.st9{fill:url(#SVGID_10_);}
	.st10{fill:url(#SVGID_11_);}
	.st11{fill:url(#SVGID_12_);}
	.st12{fill:url(#SVGID_13_);}
	.st13{fill:url(#SVGID_14_);}
	.st14{fill:url(#SVGID_15_);}
	.st15{fill:url(#SVGID_16_);}
	.st16{fill:url(#SVGID_17_);}
	.st17{fill:url(#SVGID_18_);}
	.st18{fill:url(#SVGID_19_);}
	.st19{fill:url(#SVGID_20_);}
	.st20{fill:url(#SVGID_21_);}
	.st21{fill:url(#SVGID_22_);}
	.st22{fill:url(#SVGID_23_);}
	.st23{fill:url(#SVGID_24_);}
	.st24{fill:url(#SVGID_25_);}
	.st25{fill:url(#SVGID_26_);}
	.st26{fill:url(#SVGID_27_);}
	.st27{fill:url(#SVGID_28_);}
	.st28{fill:url(#SVGID_29_);}
	.st29{fill:url(#SVGID_30_);}
	.st30{fill:url(#SVGID_31_);}
	.st31{fill:url(#SVGID_32_);}
	.st32{fill:url(#SVGID_33_);}
	.st33{fill:url(#SVGID_34_);}
	.st34{fill:url(#SVGID_35_);}
	.st35{fill:url(#SVGID_36_);}
	.st36{fill:url(#SVGID_37_);}
	.st37{fill:url(#SVGID_38_);}
	.st38{fill:url(#SVGID_39_);}
	.st39{fill:url(#SVGID_40_);}
	.st40{fill:url(#SVGID_41_);}
	.st41{fill:url(#SVGID_42_);}
	.st42{fill:url(#SVGID_43_);}
	.st43{fill:url(#SVGID_44_);}
	.st44{fill:url(#SVGID_45_);}
	.st45{fill:url(#SVGID_46_);}
	.st46{fill:url(#SVGID_47_);}
	.st47{fill:url(#SVGID_48_);}
	.st48{fill:#0469BB;}
	.st49{fill:url(#SVGID_49_);}
	.st50{fill:url(#SVGID_50_);}
	.st51{fill:url(#SVGID_51_);}
	.st52{fill:url(#SVGID_52_);}
	.st53{fill:url(#SVGID_53_);}
	.st54{fill:url(#SVGID_54_);}
	.st55{fill:url(#SVGID_55_);}
	.st56{fill:url(#SVGID_56_);}
	.st57{fill:url(#SVGID_57_);}
	.st58{fill:url(#SVGID_58_);}
	.st59{fill:url(#SVGID_59_);}
	.st60{fill:url(#SVGID_60_);}
	.st61{fill:url(#SVGID_61_);}
	.st62{fill:url(#SVGID_62_);}
	.st63{fill:url(#SVGID_63_);}
	.st64{fill:url(#SVGID_64_);}
	.st65{fill:url(#SVGID_65_);}
	.st66{fill:url(#SVGID_66_);}
	.st67{fill:url(#SVGID_67_);}
	.st68{fill:url(#SVGID_68_);}
	.st69{fill:url(#SVGID_69_);}
	.st70{fill:url(#SVGID_70_);}
	.st71{fill:url(#SVGID_71_);}
	.st72{fill:url(#SVGID_72_);}
	.st73{fill:url(#SVGID_73_);}
	.st74{fill:url(#SVGID_74_);}
	.st75{fill:url(#SVGID_75_);}
	.st76{fill:url(#SVGID_76_);}
	.st77{fill:url(#SVGID_77_);}
	.st78{fill:url(#SVGID_78_);}
	.st79{fill:url(#SVGID_79_);}
	.st80{fill:url(#SVGID_80_);}
	.st81{fill:url(#SVGID_81_);}
	.st82{fill:url(#SVGID_82_);}
	.st83{fill:url(#SVGID_83_);}
	.st84{fill:url(#SVGID_84_);}
	.st85{fill:url(#SVGID_85_);}
	.st86{fill:url(#SVGID_86_);}
	.st87{fill:url(#SVGID_87_);}
	.st88{fill:url(#SVGID_88_);}
	.st89{fill:url(#SVGID_89_);}
	.st90{fill:url(#SVGID_90_);}
	.st91{fill:url(#SVGID_91_);}
	.st92{fill:url(#SVGID_92_);}
	.st93{fill:url(#SVGID_93_);}
	.st94{fill:url(#SVGID_94_);}
	.st95{fill:url(#SVGID_95_);}
	.st96{fill:url(#SVGID_96_);}
	.st97{fill:url(#SVGID_97_);}
	.st98{fill:url(#SVGID_98_);}
	.st99{fill:url(#SVGID_99_);}
	.st100{fill:url(#SVGID_100_);}
	.st101{fill:url(#SVGID_101_);}
	.st102{fill:url(#SVGID_102_);}
	.st103{fill:url(#SVGID_103_);}
	.st104{fill:url(#SVGID_104_);}
	.st105{fill:url(#SVGID_105_);}
	.st106{fill:url(#SVGID_106_);}
	.st107{fill:url(#SVGID_107_);}
	.st108{fill:url(#SVGID_108_);}
	.st109{fill:url(#SVGID_109_);}
	.st110{fill:url(#SVGID_110_);}
	.st111{fill:url(#SVGID_111_);}
	.st112{fill:url(#SVGID_112_);}
	.st113{fill:url(#SVGID_113_);}
	.st114{fill:url(#SVGID_114_);}
	.st115{fill:url(#SVGID_115_);}
	.st116{fill:url(#SVGID_116_);}
	.st117{fill:url(#SVGID_117_);}
	.st118{fill:url(#SVGID_118_);}
	.st119{fill:url(#SVGID_119_);}
	.st120{fill:url(#SVGID_120_);}
	.st121{fill:url(#SVGID_121_);}
	.st122{fill:url(#SVGID_122_);}
	.st123{fill:url(#SVGID_123_);}
	.st124{fill:url(#SVGID_124_);}
	.st125{fill:url(#SVGID_125_);}
	.st126{fill:url(#SVGID_126_);}
	.st127{fill:url(#SVGID_127_);}
	.st128{fill:url(#SVGID_128_);}
	.st129{fill:url(#SVGID_129_);}
	.st130{fill:url(#SVGID_130_);}
	.st131{fill:url(#SVGID_131_);}
	.st132{fill:url(#SVGID_132_);}
	.st133{fill:url(#SVGID_133_);}
	.st134{fill:url(#SVGID_134_);}
	.st135{fill:url(#SVGID_135_);}
	.st136{fill:url(#SVGID_136_);}
	.st137{fill:url(#SVGID_137_);}
	.st138{fill:url(#SVGID_138_);}
	.st139{fill:url(#SVGID_139_);}
	.st140{fill:url(#SVGID_140_);}
	.st141{fill:url(#SVGID_141_);}
	.st142{fill:url(#SVGID_142_);}
	.st143{fill:url(#SVGID_143_);}
	.st144{fill:url(#SVGID_144_);}
	.st145{fill:url(#SVGID_145_);}
	.st146{fill:url(#SVGID_146_);}
	.st147{fill:url(#SVGID_147_);}
	.st148{fill:url(#SVGID_148_);}
	.st149{fill:url(#SVGID_149_);}
	.st150{fill:url(#SVGID_150_);}
	.st151{fill:url(#SVGID_151_);}
	.st152{fill:url(#SVGID_152_);}
	.st153{fill:url(#SVGID_153_);}
	.st154{fill:url(#SVGID_154_);}
	.st155{fill:url(#SVGID_155_);}
	.st156{fill:url(#SVGID_156_);}
	.st157{fill:url(#SVGID_157_);}
	.st158{fill:url(#SVGID_158_);}
	.st159{fill:url(#SVGID_159_);}
	.st160{fill:url(#SVGID_160_);}
	.st161{fill:url(#SVGID_161_);}
	.st162{fill:url(#SVGID_162_);}
	.st163{fill:url(#SVGID_163_);}
	.st164{fill:url(#SVGID_164_);}
	.st165{fill:url(#SVGID_165_);}
	.st166{fill:url(#SVGID_166_);}
	.st167{fill:url(#SVGID_167_);}
	.st168{fill:url(#SVGID_168_);}
	.st169{fill:url(#SVGID_169_);}
	.st170{fill:url(#SVGID_170_);}
	.st171{fill:url(#SVGID_171_);}
	.st172{fill:url(#SVGID_172_);}
	.st173{fill:url(#SVGID_173_);}
	.st174{fill:url(#SVGID_174_);}
	.st175{fill:url(#SVGID_175_);}
	.st176{fill:url(#SVGID_176_);}
	.st177{fill:url(#SVGID_177_);}
	.st178{fill:url(#SVGID_178_);}
	.st179{fill:url(#SVGID_179_);}
	.st180{fill:url(#SVGID_180_);}
	.st181{fill:url(#SVGID_181_);}
	.st182{fill:url(#SVGID_182_);}
	.st183{fill:url(#SVGID_183_);}
	.st184{fill:url(#SVGID_184_);}
	.st185{fill:url(#SVGID_185_);}
	.st186{fill:url(#SVGID_186_);}
	.st187{fill:url(#SVGID_187_);}
	.st188{fill:url(#SVGID_188_);}
</style>
<g id="Layer_2">
</g>
<g id="Layer_1">
	<g>
		<g>
			
				<linearGradient id="SVGID_1_" gradientUnits="userSpaceOnUse" x1="72.5882" y1="866.5211" x2="249.8971" y2="689.2122" gradientTransform="matrix(1.0039 0 0 -1.0039 3.1726 945.9648)">
				<stop  offset="0" style="stop-color:#FFA936"/>
				<stop  offset="0.4112" style="stop-color:#FF8548"/>
				<stop  offset="0.7781" style="stop-color:#FF6C54"/>
				<stop  offset="1" style="stop-color:#FF6359"/>
			</linearGradient>
			<circle class="st0" cx="150" cy="150" r="122.9"/>
			
				<linearGradient id="SVGID_2_" gradientUnits="userSpaceOnUse" x1="-1319.9723" y1="784.8629" x2="-1161.7926" y2="626.6832" gradientTransform="matrix(-1.0039 0 0 1.0039 -1109.1726 -571.9647)">
				<stop  offset="0" style="stop-color:#FFA936"/>
				<stop  offset="0.4112" style="stop-color:#FF8548"/>
				<stop  offset="0.7781" style="stop-color:#FF6C54"/>
				<stop  offset="1" style="stop-color:#FF6359"/>
			</linearGradient>
			<circle class="st1" cx="150" cy="150" r="109.6"/>
			
				<linearGradient id="SVGID_3_" gradientUnits="userSpaceOnUse" x1="96.9593" y1="738.5793" x2="58.1044" y2="795.2431" gradientTransform="matrix(1.0039 0 0 -1.0039 3.1726 945.9648)">
				<stop  offset="0" style="stop-color:#F82814;stop-opacity:0"/>
				<stop  offset="1" style="stop-color:#C0272D"/>
			</linearGradient>
			<path class="st2" d="M201.8,261.5c-15.7,7.3-33.3,11.4-51.8,11.4c-16,0-31.4-3.1-45.4-8.7c-31.4-12.5-56.4-37.5-68.9-68.9
				c-5.6-14-8.6-29.3-8.6-45.3c0-11.9,1.7-23.5,4.9-34.4c2.7-0.7,5.5-1,8.4-1c10.6,0,20,4.6,26.5,11.9L201.8,261.5z"/>
			
				<linearGradient id="SVGID_4_" gradientUnits="userSpaceOnUse" x1="205.2161" y1="841.1172" x2="113.3405" y2="910.3275" gradientTransform="matrix(1.0039 0 0 -1.0039 3.1726 945.9648)">
				<stop  offset="0" style="stop-color:#F82814;stop-opacity:0"/>
				<stop  offset="1" style="stop-color:#C0272D"/>
			</linearGradient>
			<path class="st3" d="M272.9,150c0,18.5-4.1,36-11.4,51.8l-135-135c-7.3-6.5-11.9-15.9-11.9-26.4c0-2.9,0.3-5.7,1-8.4
				c10.9-3.2,22.4-4.9,34.4-4.9c16,0,31.3,3.1,45.4,8.7c31.4,12.5,56.4,37.5,68.8,68.8C269.8,118.6,272.9,134,272.9,150z"/>
			
				<linearGradient id="SVGID_5_" gradientUnits="userSpaceOnUse" x1="110.0452" y1="829.0641" x2="191.414" y2="747.6954" gradientTransform="matrix(1.0039 0 0 -1.0039 3.1726 945.9648)">
				<stop  offset="0" style="stop-color:#F8F6FB"/>
				<stop  offset="1" style="stop-color:#EFDCFB"/>
			</linearGradient>
			<circle class="st4" cx="150" cy="150" r="97.3"/>
		</g>
		
			<linearGradient id="SVGID_6_" gradientUnits="userSpaceOnUse" x1="255.3762" y1="742.8651" x2="247.8883" y2="768.9708" gradientTransform="matrix(1.0039 0 0 -1.0039 3.1726 945.9648)">
			<stop  offset="0" style="stop-color:#F82814;stop-opacity:0"/>
			<stop  offset="1" style="stop-color:#C0272D"/>
		</linearGradient>
		<path class="st5" d="M232.9,173.2l28.6,28.6c4.2-9,7.3-18.6,9.2-28.6H232.9z"/>
		
			<linearGradient id="SVGID_7_" gradientUnits="userSpaceOnUse" x1="198.4998" y1="673.1965" x2="166.1206" y2="694.0403" gradientTransform="matrix(1.0039 0 0 -1.0039 3.1726 945.9648)">
			<stop  offset="0" style="stop-color:#F82814;stop-opacity:0"/>
			<stop  offset="1" style="stop-color:#C0272D"/>
		</linearGradient>
		<path class="st6" d="M175.3,270.3c9.2-1.9,18.1-4.9,26.5-8.8L175.3,235V270.3z"/>
		
			<linearGradient id="SVGID_8_" gradientUnits="userSpaceOnUse" x1="100.2996" y1="740.5597" x2="-9.9157" y2="850.7756" gradientTransform="matrix(1.0039 0 0 -1.0039 3.1726 945.9648)">
			<stop  offset="0" style="stop-color:#EFDCFB;stop-opacity:0"/>
			<stop  offset="2.870000e-02" style="stop-color:#E9D6F7;stop-opacity:2.900000e-02"/>
			<stop  offset="0.2203" style="stop-color:#C5B5DE;stop-opacity:0.22"/>
			<stop  offset="0.4138" style="stop-color:#AA9BCB;stop-opacity:0.414"/>
			<stop  offset="0.6078" style="stop-color:#9688BD;stop-opacity:0.608"/>
			<stop  offset="0.8028" style="stop-color:#8A7DB5;stop-opacity:0.803"/>
			<stop  offset="1" style="stop-color:#8679B2"/>
		</linearGradient>
		<path class="st7" d="M150,247.3c11.3,0,22.1-1.9,32.1-5.4L66.9,126.6c-2.6-3-5.7-4.9-9.2-6.8c-3.2,9.7-5,19.5-5,30.3
			C52.7,203.7,96.3,247.3,150,247.3z"/>
		
			<linearGradient id="SVGID_9_" gradientUnits="userSpaceOnUse" x1="200.6322" y1="836.71" x2="61.8814" y2="975.4609" gradientTransform="matrix(1.0039 0 0 -1.0039 3.1726 945.9648)">
			<stop  offset="0" style="stop-color:#EFDCFB;stop-opacity:0"/>
			<stop  offset="2.870000e-02" style="stop-color:#E9D6F7;stop-opacity:2.900000e-02"/>
			<stop  offset="0.2203" style="stop-color:#C5B5DE;stop-opacity:0.22"/>
			<stop  offset="0.4138" style="stop-color:#AA9BCB;stop-opacity:0.414"/>
			<stop  offset="0.6078" style="stop-color:#9688BD;stop-opacity:0.608"/>
			<stop  offset="0.8028" style="stop-color:#8A7DB5;stop-opacity:0.803"/>
			<stop  offset="1" style="stop-color:#8679B2"/>
		</linearGradient>
		<path class="st8" d="M150,52.7c-10.8,0-21.1,1.8-30.8,5c1.9,3.4,4.4,6.5,7.4,9.1l115.3,115.3c3.5-10.1,5.4-20.9,5.4-32.1
			C247.3,96.3,203.7,52.7,150,52.7z"/>
		
			<linearGradient id="SVGID_10_" gradientUnits="userSpaceOnUse" x1="212.0327" y1="741.4726" x2="55.8065" y2="897.6988" gradientTransform="matrix(1.0039 0 0 -1.0039 3.1726 945.9648)">
			<stop  offset="0" style="stop-color:#EFDCFB;stop-opacity:0"/>
			<stop  offset="2.870000e-02" style="stop-color:#E9D6F7;stop-opacity:2.900000e-02"/>
			<stop  offset="0.2203" style="stop-color:#C5B5DE;stop-opacity:0.22"/>
			<stop  offset="0.4138" style="stop-color:#AA9BCB;stop-opacity:0.414"/>
			<stop  offset="0.6078" style="stop-color:#9688BD;stop-opacity:0.608"/>
			<stop  offset="0.8028" style="stop-color:#8A7DB5;stop-opacity:0.803"/>
			<stop  offset="1" style="stop-color:#8679B2"/>
		</linearGradient>
		<path class="st9" d="M245.8,167.3l-55.4-55.4c-0.4-1.7-2.1-2.3-4-1.7l-91.1,30l0,4.7l0.3,0.7l93.5,93.5
			C218.3,226.3,240,199.6,245.8,167.3L245.8,167.3z"/>
		<g>
			
				<linearGradient id="SVGID_11_" gradientUnits="userSpaceOnUse" x1="859.0721" y1="2143.946" x2="905.9043" y2="2063.083" gradientTransform="matrix(0.7098 0.7098 0.7098 -0.7098 -1985.7729 1025.1129)">
				<stop  offset="0" style="stop-color:#18CEFB"/>
				<stop  offset="0.2969" style="stop-color:#2BB9F9"/>
				<stop  offset="0.7345" style="stop-color:#42A0F7"/>
				<stop  offset="1" style="stop-color:#4A97F6"/>
			</linearGradient>
			<path class="st10" d="M186.4,109.7l-91.1,30c-2.8,0.9-2.8,4.9,0,5.8l38.9,12.5c3.7,1.2,6.6,4.1,7.7,7.7l12.5,38.9
				c0.9,2.8,4.9,2.8,5.8,0l30-91.1C191.1,111.2,188.8,108.9,186.4,109.7L186.4,109.7z"/>
			
				<linearGradient id="SVGID_12_" gradientUnits="userSpaceOnUse" x1="888.0735" y1="2098.7222" x2="888.0735" y2="2138.4976" gradientTransform="matrix(0.7098 0.7098 0.7098 -0.7098 -1985.7729 1025.1129)">
				<stop  offset="0" style="stop-color:#4A97F6;stop-opacity:0"/>
				<stop  offset="1" style="stop-color:#0469BB"/>
			</linearGradient>
			<path class="st11" d="M146.5,148.9l-51.1-3.3l38.9,12.5c3.7,1.2,6.6,4.1,7.7,7.7l12.5,38.9l-3.3-51.1
				C151,151,149,149,146.5,148.9L146.5,148.9z"/>
			
				<linearGradient id="SVGID_13_" gradientUnits="userSpaceOnUse" x1="901.771" y1="2129.0415" x2="850.2195" y2="2176.7268" gradientTransform="matrix(0.7098 0.7098 0.7098 -0.7098 -1985.7729 1025.1129)">
				<stop  offset="0" style="stop-color:#4A97F6;stop-opacity:0"/>
				<stop  offset="1" style="stop-color:#0469BB"/>
			</linearGradient>
			<path class="st12" d="M141.9,165.8l12.5,38.9c0.9,2.8,4.9,2.8,5.8,0l30-91.1c0.4-1.2,0-2.4-0.7-3.1L139,161
				C140.3,162.3,141.4,163.9,141.9,165.8L141.9,165.8z"/>
		</g>
		<g>
			
				<linearGradient id="SVGID_14_" gradientUnits="userSpaceOnUse" x1="232.2932" y1="816.0226" x2="283.4697" y2="764.8461" gradientTransform="matrix(1.0039 0 0 -1.0039 3.1726 945.9648)">
				<stop  offset="0" style="stop-color:#CDEC7A"/>
				<stop  offset="0.2157" style="stop-color:#B0E995"/>
				<stop  offset="0.5613" style="stop-color:#87E4BB"/>
				<stop  offset="0.8347" style="stop-color:#6EE1D2"/>
				<stop  offset="1" style="stop-color:#65E0DB"/>
			</linearGradient>
			<circle class="st13" cx="259.6" cy="150" r="35.4"/>
			
				<linearGradient id="SVGID_15_" gradientUnits="userSpaceOnUse" x1="242.9564" y1="792.8558" x2="267.9649" y2="792.8558" gradientTransform="matrix(1.0039 0 0 -1.0039 3.1726 945.9648)">
				<stop  offset="0" style="stop-color:#8A7889"/>
				<stop  offset="0.3344" style="stop-color:#867385"/>
				<stop  offset="0.7039" style="stop-color:#7B667B"/>
				<stop  offset="1" style="stop-color:#6E566E"/>
			</linearGradient>
			<path class="st14" d="M255.4,146.8h8c1.6,0,2.5,1.5,2.5,3.3c0,1.4-0.7,3.1-2.5,3.1h-8v9.1h14.3c1.6,0,2.5,1.7,2.5,3.7
				c0,1.7-0.7,3.6-2.5,3.6h-19c-1.8,0-3.6-0.9-3.6-2.6v-33.8c0-1.7,1.8-2.6,3.6-2.6h19c1.8,0,2.5,1.9,2.5,3.6c0,2-0.9,3.7-2.5,3.7
				h-14.3V146.8z"/>
		</g>
		<g>
			
				<linearGradient id="SVGID_16_" gradientUnits="userSpaceOnUse" x1="123.0867" y1="706.8161" x2="174.2632" y2="655.6396" gradientTransform="matrix(1.0039 0 0 -1.0039 3.1726 945.9648)">
				<stop  offset="0" style="stop-color:#CDEC7A"/>
				<stop  offset="0.2157" style="stop-color:#B0E995"/>
				<stop  offset="0.5613" style="stop-color:#87E4BB"/>
				<stop  offset="0.8347" style="stop-color:#6EE1D2"/>
				<stop  offset="1" style="stop-color:#65E0DB"/>
			</linearGradient>
			<circle class="st15" cx="150" cy="259.6" r="35.4"/>
			
				<linearGradient id="SVGID_17_" gradientUnits="userSpaceOnUse" x1="133.2186" y1="683.649" x2="159.2891" y2="683.649" gradientTransform="matrix(1.0039 0 0 -1.0039 3.1726 945.9648)">
				<stop  offset="0" style="stop-color:#8A7889"/>
				<stop  offset="0.3344" style="stop-color:#867385"/>
				<stop  offset="0.7039" style="stop-color:#7B667B"/>
				<stop  offset="1" style="stop-color:#6E566E"/>
			</linearGradient>
			<path class="st16" d="M154.8,268.6c0-6.4-16.9-5.3-16.9-17.8c0-8,7-11,13.6-11c2.8,0,10.6,0.5,10.6,4.7c0,1.4-1,4.4-3.3,4.4
				c-1.9,0-2.9-2-7.3-2c-3.8,0-5.3,1.5-5.3,3.2c0,5.3,16.9,4.3,16.9,17.8c0,7.7-5.6,11.8-13.3,11.8c-7,0-12.8-3.4-12.8-6.9
				c0-1.8,1.6-4.5,3.6-4.5c2.5,0,4.1,3.9,9.1,3.9C152.1,272.1,154.8,271.1,154.8,268.6z"/>
		</g>
		<g>
			
				<linearGradient id="SVGID_18_" gradientUnits="userSpaceOnUse" x1="13.8802" y1="816.0226" x2="65.0567" y2="764.8461" gradientTransform="matrix(1.0039 0 0 -1.0039 3.1726 945.9648)">
				<stop  offset="0" style="stop-color:#CDEC7A"/>
				<stop  offset="0.2157" style="stop-color:#B0E995"/>
				<stop  offset="0.5613" style="stop-color:#87E4BB"/>
				<stop  offset="0.8347" style="stop-color:#6EE1D2"/>
				<stop  offset="1" style="stop-color:#65E0DB"/>
			</linearGradient>
			<circle class="st17" cx="40.4" cy="150" r="35.4"/>
			
				<linearGradient id="SVGID_19_" gradientUnits="userSpaceOnUse" x1="12.7814" y1="792.8552" x2="61.3122" y2="792.8552" gradientTransform="matrix(1.0039 0 0 -1.0039 3.1726 945.9648)">
				<stop  offset="0" style="stop-color:#8A7889"/>
				<stop  offset="0.3344" style="stop-color:#867385"/>
				<stop  offset="0.7039" style="stop-color:#7B667B"/>
				<stop  offset="1" style="stop-color:#6E566E"/>
			</linearGradient>
			<path class="st18" d="M54,166.9c-0.6,1.9-3,2.8-5.5,2.8c-2.4,0-5-0.9-5.4-2.8l-2.8-12.6l-2.8,12.6c-0.4,1.9-3,2.8-5.4,2.8
				c-2.5,0-4.9-0.9-5.5-2.8l-10.6-32.5c-0.1-0.2-0.1-0.4-0.1-0.7c0-1.8,3-3.3,5.4-3.3c1.3,0,2.3,0.4,2.7,1.5l8.1,27.3l4.2-18
				c0.3-1.4,2.2-2.2,4-2.2s3.7,0.7,4,2.2l4.2,18l8.1-27.3c0.3-1.1,1.4-1.5,2.7-1.5c2.4,0,5.4,1.5,5.4,3.3c0,0.3-0.1,0.5-0.1,0.7
				L54,166.9z"/>
		</g>
		<g>
			
				<linearGradient id="SVGID_20_" gradientUnits="userSpaceOnUse" x1="123.0867" y1="925.2291" x2="174.2632" y2="874.0527" gradientTransform="matrix(1.0039 0 0 -1.0039 3.1726 945.9648)">
				<stop  offset="0" style="stop-color:#CDEC7A"/>
				<stop  offset="0.2157" style="stop-color:#B0E995"/>
				<stop  offset="0.5613" style="stop-color:#87E4BB"/>
				<stop  offset="0.8347" style="stop-color:#6EE1D2"/>
				<stop  offset="1" style="stop-color:#65E0DB"/>
			</linearGradient>
			<circle class="st19" cx="150" cy="40.4" r="35.4"/>
			
				<linearGradient id="SVGID_21_" gradientUnits="userSpaceOnUse" x1="129.8625" y1="918.4849" x2="166.6597" y2="881.6877" gradientTransform="matrix(1.0039 0 0 -1.0039 3.1726 945.9648)">
				<stop  offset="0" style="stop-color:#8A7889"/>
				<stop  offset="0.3344" style="stop-color:#867385"/>
				<stop  offset="0.7039" style="stop-color:#7B667B"/>
				<stop  offset="1" style="stop-color:#6E566E"/>
			</linearGradient>
			<path class="st20" d="M154.8,57.6l-10.1-18.4v18.1c0,1.7-2.1,2.6-4.2,2.6c-2.1,0-4.2-0.9-4.2-2.6V23.4c0-1.8,2.1-2.6,4.2-2.6
				c3,0,4.1,0.3,6.1,4.2l8.6,16.5V23.4c0-1.8,2.1-2.5,4.2-2.5s4.2,0.7,4.2,2.5v33.9c0,1.7-2.1,2.6-4.2,2.6
				C157.5,59.8,155.8,59.5,154.8,57.6z"/>
		</g>
	</g>
</g>
</svg>
