<?xml version="1.0" encoding="utf-8"?>
<!-- Generator: Adobe Illustrator 23.0.0, SVG Export Plug-In . SVG Version: 6.00 Build 0)  -->
<svg version="1.1" xmlns="http://www.w3.org/2000/svg" xmlns:xlink="http://www.w3.org/1999/xlink" x="0px" y="0px"
	 viewBox="0 0 300 300" style="enable-background:new 0 0 300 300;" xml:space="preserve">
<style type="text/css">
	.st0{fill:url(#SVGID_1_);}
	.st1{fill:url(#SVGID_2_);}
	.st2{fill:url(#SVGID_3_);}
	.st3{fill:url(#SVGID_4_);}
	.st4{fill:url(#SVGID_5_);}
	.st5{fill:url(#SVGID_6_);}
	.st6{fill:url(#SVGID_7_);}
	.st7{fill:url(#SVGID_8_);}
	.st8{fill:url(#SVGID_9_);}
	.st9{fill:url(#SVGID_10_);}
	.st10{fill:url(#SVGID_11_);}
	.st11{fill:url(#SVGID_12_);}
	.st12{fill:url(#SVGID_13_);}
	.st13{fill:url(#SVGID_14_);}
	.st14{fill:url(#SVGID_15_);}
	.st15{fill:url(#SVGID_16_);}
	.st16{fill:url(#SVGID_17_);}
	.st17{fill:url(#SVGID_18_);}
	.st18{fill:url(#SVGID_19_);}
	.st19{fill:url(#SVGID_20_);}
	.st20{fill:url(#SVGID_21_);}
	.st21{fill:url(#SVGID_22_);}
	.st22{fill:url(#SVGID_23_);}
	.st23{fill:url(#SVGID_24_);}
	.st24{fill:url(#SVGID_25_);}
	.st25{fill:url(#SVGID_26_);}
	.st26{fill:url(#SVGID_27_);}
	.st27{fill:url(#SVGID_28_);}
	.st28{fill:url(#SVGID_29_);}
	.st29{fill:url(#SVGID_30_);}
	.st30{fill:url(#SVGID_31_);}
	.st31{fill:url(#SVGID_32_);}
	.st32{fill:url(#SVGID_33_);}
	.st33{fill:url(#SVGID_34_);}
	.st34{fill:url(#SVGID_35_);}
	.st35{fill:url(#SVGID_36_);}
	.st36{fill:url(#SVGID_37_);}
	.st37{fill:url(#SVGID_38_);}
	.st38{fill:url(#SVGID_39_);}
	.st39{fill:url(#SVGID_40_);}
	.st40{fill:url(#SVGID_41_);}
	.st41{fill:url(#SVGID_42_);}
	.st42{fill:url(#SVGID_43_);}
	.st43{fill:url(#SVGID_44_);}
	.st44{fill:url(#SVGID_45_);}
	.st45{fill:url(#SVGID_46_);}
	.st46{fill:url(#SVGID_47_);}
	.st47{fill:url(#SVGID_48_);}
	.st48{fill:#0469BB;}
	.st49{fill:url(#SVGID_49_);}
	.st50{fill:url(#SVGID_50_);}
	.st51{fill:url(#SVGID_51_);}
	.st52{fill:url(#SVGID_52_);}
	.st53{fill:url(#SVGID_53_);}
	.st54{fill:url(#SVGID_54_);}
	.st55{fill:url(#SVGID_55_);}
	.st56{fill:url(#SVGID_56_);}
	.st57{fill:url(#SVGID_57_);}
	.st58{fill:url(#SVGID_58_);}
	.st59{fill:url(#SVGID_59_);}
	.st60{fill:url(#SVGID_60_);}
	.st61{fill:url(#SVGID_61_);}
	.st62{fill:url(#SVGID_62_);}
	.st63{fill:url(#SVGID_63_);}
	.st64{fill:url(#SVGID_64_);}
	.st65{fill:url(#SVGID_65_);}
	.st66{fill:url(#SVGID_66_);}
	.st67{fill:url(#SVGID_67_);}
	.st68{fill:url(#SVGID_68_);}
	.st69{fill:url(#SVGID_69_);}
	.st70{fill:url(#SVGID_70_);}
	.st71{fill:url(#SVGID_71_);}
	.st72{fill:url(#SVGID_72_);}
	.st73{fill:url(#SVGID_73_);}
	.st74{fill:url(#SVGID_74_);}
	.st75{fill:url(#SVGID_75_);}
	.st76{fill:url(#SVGID_76_);}
	.st77{fill:url(#SVGID_77_);}
	.st78{fill:url(#SVGID_78_);}
	.st79{fill:url(#SVGID_79_);}
	.st80{fill:url(#SVGID_80_);}
	.st81{fill:url(#SVGID_81_);}
	.st82{fill:url(#SVGID_82_);}
	.st83{fill:url(#SVGID_83_);}
	.st84{fill:url(#SVGID_84_);}
	.st85{fill:url(#SVGID_85_);}
	.st86{fill:url(#SVGID_86_);}
	.st87{fill:url(#SVGID_87_);}
	.st88{fill:url(#SVGID_88_);}
	.st89{fill:url(#SVGID_89_);}
	.st90{fill:url(#SVGID_90_);}
	.st91{fill:url(#SVGID_91_);}
	.st92{fill:url(#SVGID_92_);}
	.st93{fill:url(#SVGID_93_);}
	.st94{fill:url(#SVGID_94_);}
	.st95{fill:url(#SVGID_95_);}
	.st96{fill:url(#SVGID_96_);}
	.st97{fill:url(#SVGID_97_);}
	.st98{fill:url(#SVGID_98_);}
	.st99{fill:url(#SVGID_99_);}
	.st100{fill:url(#SVGID_100_);}
	.st101{fill:url(#SVGID_101_);}
	.st102{fill:url(#SVGID_102_);}
	.st103{fill:url(#SVGID_103_);}
	.st104{fill:url(#SVGID_104_);}
	.st105{fill:url(#SVGID_105_);}
	.st106{fill:url(#SVGID_106_);}
	.st107{fill:url(#SVGID_107_);}
	.st108{fill:url(#SVGID_108_);}
	.st109{fill:url(#SVGID_109_);}
	.st110{fill:url(#SVGID_110_);}
	.st111{fill:url(#SVGID_111_);}
	.st112{fill:url(#SVGID_112_);}
	.st113{fill:url(#SVGID_113_);}
	.st114{fill:url(#SVGID_114_);}
	.st115{fill:url(#SVGID_115_);}
	.st116{fill:url(#SVGID_116_);}
	.st117{fill:url(#SVGID_117_);}
	.st118{fill:url(#SVGID_118_);}
	.st119{fill:url(#SVGID_119_);}
	.st120{fill:url(#SVGID_120_);}
	.st121{fill:url(#SVGID_121_);}
	.st122{fill:url(#SVGID_122_);}
	.st123{fill:url(#SVGID_123_);}
	.st124{fill:url(#SVGID_124_);}
	.st125{fill:url(#SVGID_125_);}
	.st126{fill:url(#SVGID_126_);}
	.st127{fill:url(#SVGID_127_);}
	.st128{fill:url(#SVGID_128_);}
	.st129{fill:url(#SVGID_129_);}
	.st130{fill:url(#SVGID_130_);}
	.st131{fill:url(#SVGID_131_);}
	.st132{fill:url(#SVGID_132_);}
	.st133{fill:url(#SVGID_133_);}
	.st134{fill:url(#SVGID_134_);}
	.st135{fill:url(#SVGID_135_);}
	.st136{fill:url(#SVGID_136_);}
	.st137{fill:url(#SVGID_137_);}
	.st138{fill:url(#SVGID_138_);}
	.st139{fill:url(#SVGID_139_);}
	.st140{fill:url(#SVGID_140_);}
	.st141{fill:url(#SVGID_141_);}
	.st142{fill:url(#SVGID_142_);}
	.st143{fill:url(#SVGID_143_);}
	.st144{fill:url(#SVGID_144_);}
	.st145{fill:url(#SVGID_145_);}
	.st146{fill:url(#SVGID_146_);}
	.st147{fill:url(#SVGID_147_);}
	.st148{fill:url(#SVGID_148_);}
	.st149{fill:url(#SVGID_149_);}
	.st150{fill:url(#SVGID_150_);}
	.st151{fill:url(#SVGID_151_);}
	.st152{fill:url(#SVGID_152_);}
	.st153{fill:url(#SVGID_153_);}
	.st154{fill:url(#SVGID_154_);}
	.st155{fill:url(#SVGID_155_);}
	.st156{fill:url(#SVGID_156_);}
	.st157{fill:url(#SVGID_157_);}
	.st158{fill:url(#SVGID_158_);}
	.st159{fill:url(#SVGID_159_);}
	.st160{fill:url(#SVGID_160_);}
	.st161{fill:url(#SVGID_161_);}
	.st162{fill:url(#SVGID_162_);}
	.st163{fill:url(#SVGID_163_);}
	.st164{fill:url(#SVGID_164_);}
	.st165{fill:url(#SVGID_165_);}
	.st166{fill:url(#SVGID_166_);}
	.st167{fill:url(#SVGID_167_);}
	.st168{fill:url(#SVGID_168_);}
	.st169{fill:url(#SVGID_169_);}
	.st170{fill:url(#SVGID_170_);}
	.st171{fill:url(#SVGID_171_);}
	.st172{fill:url(#SVGID_172_);}
	.st173{fill:url(#SVGID_173_);}
	.st174{fill:url(#SVGID_174_);}
	.st175{fill:url(#SVGID_175_);}
	.st176{fill:url(#SVGID_176_);}
	.st177{fill:url(#SVGID_177_);}
	.st178{fill:url(#SVGID_178_);}
	.st179{fill:url(#SVGID_179_);}
	.st180{fill:url(#SVGID_180_);}
	.st181{fill:url(#SVGID_181_);}
	.st182{fill:url(#SVGID_182_);}
	.st183{fill:url(#SVGID_183_);}
	.st184{fill:url(#SVGID_184_);}
	.st185{fill:url(#SVGID_185_);}
	.st186{fill:url(#SVGID_186_);}
	.st187{fill:url(#SVGID_187_);}
	.st188{fill:url(#SVGID_188_);}
</style>
<g id="Layer_2">
</g>
<g id="Layer_1">
	<g>
		<g>
			
				<linearGradient id="SVGID_1_" gradientUnits="userSpaceOnUse" x1="183.8374" y1="240.3333" x2="218.3882" y2="185.3919" gradientTransform="matrix(1.0039 0 0 -1.0039 1.9177 304.7098)">
				<stop  offset="0" style="stop-color:#FFD945"/>
				<stop  offset="0.3043" style="stop-color:#FFCD3E"/>
				<stop  offset="0.8558" style="stop-color:#FFAD2B"/>
				<stop  offset="1" style="stop-color:#FFA325"/>
			</linearGradient>
			<path class="st0" d="M247.5,121.2h-90.8c-3.7,0-6.8-3-6.8-6.8V77.7c0-3.7,3-6.8,6.8-6.8h90.8c4.2,0,8.2,1.7,11.1,4.6L272.1,89
				c3.9,3.9,3.9,10.2,0,14.1l-13.4,13.5C255.7,119.6,251.7,121.2,247.5,121.2L247.5,121.2z"/>
			
				<linearGradient id="SVGID_2_" gradientUnits="userSpaceOnUse" x1="212.0959" y1="211.5396" x2="263.0725" y2="316.8911" gradientTransform="matrix(1.0039 0 0 -1.0039 1.9177 304.7098)">
				<stop  offset="0" style="stop-color:#F82814;stop-opacity:0"/>
				<stop  offset="1" style="stop-color:#C0272D"/>
			</linearGradient>
			<path class="st1" d="M150,114.5c0,3.7,3,6.8,6.8,6.8h90.8c4.2,0,8.2-1.7,11.1-4.6l13.4-13.5c1.9-2,2.9-4.5,2.9-7.1H150V114.5z"/>
		</g>
		<g>
			
				<linearGradient id="SVGID_3_" gradientUnits="userSpaceOnUse" x1="162.0847" y1="153.6851" x2="185.4325" y2="116.5583" gradientTransform="matrix(1.0039 0 0 -1.0039 1.9177 304.7098)">
				<stop  offset="0" style="stop-color:#CDEC7A"/>
				<stop  offset="0.2157" style="stop-color:#B0E995"/>
				<stop  offset="0.5613" style="stop-color:#87E4BB"/>
				<stop  offset="0.8347" style="stop-color:#6EE1D2"/>
				<stop  offset="1" style="stop-color:#65E0DB"/>
			</linearGradient>
			<path class="st2" d="M200.6,193.8h-47.1c-1.9,0-3.5-2.7-3.5-6v-32.5c0-3.3,1.6-6,3.5-6h47.1c2.2,0,4.2,1.5,5.8,4.1l7,11.9
				c2,3.4,2,9,0,12.5l-7,11.9C204.8,192.4,202.8,193.8,200.6,193.8L200.6,193.8z"/>
			
				<linearGradient id="SVGID_4_" gradientUnits="userSpaceOnUse" x1="169.3881" y1="109.5021" x2="201.3516" y2="175.5604" gradientTransform="matrix(1.0039 0 0 -1.0039 1.9177 304.7098)">
				<stop  offset="0" style="stop-color:#CDEC7A;stop-opacity:0"/>
				<stop  offset="0.2354" style="stop-color:#9AD57D;stop-opacity:0.235"/>
				<stop  offset="0.6035" style="stop-color:#51B482;stop-opacity:0.604"/>
				<stop  offset="0.8679" style="stop-color:#239F85;stop-opacity:0.868"/>
				<stop  offset="1" style="stop-color:#119786"/>
			</linearGradient>
			<path class="st3" d="M150,187.9c0,3.3,1.6,6,3.5,6h47.1c2.2,0,4.2-1.5,5.8-4.1l7-11.9c1-1.7,1.5-4,1.5-6.2H150V187.9z"/>
		</g>
		
			<linearGradient id="SVGID_5_" gradientUnits="userSpaceOnUse" x1="200.6945" y1="196.4054" x2="123.3801" y2="218.4952" gradientTransform="matrix(1.0039 0 0 -1.0039 1.9177 304.7098)">
			<stop  offset="0" style="stop-color:#F82814;stop-opacity:0"/>
			<stop  offset="1" style="stop-color:#C0272D"/>
		</linearGradient>
		<path class="st4" d="M170.7,70.9h-13.9c-3.7,0-6.8,3-6.8,6.8v36.8c0,3.7,3,6.8,6.8,6.8H221L170.7,70.9z"/>
		
			<linearGradient id="SVGID_6_" gradientUnits="userSpaceOnUse" x1="204.73" y1="110.8159" x2="114.6714" y2="153.8628" gradientTransform="matrix(1.0039 0 0 -1.0039 1.9177 304.7098)">
			<stop  offset="0" style="stop-color:#CDEC7A;stop-opacity:0"/>
			<stop  offset="0.2354" style="stop-color:#9AD57D;stop-opacity:0.235"/>
			<stop  offset="0.6035" style="stop-color:#51B482;stop-opacity:0.604"/>
			<stop  offset="0.8679" style="stop-color:#239F85;stop-opacity:0.868"/>
			<stop  offset="1" style="stop-color:#119786"/>
		</linearGradient>
		<path class="st5" d="M153.5,193.8h47.1c2.2,0,4.2-1.5,5.8-4.1l1.5-2.5L170.5,150c0,0,0-0.2-0.1-0.6h-16.9c-1.9,0-3.5,2.7-3.5,6
			v32.5C150,191.2,151.6,193.8,153.5,193.8L153.5,193.8z"/>
		<g>
			<g>
				
					<linearGradient id="SVGID_7_" gradientUnits="userSpaceOnUse" x1="133.4258" y1="149.2477" x2="164.9056" y2="149.2477" gradientTransform="matrix(1.0039 0 0 -1.0039 1.9177 304.7098)">
					<stop  offset="0" style="stop-color:#F8F6FB"/>
					<stop  offset="1" style="stop-color:#EFDCFB"/>
				</linearGradient>
				<path class="st6" d="M129.5,42.3h41.1v225.2h-41.1L129.5,42.3z"/>
				
					<linearGradient id="SVGID_8_" gradientUnits="userSpaceOnUse" x1="154.6745" y1="223.4568" x2="137.9655" y2="291.4256" gradientTransform="matrix(1.0039 0 0 -1.0039 1.9177 304.7098)">
					<stop  offset="0" style="stop-color:#EFDCFB;stop-opacity:0"/>
					<stop  offset="2.870000e-02" style="stop-color:#E9D6F7;stop-opacity:2.900000e-02"/>
					<stop  offset="0.2203" style="stop-color:#C5B5DE;stop-opacity:0.22"/>
					<stop  offset="0.4138" style="stop-color:#AA9BCB;stop-opacity:0.414"/>
					<stop  offset="0.6078" style="stop-color:#9688BD;stop-opacity:0.608"/>
					<stop  offset="0.8028" style="stop-color:#8A7DB5;stop-opacity:0.803"/>
					<stop  offset="1" style="stop-color:#8679B2"/>
				</linearGradient>
				<path class="st7" d="M170.5,42.3h-41.1v17.6l41.1,41.1V42.3z"/>
				
					<linearGradient id="SVGID_9_" gradientUnits="userSpaceOnUse" x1="140.021" y1="286.4072" x2="155.1248" y2="262.6181" gradientTransform="matrix(1.0039 0 0 -1.0039 1.9177 304.7098)">
					<stop  offset="0" style="stop-color:#F8F6FB"/>
					<stop  offset="1" style="stop-color:#EFDCFB"/>
				</linearGradient>
				<circle class="st8" cx="150" cy="29" r="24"/>
				
					<linearGradient id="SVGID_10_" gradientUnits="userSpaceOnUse" x1="144.1231" y1="262.2761" x2="151.675" y2="242.0747" gradientTransform="matrix(1.0039 0 0 -1.0039 1.9177 304.7098)">
					<stop  offset="0" style="stop-color:#F8F6FB"/>
					<stop  offset="1" style="stop-color:#EFDCFB"/>
				</linearGradient>
				<path class="st9" d="M167,60.7h-34c-4.5,0-8.1-3.6-8.1-8.1v-4.3c0-4.5,3.6-8.1,8.1-8.1h34c4.5,0,8.1,3.6,8.1,8.1v4.3
					C175.1,57.1,171.5,60.7,167,60.7z"/>
			</g>
			
				<linearGradient id="SVGID_11_" gradientUnits="userSpaceOnUse" x1="147.5039" y1="37.6932" x2="147.5039" y2="5.2165" gradientTransform="matrix(1.0039 0 0 -1.0039 1.9177 304.7098)">
				<stop  offset="0" style="stop-color:#8A7889"/>
				<stop  offset="0.3344" style="stop-color:#867385"/>
				<stop  offset="0.7039" style="stop-color:#7B667B"/>
				<stop  offset="1" style="stop-color:#6E566E"/>
			</linearGradient>
			<path class="st10" d="M218,295H82c-4.9,0-8.5-4.5-7.5-9.3c2.5-11.6,12.8-19.9,24.6-19.9h101.7c11.9,0,22.2,8.3,24.6,19.9
				C226.5,290.5,222.9,295,218,295z"/>
		</g>
		
			<linearGradient id="SVGID_12_" gradientUnits="userSpaceOnUse" x1="170.5928" y1="123.4612" x2="97.2676" y2="190.8641" gradientTransform="matrix(1.0039 0 0 -1.0039 1.9177 304.7098)">
			<stop  offset="0" style="stop-color:#EFDCFB;stop-opacity:0"/>
			<stop  offset="2.870000e-02" style="stop-color:#E9D6F7;stop-opacity:2.900000e-02"/>
			<stop  offset="0.2203" style="stop-color:#C5B5DE;stop-opacity:0.22"/>
			<stop  offset="0.4138" style="stop-color:#AA9BCB;stop-opacity:0.414"/>
			<stop  offset="0.6078" style="stop-color:#9688BD;stop-opacity:0.608"/>
			<stop  offset="0.8028" style="stop-color:#8A7DB5;stop-opacity:0.803"/>
			<stop  offset="1" style="stop-color:#8679B2"/>
		</linearGradient>
		<path class="st11" d="M170.5,145.8l-22-22c-1.2-1.6-3.2-2-5.3-2h-13.8v49.8l41.1,41.1L170.5,145.8L170.5,145.8z"/>
		<g>
			
				<linearGradient id="SVGID_13_" gradientUnits="userSpaceOnUse" x1="71.956" y1="198.9235" x2="103.1084" y2="123.0251" gradientTransform="matrix(1.0039 0 0 -1.0039 1.9177 304.7098)">
				<stop  offset="0" style="stop-color:#FFA936"/>
				<stop  offset="0.4112" style="stop-color:#FF8548"/>
				<stop  offset="0.7781" style="stop-color:#FF6C54"/>
				<stop  offset="1" style="stop-color:#FF6359"/>
			</linearGradient>
			<path class="st12" d="M52.5,171.6h90.8c3.7,0,6.8-3,6.8-6.8V128c0-3.7-3-6.8-6.8-6.8H52.5c-4.2,0-8.2,1.7-11.1,4.6l-13.4,13.5
				c-3.9,3.9-3.9,10.2,0,14.1L41.3,167C44.3,169.9,48.3,171.6,52.5,171.6L52.5,171.6z"/>
			
				<linearGradient id="SVGID_14_" gradientUnits="userSpaceOnUse" x1="86.8089" y1="152.2273" x2="55.0901" y2="246.8171" gradientTransform="matrix(1.0039 0 0 -1.0039 1.9177 304.7098)">
				<stop  offset="0" style="stop-color:#F82814;stop-opacity:0"/>
				<stop  offset="1" style="stop-color:#C0272D"/>
			</linearGradient>
			<path class="st13" d="M150,164.8c0,3.7-3,6.8-6.8,6.8H52.5c-4.2,0-8.2-1.7-11.1-4.6l-13.4-13.5c-1.9-2-2.9-4.5-2.9-7.1h125
				L150,164.8z"/>
		</g>
	</g>
</g>
</svg>
