<?xml version="1.0" encoding="utf-8"?>
<!-- Generator: Adobe Illustrator 23.0.0, SVG Export Plug-In . SVG Version: 6.00 Build 0)  -->
<svg version="1.1" id="Capa_1" xmlns="http://www.w3.org/2000/svg" xmlns:xlink="http://www.w3.org/1999/xlink" x="0px" y="0px"
	 viewBox="0 0 300 300" style="enable-background:new 0 0 300 300;" xml:space="preserve">
<style type="text/css">
	.st0{fill:#F4BF1A;}
	.st1{fill:#FFD949;}
	.st2{fill:#DCA815;}
</style>
<g>
	<path id="XMLID_122_" class="st0" d="M228.5,228.6c-52.3,52.3-129.9,61.1-180.1,22.8c3.1,4.1,6.7,8.3,10.4,11.9
		c49.7,49.7,135.6,44,192-12.9c56.4-56.4,62.1-142.9,12.9-192c-3.6-3.6-7.8-7.2-11.9-10.4C289.6,98.7,280.8,176.3,228.5,228.6"/>
	<path id="XMLID_121_" class="st1" d="M241.5,36.6c49.7,49.7,44,135.6-12.9,192s-142.9,62.1-192,12.9s-44-135.6,12.9-192
		S191.8-13.1,241.5,36.6"/>
	<path id="XMLID_89_" class="st0" d="M120.8,254.5c-26.9,0-51.8-9.8-69.9-27.4C9.6,185.6,15.2,112.6,63.9,64
		c25.9-25.9,59.5-40.4,93.2-40.4c26.9,0,51.8,9.8,69.9,27.4c41.4,41.4,35.7,114.4-12.9,163.1C188.1,239.5,154.5,254.5,120.8,254.5"
		/>
	<path id="XMLID_119_" class="st2" d="M232.1,225l22.3,22.3c2.6-2.6,4.7-5.2,6.7-7.8l-22.3-22.3C236.8,219.8,234.7,222.4,232.1,225"
		/>
	<path id="XMLID_118_" class="st2" d="M213,242.1l22.3,22.3c2.6-2.1,5.2-4.1,7.8-6.7l-22.3-22.3C218.2,237.9,215.6,240,213,242.1"/>
	<path id="XMLID_117_" class="st2" d="M248.2,204.3l22.3,22.3c2.1-3.1,4.1-5.7,5.7-8.8L254.4,196
		C252.3,198.6,250.2,201.7,248.2,204.3"/>
	<path id="XMLID_116_" class="st2" d="M261.6,181l22.3,22.3c1.6-3.6,3.1-6.7,4.1-10.4l-22.3-22.3C264.7,174.2,263.2,177.9,261.6,181
		"/>
	<path id="XMLID_115_" class="st2" d="M190.7,256.5l22.3,22.3c3.1-1.6,6.2-3.6,9.3-5.2L200,251.4C196.9,253.4,193.8,255,190.7,256.5
		"/>
	<path id="XMLID_114_" class="st2" d="M165.4,267.9l22.3,22.3c3.6-1,7.2-2.6,10.9-4.1l-22.3-22.3C172.6,265.3,169,266.4,165.4,267.9
		"/>
	<path id="XMLID_113_" class="st2" d="M128.6,274.7l22.3,22.3c4.7,0,8.8-0.5,13.5-1.6l-22.3-22.3
		C137.4,274.1,132.7,274.7,128.6,274.7"/>
	<path id="XMLID_112_" class="st2" d="M87.7,270.5l22.3,22.3c5.7,1.6,11.9,2.6,18.1,3.6l-22.3-22.3
		C99.6,273.6,93.4,272.1,87.7,270.5"/>
	<path id="XMLID_111_" class="st2" d="M272.5,147.8l22.3,22.3c1-4.1,1.6-8.3,2.1-12.9l-22.3-22.3C274.1,139.6,273,143.7,272.5,147.8
		"/>
	<path id="XMLID_88_" class="st2" d="M296.8,135.9c-0.5-5.7-1-10.9-2.1-16.6l-22.3-22.3c1,5.7,2.1,10.9,2.1,16.6L296.8,135.9z"/>
	<path class="st1" d="M189.7,64.5H139c-9.8,0-18.6,4.1-25.4,10.9L24,168c-9.3,9.3-9.3,24.8,0,34.2l52.8,54.9
		c9.3,9.3,23.8,9.3,33.1,0l89.6-92.7c6.7-7.2,10.4-16.6,10.4-26.4V85.2C209.9,73.8,201.1,64.5,189.7,64.5z M165.9,130.8
		c-10.9,0-20.2-9.3-20.2-20.7s8.8-20.7,20.2-20.7s20.2,9.3,20.2,20.7S176.7,130.8,165.9,130.8z"/>
</g>
</svg>
