<svg id="Capa_1" enable-background="new 0 0 510 510" height="512" viewBox="0 0 510 510" width="512" xmlns="http://www.w3.org/2000/svg" xmlns:xlink="http://www.w3.org/1999/xlink"><linearGradient id="lg1"><stop offset="0" stop-color="#7e8595"/><stop offset="1" stop-color="#555a66"/></linearGradient><linearGradient id="SVGID_1_" gradientUnits="userSpaceOnUse" x1="209.541" x2="281.996" xlink:href="#lg1" y1="422.554" y2="429.455"/><linearGradient id="SVGID_2_" gradientUnits="userSpaceOnUse" x1="272.602" x2="155.602" y1="432.164" y2="404.164"><stop offset="0" stop-color="#bec3d2" stop-opacity="0"/><stop offset=".221" stop-color="#c5c9d7" stop-opacity=".221"/><stop offset=".5343" stop-color="#d7dae3" stop-opacity=".534"/><stop offset=".9014" stop-color="#f6f6f8" stop-opacity=".901"/><stop offset="1" stop-color="#fff"/></linearGradient><linearGradient id="lg2"><stop offset="0" stop-color="#555a66" stop-opacity="0"/><stop offset="1" stop-color="#555a66"/></linearGradient><linearGradient id="SVGID_3_" gradientUnits="userSpaceOnUse" x1="326.094" x2="222.76" xlink:href="#lg2" y1="451.813" y2="349.146"/><linearGradient id="SVGID_4_" gradientUnits="userSpaceOnUse" x1="223.88" x2="389.931" xlink:href="#lg1" y1="130.842" y2="550.938"/><linearGradient id="SVGID_5_" gradientUnits="userSpaceOnUse" x1="465" x2="-135.9" xlink:href="#lg1" y1="419.573" y2="-181.327"/><linearGradient id="SVGID_6_" gradientUnits="userSpaceOnUse" x1="516.895" x2="355" xlink:href="#lg2" y1="443.105" y2="281.21"/><linearGradient id="SVGID_7_" gradientUnits="userSpaceOnUse" x1="227.546" x2="374.035" y1="140.117" y2="510.721"><stop offset="0" stop-color="#18cffc"/><stop offset="1" stop-color="#4a98f7"/></linearGradient><linearGradient id="lg3"><stop offset="0" stop-color="#0469bc" stop-opacity="0"/><stop offset="1" stop-color="#0469bc"/></linearGradient><linearGradient id="SVGID_8_" gradientUnits="userSpaceOnUse" x1="53" x2="12.988" xlink:href="#lg3" y1="209.574" y2="209.574"/><linearGradient id="SVGID_9_" gradientUnits="userSpaceOnUse" x1="255" x2="255" xlink:href="#lg3" y1="84.574" y2="42.277"/><linearGradient id="SVGID_10_" gradientUnits="userSpaceOnUse" x1="493.73" x2="329.324" xlink:href="#lg3" y1="390.478" y2="255.478"/><linearGradient id="SVGID_11_" gradientUnits="userSpaceOnUse" x1="322.405" x2="50.902" y1="354.57" y2="-229.465"><stop offset="0" stop-color="#18cffc" stop-opacity="0"/><stop offset="1" stop-color="#65e1dc"/></linearGradient><linearGradient id="lg4"><stop offset="0" stop-color="#f9f7fc"/><stop offset="1" stop-color="#f0ddfc"/></linearGradient><linearGradient id="SVGID_12_" gradientUnits="userSpaceOnUse" x1="51.2" x2="126.523" xlink:href="#lg4" y1="298.073" y2="298.073"/><linearGradient id="SVGID_13_" gradientUnits="userSpaceOnUse" x1="141.939" x2="163.425" xlink:href="#lg4" y1="298.073" y2="298.073"/><linearGradient id="SVGID_14_" gradientUnits="userSpaceOnUse" x1="51.2" x2="102.122" xlink:href="#lg4" y1="325.673" y2="325.673"/><linearGradient id="SVGID_15_" gradientUnits="userSpaceOnUse" x1="117.083" x2="163.425" xlink:href="#lg4" y1="325.673" y2="325.673"/><linearGradient id="SVGID_16_" gradientUnits="userSpaceOnUse" x1="255" x2="255" xlink:href="#lg4" y1="163.333" y2="245.863"/><linearGradient id="SVGID_17_" gradientUnits="userSpaceOnUse" x1="255" x2="255" xlink:href="#lg4" y1="224" y2="158.392"/><linearGradient id="SVGID_18_" gradientUnits="userSpaceOnUse" x1="255" x2="255" xlink:href="#lg1" y1="467.728" y2="476.395"/><linearGradient id="SVGID_19_" gradientUnits="userSpaceOnUse" x1="482.879" x2="376.213" y1="258.431" y2="169.764"><stop offset="0" stop-color="#f0ddfc" stop-opacity="0"/><stop offset=".2889" stop-color="#c8b7e0" stop-opacity=".289"/><stop offset=".5915" stop-color="#a595c8" stop-opacity=".592"/><stop offset=".8395" stop-color="#8f81b8" stop-opacity=".84"/><stop offset="1" stop-color="#8779b3"/></linearGradient><linearGradient id="SVGID_20_" gradientUnits="userSpaceOnUse" x1="364.882" x2="263.536" y1="298.623" y2="182.305"><stop offset="0" stop-color="#e9edf5" stop-opacity="0"/><stop offset="1" stop-color="#fff"/></linearGradient><linearGradient id="SVGID_21_" gradientTransform="matrix(.707 -.707 .707 .707 1762.443 -518.843)" gradientUnits="userSpaceOnUse" x1="-1568.357" x2="-1543.854" xlink:href="#lg1" y1="-351.183" y2="-351.183"/><linearGradient id="SVGID_22_" gradientTransform="matrix(.707 -.707 .707 .707 1762.443 -518.843)" gradientUnits="userSpaceOnUse" x1="-1548.483" x2="-1564.401" xlink:href="#lg2" y1="-340.708" y2="-373.34"/><linearGradient id="lg5"><stop offset="0" stop-color="#ffda45"/><stop offset="1" stop-color="#ffa425"/></linearGradient><linearGradient id="SVGID_23_" gradientUnits="userSpaceOnUse" x1="269.612" x2="434.754" xlink:href="#lg5" y1="195.821" y2="360.963"/><linearGradient id="SVGID_24_" gradientUnits="userSpaceOnUse" x1="278.622" x2="375.858" xlink:href="#lg5" y1="204.831" y2="302.067"/><linearGradient id="SVGID_25_" gradientUnits="userSpaceOnUse" x1="342.68" x2="238.944" y1="303.403" y2="4.397"><stop offset="0" stop-color="#ffda45" stop-opacity="0"/><stop offset="1" stop-color="#b53759"/></linearGradient><linearGradient id="SVGID_26_" gradientTransform="matrix(.707 -.707 -.707 -.707 -1936.3 -4217.586)" gradientUnits="userSpaceOnUse" x1="-1569.329" x2="-1540.324" y1="-4997.282" y2="-4968.277"><stop offset="0" stop-color="#bec3d2"/><stop offset=".97" stop-color="#808797"/><stop offset="1" stop-color="#7e8595"/></linearGradient><linearGradient id="SVGID_27_" gradientTransform="matrix(.707 -.707 -.707 -.707 -1936.3 -4217.586)" gradientUnits="userSpaceOnUse" x1="-1572.799" x2="-1556.207" y1="-5006.074" y2="-4982.03"><stop offset="0" stop-color="#bec3d2"/><stop offset="1" stop-color="#7e8595" stop-opacity="0"/></linearGradient><linearGradient id="lg6"><stop offset="0" stop-color="#7e8595" stop-opacity="0"/><stop offset="1" stop-color="#7e8595"/></linearGradient><linearGradient id="SVGID_28_" gradientTransform="matrix(.707 -.707 -.707 -.707 -1936.3 -4217.586)" gradientUnits="userSpaceOnUse" x1="-1557.564" x2="-1552.08" xlink:href="#lg6" y1="-4997.393" y2="-5033.108"/><linearGradient id="SVGID_29_" gradientTransform="matrix(.707 -.707 .707 .707 1762.443 -518.843)" gradientUnits="userSpaceOnUse" x1="-1560.95" x2="-1560.95" xlink:href="#lg6" y1="-235.598" y2="-247.467"/><linearGradient id="SVGID_30_" gradientTransform="matrix(-.707 .707 .707 .707 -396.093 1639.692)" gradientUnits="userSpaceOnUse" x1="-1502.9" x2="-1465.88" y1="-290.809" y2="-290.809"><stop offset="0" stop-color="#ff7044"/><stop offset="1" stop-color="#f92814"/></linearGradient><linearGradient id="SVGID_31_" gradientTransform="matrix(-.707 .707 .707 .707 -396.093 1639.692)" gradientUnits="userSpaceOnUse" x1="-1475.599" x2="-1525.089" y1="-295.464" y2="-269.946"><stop offset="0" stop-color="#ff7044" stop-opacity="0"/><stop offset="1" stop-color="#ffa425"/></linearGradient><linearGradient id="SVGID_32_" gradientUnits="userSpaceOnUse" x1="308.422" x2="264.663" y1="226.474" y2="117.597"><stop offset="0" stop-color="#ffda45" stop-opacity="0"/><stop offset="1" stop-color="#fcee21"/></linearGradient><path d="m276.416 397.541-4.721-26.864h-33.39l-4.721 26.864c-4.987 28.379-20.195 52.955-41.812 67.57-5.651 3.821-3.308 13.827 3.238 13.827h119.979c6.546 0 8.89-10.006 3.238-13.827-21.616-14.615-36.824-39.191-41.811-67.57z" fill="url(#SVGID_1_)"/><path d="m318.228 465.111c-21.617-14.616-36.824-39.191-41.812-67.57l-4.721-26.864h-15.645l-4.721 26.864c-4.987 28.379-20.195 52.955-41.812 67.57-5.651 3.821-3.308 13.827 3.238 13.827h102.234c6.547 0 8.89-10.006 3.239-13.827z" fill="url(#SVGID_2_)"/><path d="m318.228 465.111c-21.617-14.616-36.824-39.192-41.812-67.57l-4.721-26.864h-33.39l-3.059 17.408 85.817 85.817c.893-3.073.133-6.784-2.835-8.791z" fill="url(#SVGID_3_)"/><path d="m494.098 388.085h-478.196c-8.782 0-15.902-7.12-15.902-15.902v-325.219c0-8.783 7.12-15.902 15.902-15.902h478.195c8.783 0 15.902 7.12 15.902 15.902v325.219c.001 8.782-7.119 15.902-15.901 15.902z" fill="url(#SVGID_4_)"/><path d="m486.067 380.027h-462.134c-8.435 0-15.273-6.838-15.273-15.273v-310.361c0-8.435 6.838-15.273 15.273-15.273h462.133c8.435 0 15.273 6.838 15.273 15.273v310.36c.001 8.436-6.837 15.274-15.272 15.274z" fill="url(#SVGID_5_)"/><path d="m510 372.183v-114.794l-104.232-104.232c-23.056-24.349-55.684-39.54-91.864-39.54-69.862 0-126.497 56.635-126.497 126.497 0 36.179 15.192 68.808 39.54 91.864l56.108 56.108h211.042c8.783-.001 15.903-7.121 15.903-15.903z" fill="url(#SVGID_6_)"/><path d="m472.59 364.515h-435.181c-7.061 0-12.785-5.724-12.785-12.785v-284.313c0-7.061 5.724-12.786 12.785-12.786h435.181c7.061 0 12.786 5.724 12.786 12.786v284.313c0 7.061-5.724 12.785-12.786 12.785z" fill="url(#SVGID_7_)"/><path d="m66 54.632h-28.591c-7.061 0-12.785 5.724-12.785 12.786v284.312c0 7.061 5.724 12.785 12.785 12.785h28.591z" fill="url(#SVGID_8_)"/><path d="m472.59 54.632h-435.181c-7.061 0-12.785 5.724-12.785 12.786v23.156h460.752v-23.157c0-7.061-5.724-12.785-12.786-12.785z" fill="url(#SVGID_9_)"/><path d="m485.38 231.84v119.89c0 7.55-5.96 12.79-13.71 12.79h-212.18l-32.54-32.54s-.01 0-.01-.01c-.68-.64-1.35-1.29-2.01-1.95-.67-.66-1.33-1.32-1.98-2-.55-.57-1.1-1.15-1.65-1.74-.12-.12-.23-.24-.34-.37-.57-.62-1.14-1.24-1.7-1.87-.05-.05-.09-.1-.13-.15-.62-.7-1.23-1.41-1.84-2.13-.01 0-.01-.01-.02-.02-.54-.65-1.09-1.3-1.62-1.96-.11-.13-.21-.25-.31-.38-.46-.58-.92-1.16-1.38-1.74-.17-.21-.34-.43-.5-.65-.47-.62-.94-1.24-1.4-1.87-.56-.76-1.11-1.52-1.65-2.29-.54-.76-1.08-1.54-1.6-2.32-.47-.69-.93-1.39-1.38-2.1-.09-.14-.18-.28-.27-.42-.95-1.49-1.87-3.01-2.77-4.55-.08-.13-.15-.25-.22-.38-.41-.73-.83-1.46-1.23-2.21-.46-.82-.9-1.66-1.34-2.5s-.86-1.68-1.28-2.53c-.37-.75-.73-1.51-1.09-2.27-.06-.12-.11-.23-.16-.35-.38-.81-.75-1.63-1.11-2.46-.03-.06-.06-.12-.08-.19-.36-.83-.72-1.68-1.07-2.53-.02-.04-.04-.08-.05-.11-.34-.84-.68-1.69-1-2.54-.05-.11-.09-.22-.13-.34-.3-.78-.59-1.57-.87-2.35-.32-.9-.63-1.81-.93-2.72-.31-.91-.6-1.82-.88-2.74s-.55-1.84-.81-2.77c-.26-.91-.51-1.83-.75-2.75 0-.01-.01-.03-.01-.05-.23-.92-.46-1.85-.68-2.79-.02-.07-.04-.13-.05-.2-.2-.89-.4-1.78-.58-2.67-.2-.96-.39-1.91-.56-2.87-.18-.96-.34-1.92-.5-2.88v-.02c-.15-.97-.3-1.94-.43-2.91-.26-1.95-.48-3.91-.66-5.89l37.54-24.71c-.66 4.36-1 8.83-1 13.38 0 49.4 40.04 89.45 89.44 89.45s89.45-40.05 89.45-89.45c0-41.57-28.35-76.5-66.78-86.54l37.55-24.72c.74.39 1.47.8 2.2 1.22 2.19 1.25 4.33 2.56 6.44 3.92 1.4.91 2.79 1.85 4.15 2.82.08.04.15.1.22.15.6.43 1.19.86 1.78 1.29.02.01.04.02.06.04.62.46 1.23.92 1.83 1.38 2.7 2.06 5.3 4.23 7.82 6.51.49.44.97.88 1.45 1.33.21.19.41.38.61.57.53.5 1.06 1.01 1.58 1.52h.01c.6.59 1.18 1.17 1.76 1.76.49.49.96.98 1.44 1.48.1.1.2.21.3.32z" fill="url(#SVGID_10_)"/><path d="m458.022 349.616h-406.044c-6.436 0-11.654-5.218-11.654-11.654v-256.778c0-6.436 5.218-11.654 11.654-11.654h406.044c6.436 0 11.654 5.218 11.654 11.654v256.778c0 6.437-5.218 11.654-11.654 11.654z" fill="url(#SVGID_11_)"/><path d="m122.628 306.823h-67.534c-2.151 0-3.894-1.744-3.894-3.894v-9.711c0-2.151 1.744-3.894 3.894-3.894h67.534c2.151 0 3.894 1.744 3.894 3.894v9.711c.001 2.15-1.743 3.894-3.894 3.894z" fill="url(#SVGID_12_)"/><path d="m159.531 306.823h-13.697c-2.151 0-3.894-1.744-3.894-3.894v-9.711c0-2.151 1.744-3.894 3.894-3.894h13.697c2.151 0 3.894 1.744 3.894 3.894v9.711c0 2.15-1.743 3.894-3.894 3.894z" fill="url(#SVGID_13_)"/><path d="m98.228 334.422h-43.134c-2.151 0-3.894-1.744-3.894-3.894v-9.711c0-2.151 1.744-3.894 3.894-3.894h43.134c2.151 0 3.894 1.744 3.894 3.894v9.711c0 2.151-1.743 3.894-3.894 3.894z" fill="url(#SVGID_14_)"/><path d="m159.531 334.422h-38.553c-2.151 0-3.894-1.744-3.894-3.894v-9.711c0-2.151 1.744-3.894 3.894-3.894h38.553c2.151 0 3.894 1.744 3.894 3.894v9.711c0 2.151-1.743 3.894-3.894 3.894z" fill="url(#SVGID_15_)"/><path d="m447.221 232.569h-384.442c-6.395 0-11.579-5.184-11.579-11.579v-52.072c0-6.395 5.184-11.579 11.579-11.579h384.442c6.395 0 11.579 5.184 11.579 11.579v52.072c0 6.395-5.184 11.579-11.579 11.579z" fill="url(#SVGID_16_)"/><path d="m75.231 169.174h359.537c5.098 0 9.231 4.133 9.231 9.231v33.096c0 5.098-4.133 9.231-9.231 9.231h-359.537c-5.098 0-9.231-4.133-9.231-9.231v-33.096c0-5.098 4.133-9.231 9.231-9.231z" fill="url(#SVGID_17_)"/><path d="m325.688 478.938h-141.376c-4.384 0-7.938-3.554-7.938-7.938 0-4.384 3.554-7.938 7.938-7.938h141.376c4.384 0 7.938 3.554 7.938 7.938 0 4.384-3.554 7.938-7.938 7.938z" fill="url(#SVGID_18_)"/><path d="m409.998 157.338h-62.185c30.373 12.454 52.372 41.111 55.22 75.231h44.188c6.395 0 11.579-5.184 11.579-11.579v-15.419z" fill="url(#SVGID_19_)"/><circle cx="313.904" cy="240.113" fill="url(#SVGID_20_)" r="89.447"/><path d="m434.555 339.801-20.963 20.963-27.399-27.399 20.963-20.963z" fill="url(#SVGID_21_)"/><path d="m407.156 312.402-20.963 20.963 6.068 6.069h41.926z" fill="url(#SVGID_22_)"/><path d="m313.904 113.617c-69.862 0-126.497 56.635-126.497 126.497s56.635 126.497 126.497 126.497 126.497-56.635 126.497-126.497c0-69.863-56.635-126.497-126.497-126.497zm0 215.943c-49.4 0-89.447-40.047-89.447-89.447s40.047-89.447 89.447-89.447 89.447 40.047 89.447 89.447-40.047 89.447-89.447 89.447z" fill="url(#SVGID_23_)"/><path d="m313.904 340.878c55.651 0 100.764-45.114 100.764-100.764 0-55.651-45.114-100.764-100.764-100.764-55.651 0-100.764 45.114-100.764 100.764s45.113 100.764 100.764 100.764zm0-190.211c49.4 0 89.447 40.047 89.447 89.447s-40.047 89.447-89.447 89.447-89.447-40.047-89.447-89.447 40.047-89.447 89.447-89.447z" fill="url(#SVGID_24_)"/><path d="m403.628 150.951-26.198 26.198c16.022 16.164 25.921 38.407 25.921 62.964 0 49.4-40.047 89.447-89.447 89.447-24.557 0-46.8-9.899-62.964-25.921l-26.198 26.198c22.869 22.727 54.374 36.772 89.163 36.772 69.862 0 126.497-56.635 126.497-126.497-.001-34.787-14.047-66.292-36.774-89.161z" fill="url(#SVGID_25_)"/><circle cx="487.605" cy="413.814" fill="url(#SVGID_26_)" r="22.395"/><circle cx="487.605" cy="413.814" fill="url(#SVGID_27_)" r="18.691"/><path d="m508.854 420.896c-1.064-3.2-2.867-6.207-5.414-8.754-8.746-8.746-22.926-8.746-31.671 0-2.547 2.547-4.35 5.554-5.414 8.754-2.589-7.789-.786-16.718 5.414-22.917 8.746-8.746 22.925-8.746 31.671 0 6.2 6.199 8.004 15.128 5.414 22.917z" fill="url(#SVGID_28_)"/><path d="m471.769 429.65c-8.746-8.746-8.746-22.926 0-31.671 8.746-8.746 22.926-8.746 31.671 0 3.808 3.808 5.956 8.646 6.448 13.617l-24.503 24.503c-4.97-.493-9.808-2.641-13.616-6.449z" fill="url(#SVGID_29_)"/><path d="m472.094 429.974 31.671-31.671-66.512-66.512c-1.777-1.777-4.659-1.777-6.437 0l-25.235 25.235c-1.777 1.777-1.777 4.659 0 6.437z" fill="url(#SVGID_30_)"/><path d="m405.581 357.026 17.655-17.655c1.777-1.777 4.659-1.777 6.436 0l66.512 66.512-24.091 24.091-66.512-66.512c-1.777-1.777-1.777-4.659 0-6.436z" fill="url(#SVGID_31_)"/><path d="m313.904 120.945c-65.815 0-119.168 53.353-119.168 119.168s53.353 119.168 119.168 119.168 119.168-53.353 119.168-119.168c0-65.814-53.353-119.168-119.168-119.168zm0 208.615c-49.4 0-89.447-40.047-89.447-89.447s40.047-89.447 89.447-89.447 89.447 40.047 89.447 89.447-40.047 89.447-89.447 89.447z" fill="url(#SVGID_32_)"/></svg>