<?xml version="1.0" encoding="utf-8"?>
<!-- Generator: Adobe Illustrator 23.0.0, SVG Export Plug-In . SVG Version: 6.00 Build 0)  -->
<svg version="1.1" id="Layer_1" xmlns="http://www.w3.org/2000/svg" xmlns:xlink="http://www.w3.org/1999/xlink" x="0px" y="0px"
	 viewBox="0 0 300 300" style="enable-background:new 0 0 300 300;" xml:space="preserve">
<style type="text/css">
	.st0{fill:url(#SVGID_1_);}
	.st1{fill:url(#SVGID_2_);}
	.st2{fill:url(#SVGID_3_);}
	.st3{fill:url(#SVGID_4_);}
	.st4{fill:url(#SVGID_5_);}
	.st5{fill:url(#SVGID_6_);}
	.st6{fill:url(#SVGID_7_);}
	.st7{fill:url(#SVGID_8_);}
	.st8{fill:url(#SVGID_9_);}
	.st9{fill:#FFB92D;}
	.st10{fill:url(#SVGID_10_);}
	.st11{fill:url(#SVGID_11_);}
	.st12{fill:url(#SVGID_12_);}
	.st13{fill:url(#SVGID_13_);}
	.st14{fill:url(#SVGID_14_);}
	.st15{fill:url(#SVGID_15_);}
	.st16{fill:url(#SVGID_16_);}
	.st17{fill:url(#SVGID_17_);}
	.st18{fill:url(#SVGID_18_);}
	.st19{fill:url(#SVGID_19_);}
	.st20{fill:url(#SVGID_20_);}
	.st21{fill:url(#SVGID_21_);}
	.st22{fill:url(#SVGID_22_);}
	.st23{fill:url(#SVGID_23_);}
	.st24{fill:url(#SVGID_24_);}
	.st25{fill:url(#SVGID_25_);}
	.st26{fill:url(#SVGID_26_);}
	.st27{fill:url(#SVGID_27_);}
	.st28{fill:url(#SVGID_28_);}
	.st29{fill:url(#SVGID_29_);}
	.st30{fill:url(#SVGID_30_);}
	.st31{fill:url(#SVGID_31_);}
	.st32{fill:url(#SVGID_32_);}
	.st33{fill:url(#SVGID_33_);}
	.st34{fill:url(#SVGID_34_);}
	.st35{fill:url(#SVGID_35_);}
	.st36{fill:url(#SVGID_36_);}
	.st37{fill:url(#SVGID_37_);}
	.st38{fill:url(#SVGID_38_);}
	.st39{fill:url(#SVGID_39_);}
	.st40{fill:url(#SVGID_40_);}
	.st41{fill:url(#SVGID_41_);}
	.st42{fill:url(#SVGID_42_);}
	.st43{fill:url(#SVGID_43_);}
	.st44{fill:url(#SVGID_44_);}
	.st45{fill:url(#SVGID_45_);}
	.st46{fill:url(#SVGID_46_);}
	.st47{fill:url(#SVGID_47_);}
	.st48{fill:url(#SVGID_48_);}
	.st49{fill:url(#SVGID_49_);}
	.st50{fill:url(#SVGID_50_);}
	.st51{fill:url(#SVGID_51_);}
	.st52{fill:url(#SVGID_52_);}
	.st53{fill:url(#SVGID_53_);}
	.st54{fill:url(#SVGID_54_);}
	.st55{fill:url(#SVGID_55_);}
	.st56{fill:url(#SVGID_56_);}
	.st57{fill:url(#SVGID_57_);}
	.st58{fill:url(#SVGID_58_);}
	.st59{fill:url(#SVGID_59_);}
	.st60{fill:url(#SVGID_60_);}
	.st61{fill:url(#SVGID_61_);}
	.st62{fill:url(#SVGID_62_);}
	.st63{fill:url(#SVGID_63_);}
	.st64{fill:url(#SVGID_64_);}
	.st65{fill:url(#SVGID_65_);}
	.st66{fill:url(#SVGID_66_);}
	.st67{fill:url(#SVGID_67_);}
	.st68{fill:url(#SVGID_68_);}
	.st69{fill:url(#SVGID_69_);}
	.st70{fill:url(#SVGID_70_);}
	.st71{fill:url(#SVGID_71_);}
	.st72{fill:url(#SVGID_72_);}
	.st73{fill:#FFFFFF;}
	.st74{fill:url(#SVGID_73_);}
	.st75{fill:url(#SVGID_74_);}
	.st76{fill:url(#SVGID_75_);}
	.st77{fill:url(#SVGID_76_);}
	.st78{fill:url(#SVGID_77_);}
	.st79{fill:url(#SVGID_78_);}
	.st80{fill:url(#SVGID_79_);}
	.st81{fill:url(#SVGID_80_);}
	.st82{fill:url(#SVGID_81_);}
	.st83{fill:url(#SVGID_82_);}
	.st84{fill:url(#SVGID_83_);}
	.st85{fill:url(#SVGID_84_);}
	.st86{fill:url(#SVGID_85_);}
	.st87{fill:url(#SVGID_86_);}
	.st88{fill:url(#SVGID_87_);}
	.st89{fill:url(#SVGID_88_);}
	.st90{fill:url(#SVGID_89_);}
	.st91{fill:url(#SVGID_90_);}
	.st92{fill:url(#SVGID_91_);}
	.st93{fill:url(#SVGID_92_);}
	.st94{fill:url(#SVGID_93_);}
	.st95{fill:url(#SVGID_94_);}
	.st96{fill:url(#SVGID_95_);}
	.st97{fill:url(#SVGID_96_);}
	.st98{fill:url(#SVGID_97_);}
	.st99{fill:url(#SVGID_98_);}
	.st100{fill:url(#SVGID_99_);}
	.st101{fill:url(#SVGID_100_);}
	.st102{fill:url(#SVGID_101_);}
	.st103{fill:url(#SVGID_102_);}
	.st104{fill:url(#SVGID_103_);}
	.st105{fill:url(#SVGID_104_);}
	.st106{fill:url(#SVGID_105_);}
	.st107{fill:url(#SVGID_106_);}
	.st108{fill:url(#SVGID_107_);}
	.st109{fill:url(#SVGID_108_);}
	.st110{fill:url(#SVGID_109_);}
	.st111{fill:url(#SVGID_110_);}
	.st112{fill:url(#SVGID_111_);}
	.st113{fill:url(#SVGID_112_);}
	.st114{fill:url(#SVGID_113_);}
	.st115{fill:url(#SVGID_114_);}
</style>
<g>
	<g>
		
			<linearGradient id="SVGID_1_" gradientUnits="userSpaceOnUse" x1="125.833" y1="655.3293" x2="147.108" y2="703.9466" gradientTransform="matrix(1.0039 0 0 1.0039 1.7093 -564.2538)">
			<stop  offset="0" style="stop-color:#FFE7A5"/>
			<stop  offset="1" style="stop-color:#FFBF5C"/>
		</linearGradient>
		<path class="st0" d="M168.9,88c-1.5,17.2-5.7,33.7-12.5,49.6H99.7c13.8-20.9,20.3-42.9,19.8-67.2c-0.2-7.7,5.4-14.4,13.1-15.7
			c0.2,0,0.3-0.1,0.5-0.1C153,51.3,170.7,67.8,168.9,88z"/>
		
			<linearGradient id="SVGID_2_" gradientUnits="userSpaceOnUse" x1="138.06" y1="755.4399" x2="269.1648" y2="816.6211" gradientTransform="matrix(1.0039 0 0 1.0039 1.7093 -564.2538)">
			<stop  offset="0" style="stop-color:#FFE7A5"/>
			<stop  offset="1" style="stop-color:#FFBF5C"/>
		</linearGradient>
		<path class="st1" d="M249.4,133.5l-181.5,0v140.7h64.8h85h7.1c18.4,0,34.1-13.3,37.1-31.4l10.8-81.8
			C275.1,146.7,264,133.5,249.4,133.5z"/>
		
			<linearGradient id="SVGID_3_" gradientUnits="userSpaceOnUse" x1="218.4931" y1="765.1838" x2="82.9543" y2="765.1838" gradientTransform="matrix(1.0039 0 0 1.0039 1.7093 -564.2538)">
			<stop  offset="0" style="stop-color:#FFE7A5;stop-opacity:0"/>
			<stop  offset="1" style="stop-color:#FFBF5C"/>
		</linearGradient>
		<path class="st2" d="M217.7,274.3h7.1c12.9,0,24.6-6.6,31.4-16.8L101.8,133.5l-33.9,0v140.7h64.8L217.7,274.3z"/>
		
			<linearGradient id="SVGID_4_" gradientUnits="userSpaceOnUse" x1="73.6438" y1="733.2635" x2="125.4754" y2="887.3446" gradientTransform="matrix(1.0039 0 0 1.0039 1.7093 -564.2538)">
			<stop  offset="0" style="stop-color:#F2F2F2"/>
			<stop  offset="1" style="stop-color:#C3C3C3"/>
		</linearGradient>
		<path class="st3" d="M94.8,282.9H78c-4.1,0-7.3-3.3-7.3-7.3V132.3c0-4.1,3.3-7.3,7.3-7.3h16.8c4.1,0,7.3,3.3,7.3,7.3v143.3
			C102.2,279.6,98.9,282.9,94.8,282.9z"/>
		
			<linearGradient id="SVGID_5_" gradientUnits="userSpaceOnUse" x1="82.7024" y1="767.4863" x2="27.8974" y2="740.9659" gradientTransform="matrix(1.0039 0 0 1.0039 1.7093 -564.2538)">
			<stop  offset="0" style="stop-color:#C3C3C3;stop-opacity:0"/>
			<stop  offset="1" style="stop-color:#777777"/>
		</linearGradient>
		<path class="st4" d="M83.6,124.9H78c-4.1,0-7.3,3.3-7.3,7.3v143.3c0,4.1,3.3,7.3,7.3,7.3h16.8c4.1,0,7.3-3.3,7.3-7.3v-132
			L83.6,124.9z"/>
		
			<linearGradient id="SVGID_6_" gradientUnits="userSpaceOnUse" x1="35.1352" y1="745.5292" x2="97.8968" y2="915.4827" gradientTransform="matrix(1.0039 0 0 1.0039 1.7093 -564.2538)">
			<stop  offset="0" style="stop-color:#62E1FB"/>
			<stop  offset="1" style="stop-color:#00A2F3"/>
		</linearGradient>
		<path class="st5" d="M75.9,292.9H12.7c-4.2,0-7.7-3.4-7.7-7.7V122.6c0-4.2,3.4-7.7,7.7-7.7h63.2c4.2,0,7.7,3.4,7.7,7.7v162.6
			C83.5,289.4,80.1,292.9,75.9,292.9z"/>
		
			<linearGradient id="SVGID_7_" gradientUnits="userSpaceOnUse" x1="68.0852" y1="737.2918" x2="14.1435" y2="683.3506" gradientTransform="matrix(1.0039 0 0 1.0039 1.7093 -564.2538)">
			<stop  offset="0" style="stop-color:#00A2F3;stop-opacity:0"/>
			<stop  offset="1" style="stop-color:#0075CD"/>
		</linearGradient>
		<path class="st6" d="M83.5,162.1l-25-25c-3.5-3.8-8.6-6.3-14.2-6.3c-10.7,0-19.3,8.7-19.3,19.3c0,5.6,2.4,10.7,6.3,14.2l52.3,52.3
			L83.5,162.1L83.5,162.1z"/>
		
			<linearGradient id="SVGID_8_" gradientUnits="userSpaceOnUse" x1="42.3945" y1="699.5197" x2="42.3945" y2="727.3541" gradientTransform="matrix(1.0039 0 0 1.0039 1.7093 -564.2538)">
			<stop  offset="0" style="stop-color:#FFF465"/>
			<stop  offset="1" style="stop-color:#FFE600"/>
		</linearGradient>
		<circle class="st7" cx="44.3" cy="150.1" r="19.3"/>
		
			<linearGradient id="SVGID_9_" gradientUnits="userSpaceOnUse" x1="42.3945" y1="719.9413" x2="42.3945" y2="700.7342" gradientTransform="matrix(1.0039 0 0 1.0039 1.7093 -564.2538)">
			<stop  offset="0" style="stop-color:#FFF465"/>
			<stop  offset="1" style="stop-color:#FFE600"/>
		</linearGradient>
		<circle class="st8" cx="44.3" cy="150.1" r="13.3"/>
		<g>
			<circle class="st9" cx="39.2" cy="145.1" r="2.8"/>
			<circle class="st9" cx="49.3" cy="145.1" r="2.8"/>
			<circle class="st9" cx="39.2" cy="155.2" r="2.8"/>
			<circle class="st9" cx="49.3" cy="155.2" r="2.8"/>
		</g>
	</g>
	<g>
		
			<linearGradient id="SVGID_10_" gradientUnits="userSpaceOnUse" x1="233.8742" y1="-82.7484" x2="233.8742" y2="-119.3209" gradientTransform="matrix(1.0039 0 0 1.0039 0.1883 217.266)">
			<stop  offset="0" style="stop-color:#62E1FB"/>
			<stop  offset="1" style="stop-color:#00A2F3"/>
		</linearGradient>
		<path class="st10" d="M258.3,170L235,154.1L211.6,170c-2.1,1.5-5-0.1-5-2.7l0-72.1l56.8,0l0,72.1
			C263.3,169.9,260.4,171.4,258.3,170z"/>
		
			<linearGradient id="SVGID_11_" gradientUnits="userSpaceOnUse" x1="233.8752" y1="-88.7103" x2="233.8752" y2="-118.9858" gradientTransform="matrix(1.0039 0 0 1.0039 0.1883 217.266)">
			<stop  offset="0" style="stop-color:#62E1FB"/>
			<stop  offset="1" style="stop-color:#00A2F3"/>
		</linearGradient>
		<polygon class="st11" points="235,154.1 245,160.9 245,95.2 224.9,95.2 224.9,160.9 		"/>
		
			<linearGradient id="SVGID_12_" gradientUnits="userSpaceOnUse" x1="253.0148" y1="-77.9769" x2="253.0148" y2="-111.7856" gradientTransform="matrix(1.0039 0 0 1.0039 0.1883 217.266)">
			<stop  offset="0" style="stop-color:#62E1FB"/>
			<stop  offset="1" style="stop-color:#00A2F3"/>
		</linearGradient>
		<path class="st12" d="M263.4,95.2l0,72.1c0,2.6-2.9,4.1-5,2.7l-13.3-9l0-65.8L263.4,95.2z"/>
		
			<linearGradient id="SVGID_13_" gradientUnits="userSpaceOnUse" x1="244.0048" y1="-72.3953" x2="228.5542" y2="-126.6175" gradientTransform="matrix(1.0039 0 0 1.0039 0.1883 217.266)">
			<stop  offset="0" style="stop-color:#00A2F3;stop-opacity:0"/>
			<stop  offset="1" style="stop-color:#0075CD"/>
		</linearGradient>
		<path class="st13" d="M206.6,122.6l38,38l13.7,9.3c2.1,1.5,5-0.1,5-2.7l0-72.1l-56.8,0L206.6,122.6z"/>
		
			<linearGradient id="SVGID_14_" gradientUnits="userSpaceOnUse" x1="219.6272" y1="-158.04" x2="265.4203" y2="-112.2469" gradientTransform="matrix(1.0039 0 0 1.0039 0.1883 217.266)">
			<stop  offset="0" style="stop-color:#FFF465"/>
			<stop  offset="1" style="stop-color:#FFE600"/>
		</linearGradient>
		<path class="st14" d="M246.7,14.4l8.4,17.1c1.9,3.8,5.6,6.5,9.8,7.1l18.9,2.7c10.7,1.6,15,14.7,7.2,22.2l-13.7,13.3
			c-3.1,3-4.5,7.3-3.8,11.5l3.2,18.8c1.8,10.7-9.4,18.8-18.9,13.7l-16.9-8.9c-3.8-2-8.3-2-12.1,0L212,121c-9.6,5-20.7-3.1-18.9-13.7
			l3.2-18.8c0.7-4.2-0.7-8.5-3.8-11.5l-13.7-13.3c-7.7-7.5-3.5-20.7,7.2-22.2l18.9-2.7c4.2-0.6,7.9-3.3,9.8-7.1l8.4-17.1
			C228.1,4.7,241.9,4.7,246.7,14.4z"/>
		
			<linearGradient id="SVGID_15_" gradientUnits="userSpaceOnUse" x1="255.9735" y1="-124.4966" x2="182.2986" y2="-198.1734" gradientTransform="matrix(1.0039 0 0 1.0039 0.1883 217.266)">
			<stop  offset="0" style="stop-color:#FFF465"/>
			<stop  offset="1" style="stop-color:#FFE600"/>
		</linearGradient>
		<path class="st15" d="M242.6,32l5.5,11.1c1.2,2.5,3.6,4.2,6.4,4.6l12.3,1.8c7,1,9.7,9.6,4.7,14.5l-8.9,8.7c-2,2-2.9,4.8-2.4,7.5
			l2.1,12.2c1.2,6.9-6.1,12.2-12.3,8.9l-11-5.8c-2.5-1.3-5.4-1.3-7.9,0l-11,5.8c-6.2,3.3-13.5-2-12.3-8.9l2.1-12.2
			c0.5-2.8-0.4-5.6-2.4-7.5l-8.9-8.7c-5-4.9-2.3-13.5,4.7-14.5l12.3-1.8c2.8-0.4,5.2-2.1,6.4-4.6l5.5-11.1
			C230.5,25.7,239.5,25.7,242.6,32z"/>
		
			<linearGradient id="SVGID_16_" gradientUnits="userSpaceOnUse" x1="225.2634" y1="-156.4439" x2="253.1165" y2="-128.594" gradientTransform="matrix(1.0039 0 0 1.0039 0.1883 217.266)">
			<stop  offset="0" style="stop-color:#FFF465"/>
			<stop  offset="1" style="stop-color:#FFE600"/>
		</linearGradient>
		<path class="st16" d="M240.8,39.8l4.2,8.5c0.9,1.9,2.8,3.2,4.9,3.5l9.4,1.4c5.3,0.8,7.4,7.3,3.6,11.1l-6.8,6.6
			c-1.5,1.5-2.2,3.6-1.9,5.7l1.6,9.3c0.9,5.3-4.6,9.3-9.4,6.8l-8.4-4.4c-1.9-1-4.1-1-6,0l-8.4,4.4c-4.8,2.5-10.3-1.5-9.4-6.8
			l1.6-9.3c0.4-2.1-0.3-4.2-1.9-5.7l-6.8-6.6c-3.8-3.7-1.7-10.3,3.6-11.1l9.4-1.4c2.1-0.3,3.9-1.6,4.9-3.5l4.2-8.5
			C231.5,35,238.4,35,240.8,39.8z"/>
	</g>
</g>
</svg>
