<?xml version="1.0" encoding="utf-8"?>
<!-- Generator: Adobe Illustrator 23.0.0, SVG Export Plug-In . SVG Version: 6.00 Build 0)  -->
<svg version="1.1" xmlns="http://www.w3.org/2000/svg" xmlns:xlink="http://www.w3.org/1999/xlink" x="0px" y="0px"
	 viewBox="0 0 300 300" style="enable-background:new 0 0 300 300;" xml:space="preserve">
<style type="text/css">
	.st0{fill:url(#SVGID_1_);}
	.st1{fill:url(#SVGID_2_);}
	.st2{fill:url(#SVGID_3_);}
	.st3{fill:url(#SVGID_4_);}
	.st4{fill:url(#SVGID_5_);}
	.st5{fill:url(#SVGID_6_);}
	.st6{fill:url(#SVGID_7_);}
	.st7{fill:url(#SVGID_8_);}
	.st8{fill:url(#SVGID_9_);}
	.st9{fill:url(#SVGID_10_);}
	.st10{fill:url(#SVGID_11_);}
	.st11{fill:url(#SVGID_12_);}
	.st12{fill:url(#SVGID_13_);}
	.st13{fill:url(#SVGID_14_);}
	.st14{fill:url(#SVGID_15_);}
	.st15{fill:url(#SVGID_16_);}
	.st16{fill:url(#SVGID_17_);}
	.st17{fill:url(#SVGID_18_);}
	.st18{fill:url(#SVGID_19_);}
	.st19{fill:url(#SVGID_20_);}
	.st20{fill:url(#SVGID_21_);}
	.st21{fill:url(#SVGID_22_);}
	.st22{fill:url(#SVGID_23_);}
	.st23{fill:url(#SVGID_24_);}
	.st24{fill:url(#SVGID_25_);}
	.st25{fill:url(#SVGID_26_);}
	.st26{fill:url(#SVGID_27_);}
	.st27{fill:url(#SVGID_28_);}
	.st28{fill:url(#SVGID_29_);}
	.st29{fill:url(#SVGID_30_);}
	.st30{fill:url(#SVGID_31_);}
	.st31{fill:url(#SVGID_32_);}
	.st32{fill:url(#SVGID_33_);}
	.st33{fill:url(#SVGID_34_);}
	.st34{fill:url(#SVGID_35_);}
	.st35{fill:url(#SVGID_36_);}
	.st36{fill:url(#SVGID_37_);}
	.st37{fill:url(#SVGID_38_);}
	.st38{fill:url(#SVGID_39_);}
	.st39{fill:url(#SVGID_40_);}
	.st40{fill:url(#SVGID_41_);}
	.st41{fill:url(#SVGID_42_);}
	.st42{fill:url(#SVGID_43_);}
	.st43{fill:url(#SVGID_44_);}
	.st44{fill:url(#SVGID_45_);}
	.st45{fill:url(#SVGID_46_);}
	.st46{fill:url(#SVGID_47_);}
	.st47{fill:url(#SVGID_48_);}
	.st48{fill:#0469BB;}
	.st49{fill:url(#SVGID_49_);}
	.st50{fill:url(#SVGID_50_);}
	.st51{fill:url(#SVGID_51_);}
	.st52{fill:url(#SVGID_52_);}
	.st53{fill:url(#SVGID_53_);}
	.st54{fill:url(#SVGID_54_);}
	.st55{fill:url(#SVGID_55_);}
	.st56{fill:url(#SVGID_56_);}
	.st57{fill:url(#SVGID_57_);}
	.st58{fill:url(#SVGID_58_);}
	.st59{fill:url(#SVGID_59_);}
	.st60{fill:url(#SVGID_60_);}
	.st61{fill:url(#SVGID_61_);}
	.st62{fill:url(#SVGID_62_);}
	.st63{fill:url(#SVGID_63_);}
	.st64{fill:url(#SVGID_64_);}
	.st65{fill:url(#SVGID_65_);}
	.st66{fill:url(#SVGID_66_);}
	.st67{fill:url(#SVGID_67_);}
	.st68{fill:url(#SVGID_68_);}
	.st69{fill:url(#SVGID_69_);}
	.st70{fill:url(#SVGID_70_);}
	.st71{fill:url(#SVGID_71_);}
	.st72{fill:url(#SVGID_72_);}
	.st73{fill:url(#SVGID_73_);}
	.st74{fill:url(#SVGID_74_);}
	.st75{fill:url(#SVGID_75_);}
	.st76{fill:url(#SVGID_76_);}
	.st77{fill:url(#SVGID_77_);}
	.st78{fill:url(#SVGID_78_);}
	.st79{fill:url(#SVGID_79_);}
	.st80{fill:url(#SVGID_80_);}
	.st81{fill:url(#SVGID_81_);}
	.st82{fill:url(#SVGID_82_);}
	.st83{fill:url(#SVGID_83_);}
	.st84{fill:url(#SVGID_84_);}
	.st85{fill:url(#SVGID_85_);}
	.st86{fill:url(#SVGID_86_);}
	.st87{fill:url(#SVGID_87_);}
	.st88{fill:url(#SVGID_88_);}
	.st89{fill:url(#SVGID_89_);}
	.st90{fill:url(#SVGID_90_);}
	.st91{fill:url(#SVGID_91_);}
	.st92{fill:url(#SVGID_92_);}
	.st93{fill:url(#SVGID_93_);}
	.st94{fill:url(#SVGID_94_);}
	.st95{fill:url(#SVGID_95_);}
	.st96{fill:url(#SVGID_96_);}
	.st97{fill:url(#SVGID_97_);}
	.st98{fill:url(#SVGID_98_);}
	.st99{fill:url(#SVGID_99_);}
	.st100{fill:url(#SVGID_100_);}
	.st101{fill:url(#SVGID_101_);}
	.st102{fill:url(#SVGID_102_);}
	.st103{fill:url(#SVGID_103_);}
	.st104{fill:url(#SVGID_104_);}
	.st105{fill:url(#SVGID_105_);}
	.st106{fill:url(#SVGID_106_);}
	.st107{fill:url(#SVGID_107_);}
	.st108{fill:url(#SVGID_108_);}
	.st109{fill:url(#SVGID_109_);}
	.st110{fill:url(#SVGID_110_);}
	.st111{fill:url(#SVGID_111_);}
	.st112{fill:url(#SVGID_112_);}
	.st113{fill:url(#SVGID_113_);}
	.st114{fill:url(#SVGID_114_);}
	.st115{fill:url(#SVGID_115_);}
	.st116{fill:url(#SVGID_116_);}
	.st117{fill:url(#SVGID_117_);}
	.st118{fill:url(#SVGID_118_);}
	.st119{fill:url(#SVGID_119_);}
	.st120{fill:url(#SVGID_120_);}
	.st121{fill:url(#SVGID_121_);}
	.st122{fill:url(#SVGID_122_);}
	.st123{fill:url(#SVGID_123_);}
	.st124{fill:url(#SVGID_124_);}
	.st125{fill:url(#SVGID_125_);}
	.st126{fill:url(#SVGID_126_);}
	.st127{fill:url(#SVGID_127_);}
	.st128{fill:url(#SVGID_128_);}
	.st129{fill:url(#SVGID_129_);}
	.st130{fill:url(#SVGID_130_);}
	.st131{fill:url(#SVGID_131_);}
	.st132{fill:url(#SVGID_132_);}
	.st133{fill:url(#SVGID_133_);}
	.st134{fill:url(#SVGID_134_);}
	.st135{fill:url(#SVGID_135_);}
	.st136{fill:url(#SVGID_136_);}
	.st137{fill:url(#SVGID_137_);}
	.st138{fill:url(#SVGID_138_);}
	.st139{fill:url(#SVGID_139_);}
	.st140{fill:url(#SVGID_140_);}
	.st141{fill:url(#SVGID_141_);}
	.st142{fill:url(#SVGID_142_);}
	.st143{fill:url(#SVGID_143_);}
	.st144{fill:url(#SVGID_144_);}
	.st145{fill:url(#SVGID_145_);}
	.st146{fill:url(#SVGID_146_);}
	.st147{fill:url(#SVGID_147_);}
	.st148{fill:url(#SVGID_148_);}
	.st149{fill:url(#SVGID_149_);}
	.st150{fill:url(#SVGID_150_);}
	.st151{fill:url(#SVGID_151_);}
	.st152{fill:url(#SVGID_152_);}
	.st153{fill:url(#SVGID_153_);}
	.st154{fill:url(#SVGID_154_);}
	.st155{fill:url(#SVGID_155_);}
	.st156{fill:url(#SVGID_156_);}
	.st157{fill:url(#SVGID_157_);}
	.st158{fill:url(#SVGID_158_);}
	.st159{fill:url(#SVGID_159_);}
	.st160{fill:url(#SVGID_160_);}
	.st161{fill:url(#SVGID_161_);}
	.st162{fill:url(#SVGID_162_);}
	.st163{fill:url(#SVGID_163_);}
	.st164{fill:url(#SVGID_164_);}
	.st165{fill:url(#SVGID_165_);}
	.st166{fill:url(#SVGID_166_);}
	.st167{fill:url(#SVGID_167_);}
	.st168{fill:url(#SVGID_168_);}
	.st169{fill:url(#SVGID_169_);}
	.st170{fill:url(#SVGID_170_);}
	.st171{fill:url(#SVGID_171_);}
	.st172{fill:url(#SVGID_172_);}
	.st173{fill:url(#SVGID_173_);}
	.st174{fill:url(#SVGID_174_);}
	.st175{fill:url(#SVGID_175_);}
	.st176{fill:url(#SVGID_176_);}
	.st177{fill:url(#SVGID_177_);}
	.st178{fill:url(#SVGID_178_);}
	.st179{fill:url(#SVGID_179_);}
	.st180{fill:url(#SVGID_180_);}
	.st181{fill:url(#SVGID_181_);}
	.st182{fill:url(#SVGID_182_);}
	.st183{fill:url(#SVGID_183_);}
	.st184{fill:url(#SVGID_184_);}
	.st185{fill:url(#SVGID_185_);}
	.st186{fill:url(#SVGID_186_);}
	.st187{fill:url(#SVGID_187_);}
	.st188{fill:url(#SVGID_188_);}
</style>
<g id="Layer_2">
</g>
<g id="Layer_1">
	<g>
		<g>
			
				<linearGradient id="SVGID_1_" gradientUnits="userSpaceOnUse" x1="5.816" y1="235.2239" x2="184.0677" y2="44.0197" gradientTransform="matrix(1.0039 0 0 -1.0039 4.4275 304.7098)">
				<stop  offset="0" style="stop-color:#18CEFB"/>
				<stop  offset="0.2969" style="stop-color:#2BB9F9"/>
				<stop  offset="0.7345" style="stop-color:#42A0F7"/>
				<stop  offset="1" style="stop-color:#4A97F6"/>
			</linearGradient>
			<path class="st0" d="M97.5,5C74,4.8,53.4,17.3,42.2,36.1c-6.4,10.7,1.3,24.3,13.8,24.3h0c5.8,0,11.1-3.2,14-8.2
				c5.6-9.7,16.3-16,28.4-15.5c16.1,0.7,29.2,13.7,29.9,29.8c0,0.4,0,0.7,0,1.1c0.1,11.6-6.7,22.2-17.1,27.3L58,123.1
				c-11.4,6.1-18.5,17.9-18.5,30.8v126.5c0,8.1,6.6,14.6,14.6,14.6h92.1c8.1,0,14.7-6.6,14.7-14.7V69.5C160.9,34.3,132.7,5.3,97.5,5
				L97.5,5z"/>
			<g>
				<path class="st48" d="M141,249.7H59.4c-2,0-3.6-1.6-3.6-3.6v-6.2c0-2,1.6-3.6,3.6-3.6H141c2,0,3.6,1.6,3.6,3.6v6.2
					C144.6,248.1,143,249.7,141,249.7z"/>
				<path class="st48" d="M102.8,272.3H59.4c-2,0-3.6-1.6-3.6-3.6v-6.2c0-2,1.6-3.6,3.6-3.6h43.4c2,0,3.6,1.6,3.6,3.6v6.2
					C106.4,270.7,104.8,272.3,102.8,272.3z"/>
			</g>
			
				<linearGradient id="SVGID_2_" gradientUnits="userSpaceOnUse" x1="136.6513" y1="73.8582" x2="55.7817" y2="118.752" gradientTransform="matrix(1.0039 0 0 -1.0039 4.4275 304.7098)">
				<stop  offset="0" style="stop-color:#4A97F6;stop-opacity:0"/>
				<stop  offset="1" style="stop-color:#0469BB"/>
			</linearGradient>
			<path class="st1" d="M160.9,218.7l-67.5-67.5c-3.6-4.4-9.3-5.6-15.9-5.6c-11.1,0-19.2,4.6-19.2,18.4v21.3
				c0,7.1,1.7,11.9,5.3,14.9l91.7,91.7c3.4-2.7,5.6-6.8,5.6-11.5L160.9,218.7L160.9,218.7z"/>
			
				<linearGradient id="SVGID_3_" gradientUnits="userSpaceOnUse" x1="161.0769" y1="95.2846" x2="93.3694" y2="128.0132" gradientTransform="matrix(1.0039 0 0 -1.0039 4.4275 304.7098)">
				<stop  offset="0" style="stop-color:#4A97F6;stop-opacity:0"/>
				<stop  offset="1" style="stop-color:#0469BB"/>
			</linearGradient>
			<path class="st2" d="M160.9,173.4l-22.8-22.8c-3-3.9-8.5-5.1-15.1-5.1c-10.4,0-17.2,3.7-17.2,13.8c0,4.9,1.2,8.4,4,10.5
				c0.6,0.8,2.7,2.8,2.8,2.8c-5.3,2.2-8.8,6.4-8.8,14.1v1c0,5.7,1.4,9.8,4.7,12.4l52.5,52.5V173.4z"/>
			<g>
				
					<linearGradient id="SVGID_4_" gradientUnits="userSpaceOnUse" x1="67.8346" y1="146.7159" x2="79.8611" y2="105.0845" gradientTransform="matrix(1.0039 0 0 -1.0039 4.4275 304.7098)">
					<stop  offset="0" style="stop-color:#CDEC7A"/>
					<stop  offset="0.2157" style="stop-color:#B0E995"/>
					<stop  offset="0.5613" style="stop-color:#87E4BB"/>
					<stop  offset="0.8347" style="stop-color:#6EE1D2"/>
					<stop  offset="1" style="stop-color:#65E0DB"/>
				</linearGradient>
				<path class="st3" d="M57.7,185.3V164c0-13.9,8.6-19,19.7-19s19.8,5.2,19.8,19v21.3c0,13.9-8.7,19-19.8,19S57.7,199.2,57.7,185.3
					z M84.7,164c0-5.6-2.7-8.1-7.2-8.1c-4.5,0-7.2,2.5-7.2,8.1v21.3c0,5.6,2.7,8.1,7.2,8.1c4.5,0,7.2-2.5,7.2-8.1V164z"/>
				
					<linearGradient id="SVGID_5_" gradientUnits="userSpaceOnUse" x1="108.9524" y1="158.5942" x2="120.9789" y2="116.9634" gradientTransform="matrix(1.0039 0 0 -1.0039 4.4275 304.7098)">
					<stop  offset="0" style="stop-color:#CDEC7A"/>
					<stop  offset="0.2157" style="stop-color:#B0E995"/>
					<stop  offset="0.5613" style="stop-color:#87E4BB"/>
					<stop  offset="0.8347" style="stop-color:#6EE1D2"/>
					<stop  offset="1" style="stop-color:#65E0DB"/>
				</linearGradient>
				<path class="st4" d="M140.8,159.3c0,6.7-3.2,10.7-8,12.3c6,2,9.9,6.8,9.9,15.1v1c0,12-8.6,16.6-19.7,16.6s-19.8-4.6-19.8-16.6
					v-1c0-8.3,4-13.1,10-15.1c-4.8-1.6-8-5.6-8-12.3c0-10.1,7.4-14.3,17.8-14.3C133.4,145,140.8,149.2,140.8,159.3z M130.1,184.4
					c0-5.2-2.7-7.7-7.2-7.7c-4.5,0-7.2,2.4-7.2,7.7v1.8c0,5.6,2.8,8.1,7.2,8.1c4.6,0,7.2-2.7,7.2-8.1V184.4z M117.3,160.9
					c0,4.2,2.1,5.8,5.7,5.8s5.7-1.6,5.7-5.8c0-4.1-2.1-5.9-5.7-5.9S117.3,156.8,117.3,160.9z"/>
			</g>
			
				<linearGradient id="SVGID_6_" gradientUnits="userSpaceOnUse" x1="95.4224" y1="24.7859" x2="95.4224" y2="5.8611" gradientTransform="matrix(1.0039 0 0 -1.0039 4.4275 304.7098)">
				<stop  offset="0" style="stop-color:#4A97F6;stop-opacity:0"/>
				<stop  offset="1" style="stop-color:#0469BB"/>
			</linearGradient>
			<path class="st5" d="M39.5,272.3v8c0,8.1,6.6,14.6,14.6,14.6h92.1c8.1,0,14.7-6.6,14.7-14.7v-8L39.5,272.3L39.5,272.3z"/>
		</g>
		
			<linearGradient id="SVGID_7_" gradientUnits="userSpaceOnUse" x1="164.6545" y1="42.4703" x2="139.6352" y2="67.4896" gradientTransform="matrix(1.0039 0 0 -1.0039 4.4275 304.7098)">
			<stop  offset="0" style="stop-color:#4A97F6;stop-opacity:0"/>
			<stop  offset="1" style="stop-color:#0469BB"/>
		</linearGradient>
		<path class="st6" d="M97.8,232c-7,7-10.4,15.5-10.2,25.5l0.1,4c0,1.6,0.7,3,1.7,4l28.3,29.5h28.5c8.1,0,14.7-6.6,14.7-14.7v-112
			L97.8,232z"/>
		<g>
			
				<linearGradient id="SVGID_8_" gradientUnits="userSpaceOnUse" x1="224.7717" y1="532.0995" x2="326.2234" y2="484.9214" gradientTransform="matrix(0.7098 0.7098 0.7098 -0.7098 -406.4003 418.7965)">
				<stop  offset="0" style="stop-color:#FFA936"/>
				<stop  offset="0.4112" style="stop-color:#FF8548"/>
				<stop  offset="0.7781" style="stop-color:#FF6C54"/>
				<stop  offset="1" style="stop-color:#FF6359"/>
			</linearGradient>
			<path class="st7" d="M117.4,262l0.1-0.1c2-2,5.2-2,7.1,0l1.5,1.5c2.8,2.8,7.3,2.8,10.1,0l0.1-0.1c2.8-2.8,2.8-7.3,0-10.1
				l-2.1-2.1c-1.6-1.6-1.6-4.3,0-5.9c1.6-1.6,4.3-1.6,5.9,0l2.1,2.1c2.8,2.8,7.3,2.8,10.1,0l0.1-0.1c2.8-2.8,2.8-7.3,0-10.1
				s-2.8-7.3,0-10.1l40.1-40.1l-25.7-25.7l-69.6,69.6c-7,7-10.9,16.7-10.7,26.6l0.1,4c0,1.6,0.7,3,1.7,4l22.2,22.2
				c3.5,3.5,9.2,3.5,12.7,0c3.5-3.5,3.5-9.2,0-12.7l-5.8-5.8C115.4,267.2,115.4,264,117.4,262L117.4,262z"/>
			
				<linearGradient id="SVGID_9_" gradientUnits="userSpaceOnUse" x1="260.9935" y1="525.8292" x2="204.0839" y2="525.8292" gradientTransform="matrix(0.7098 0.7098 0.7098 -0.7098 -406.4003 418.7965)">
				<stop  offset="0" style="stop-color:#FFA936"/>
				<stop  offset="0.4112" style="stop-color:#FF8548"/>
				<stop  offset="0.7781" style="stop-color:#FF6C54"/>
				<stop  offset="1" style="stop-color:#FF6359"/>
			</linearGradient>
			<path class="st8" d="M110.3,256.9l-12.2,2.2c-2.4,0.4-3.9-1.1-3.5-3.5l2.2-12.2c0.3-1.8,1.4-3.7,3-5.3l72-72l15.7,15.7l-72,72
				C114,255.5,112.1,256.6,110.3,256.9L110.3,256.9z"/>
			
				<linearGradient id="SVGID_10_" gradientUnits="userSpaceOnUse" x1="236.113" y1="525.8298" x2="249.6648" y2="525.8298" gradientTransform="matrix(0.7098 0.7098 0.7098 -0.7098 -406.4003 418.7965)">
				<stop  offset="0" style="stop-color:#FFA936"/>
				<stop  offset="0.4112" style="stop-color:#FF8548"/>
				<stop  offset="0.7781" style="stop-color:#FF6C54"/>
				<stop  offset="1" style="stop-color:#FF6359"/>
			</linearGradient>
			<path class="st9" d="M106.4,253l-9.3,5.1c-1.8,1-2.5,0.4-1.5-1.5l5.1-9.3c0.8-1.4,2.1-3.1,3.6-4.6l72-72l6.6,6.6l-72,72
				C109.4,250.9,107.8,252.3,106.4,253L106.4,253z"/>
			
				<linearGradient id="SVGID_11_" gradientUnits="userSpaceOnUse" x1="249.8738" y1="551.2963" x2="237.5426" y2="590.4672" gradientTransform="matrix(0.7098 0.7098 0.7098 -0.7098 -406.4003 418.7965)">
				<stop  offset="0" style="stop-color:#F82814;stop-opacity:0"/>
				<stop  offset="1" style="stop-color:#C0272D"/>
			</linearGradient>
			<path class="st10" d="M160.9,218.6l31.7-31.7l-25.7-25.7l-6,6V218.6z"/>
			
				<linearGradient id="SVGID_12_" gradientUnits="userSpaceOnUse" x1="215.4584" y1="658.5503" x2="288.9047" y2="561.7103" gradientTransform="matrix(0.7098 0.7098 0.7098 -0.7098 -406.4003 418.7965)">
				<stop  offset="0" style="stop-color:#FFA936"/>
				<stop  offset="0.4112" style="stop-color:#FF8548"/>
				<stop  offset="0.7781" style="stop-color:#FF6C54"/>
				<stop  offset="1" style="stop-color:#FF6359"/>
			</linearGradient>
			<path class="st11" d="M250.3,176l9.6-35.9c1.5-5.6-0.1-11.6-4.2-15.7l-26.3-26.3c-4.1-4.1-10.1-5.7-15.7-4.2l-35.9,9.6
				c-5.6,1.5-10,5.9-11.5,11.5l-9.6,35.9c-1.5,5.6,0.1,11.6,4.2,15.7l26.3,26.3c4.1,4.1,10.1,5.7,15.7,4.2l35.9-9.6
				C244.4,186,248.8,181.6,250.3,176L250.3,176z M239.3,114.5c1.8,1.8,2.5,4.4,1.9,6.8c-0.3,1.2-0.9,2.3-1.9,3.3
				c-0.6,0.6-1.3,1.1-2.1,1.5c-2.6,1.2-5.8,0.7-7.9-1.5c-2.1-2.1-2.6-5.3-1.5-7.9c0.3-0.8,0.8-1.5,1.5-2.1c0.9-0.9,2.1-1.5,3.3-1.9
				C234.9,112,237.5,112.7,239.3,114.5L239.3,114.5z"/>
			
				<linearGradient id="SVGID_13_" gradientUnits="userSpaceOnUse" x1="278.0012" y1="588.0294" x2="200.1855" y2="665.845" gradientTransform="matrix(0.7098 0.7098 0.7098 -0.7098 -406.4003 418.7965)">
				<stop  offset="0" style="stop-color:#FFA936"/>
				<stop  offset="0.4112" style="stop-color:#FF8548"/>
				<stop  offset="0.7781" style="stop-color:#FF6C54"/>
				<stop  offset="1" style="stop-color:#FF6359"/>
			</linearGradient>
			<path class="st12" d="M233.7,180.5l-29.9,8c-4.7,1.3-9.7-0.1-13.1-3.5l-21.9-21.9c-3.4-3.4-4.8-8.4-3.5-13.1l8-29.9
				c1.3-4.7,4.9-8.3,9.6-9.6l29.9-8c4.7-1.3,9.7,0.1,13.1,3.5l6.6,6.6c-1.2,0.3-2.3,0.9-3.3,1.9c-0.6,0.6-1.1,1.3-1.5,2.1
				c-1.2,2.6-0.7,5.8,1.5,7.9c2.1,2.1,5.3,2.6,7.9,1.5c0.8-0.3,1.5-0.8,2.1-1.5c0.9-0.9,1.5-2.1,1.9-3.3l6.6,6.6
				c3.4,3.4,4.8,8.4,3.5,13.1l-8,29.9C242,175.6,238.4,179.3,233.7,180.5L233.7,180.5z"/>
			
				<linearGradient id="SVGID_14_" gradientUnits="userSpaceOnUse" x1="222.7856" y1="648.8889" x2="274.7137" y2="580.4201" gradientTransform="matrix(0.7098 0.7098 0.7098 -0.7098 -406.4003 418.7965)">
				<stop  offset="0" style="stop-color:#FFA936"/>
				<stop  offset="0.4112" style="stop-color:#FF8548"/>
				<stop  offset="0.7781" style="stop-color:#FF6C54"/>
				<stop  offset="1" style="stop-color:#FF6359"/>
			</linearGradient>
			<path class="st13" d="M229.9,175.2l-25.4,6.8c-4,1.1-8.2-0.1-11.1-3l-18.6-18.6c-2.9-2.9-4-7.1-3-11.1l6.8-25.4
				c1.1-4,4.2-7.1,8.1-8.1l25.4-6.8c4-1.1,8.2,0.1,11.1,3l4.6,4.6c-1.2,2.6-0.7,5.8,1.5,7.9c2.1,2.1,5.3,2.6,7.9,1.5l4.6,4.6
				c2.9,2.9,4,7.1,3,11.1l-6.8,25.4C236.9,171.1,233.8,174.2,229.9,175.2L229.9,175.2z"/>
		</g>
	</g>
</g>
</svg>
