<?xml version="1.0" encoding="utf-8"?>
<!-- Generator: Adobe Illustrator 23.0.0, SVG Export Plug-In . SVG Version: 6.00 Build 0)  -->
<svg version="1.1" xmlns="http://www.w3.org/2000/svg" xmlns:xlink="http://www.w3.org/1999/xlink" x="0px" y="0px"
	 viewBox="0 0 300 300" style="enable-background:new 0 0 300 300;" xml:space="preserve">
<style type="text/css">
	.st0{fill:url(#SVGID_1_);}
	.st1{fill:url(#SVGID_2_);}
	.st2{fill:url(#SVGID_3_);}
	.st3{fill:url(#SVGID_4_);}
	.st4{fill:url(#SVGID_5_);}
	.st5{fill:url(#SVGID_6_);}
	.st6{fill:url(#SVGID_7_);}
	.st7{fill:url(#SVGID_8_);}
	.st8{fill:url(#SVGID_9_);}
	.st9{fill:url(#SVGID_10_);}
	.st10{fill:url(#SVGID_11_);}
	.st11{fill:url(#SVGID_12_);}
	.st12{fill:url(#SVGID_13_);}
	.st13{fill:url(#SVGID_14_);}
	.st14{fill:url(#SVGID_15_);}
	.st15{fill:url(#SVGID_16_);}
	.st16{fill:url(#SVGID_17_);}
	.st17{fill:url(#SVGID_18_);}
	.st18{fill:url(#SVGID_19_);}
	.st19{fill:url(#SVGID_20_);}
	.st20{fill:url(#SVGID_21_);}
	.st21{fill:url(#SVGID_22_);}
	.st22{fill:url(#SVGID_23_);}
	.st23{fill:url(#SVGID_24_);}
	.st24{fill:url(#SVGID_25_);}
	.st25{fill:url(#SVGID_26_);}
	.st26{fill:url(#SVGID_27_);}
	.st27{fill:url(#SVGID_28_);}
	.st28{fill:url(#SVGID_29_);}
	.st29{fill:url(#SVGID_30_);}
	.st30{fill:url(#SVGID_31_);}
	.st31{fill:url(#SVGID_32_);}
	.st32{fill:url(#SVGID_33_);}
	.st33{fill:url(#SVGID_34_);}
	.st34{fill:url(#SVGID_35_);}
	.st35{fill:url(#SVGID_36_);}
	.st36{fill:url(#SVGID_37_);}
	.st37{fill:url(#SVGID_38_);}
	.st38{fill:url(#SVGID_39_);}
	.st39{fill:url(#SVGID_40_);}
	.st40{fill:url(#SVGID_41_);}
	.st41{fill:url(#SVGID_42_);}
	.st42{fill:url(#SVGID_43_);}
	.st43{fill:url(#SVGID_44_);}
	.st44{fill:url(#SVGID_45_);}
	.st45{fill:url(#SVGID_46_);}
	.st46{fill:url(#SVGID_47_);}
	.st47{fill:url(#SVGID_48_);}
	.st48{fill:#0469BB;}
	.st49{fill:url(#SVGID_49_);}
	.st50{fill:url(#SVGID_50_);}
	.st51{fill:url(#SVGID_51_);}
	.st52{fill:url(#SVGID_52_);}
	.st53{fill:url(#SVGID_53_);}
	.st54{fill:url(#SVGID_54_);}
	.st55{fill:url(#SVGID_55_);}
	.st56{fill:url(#SVGID_56_);}
	.st57{fill:url(#SVGID_57_);}
	.st58{fill:url(#SVGID_58_);}
	.st59{fill:url(#SVGID_59_);}
	.st60{fill:url(#SVGID_60_);}
	.st61{fill:url(#SVGID_61_);}
	.st62{fill:url(#SVGID_62_);}
	.st63{fill:url(#SVGID_63_);}
	.st64{fill:url(#SVGID_64_);}
	.st65{fill:url(#SVGID_65_);}
	.st66{fill:url(#SVGID_66_);}
	.st67{fill:url(#SVGID_67_);}
	.st68{fill:url(#SVGID_68_);}
	.st69{fill:url(#SVGID_69_);}
	.st70{fill:url(#SVGID_70_);}
	.st71{fill:url(#SVGID_71_);}
	.st72{fill:url(#SVGID_72_);}
	.st73{fill:url(#SVGID_73_);}
	.st74{fill:url(#SVGID_74_);}
	.st75{fill:url(#SVGID_75_);}
	.st76{fill:url(#SVGID_76_);}
	.st77{fill:url(#SVGID_77_);}
	.st78{fill:url(#SVGID_78_);}
	.st79{fill:url(#SVGID_79_);}
	.st80{fill:url(#SVGID_80_);}
	.st81{fill:url(#SVGID_81_);}
	.st82{fill:url(#SVGID_82_);}
	.st83{fill:url(#SVGID_83_);}
	.st84{fill:url(#SVGID_84_);}
	.st85{fill:url(#SVGID_85_);}
	.st86{fill:url(#SVGID_86_);}
	.st87{fill:url(#SVGID_87_);}
	.st88{fill:url(#SVGID_88_);}
	.st89{fill:url(#SVGID_89_);}
	.st90{fill:url(#SVGID_90_);}
	.st91{fill:url(#SVGID_91_);}
	.st92{fill:url(#SVGID_92_);}
	.st93{fill:url(#SVGID_93_);}
	.st94{fill:url(#SVGID_94_);}
	.st95{fill:url(#SVGID_95_);}
	.st96{fill:url(#SVGID_96_);}
	.st97{fill:url(#SVGID_97_);}
	.st98{fill:url(#SVGID_98_);}
	.st99{fill:url(#SVGID_99_);}
	.st100{fill:url(#SVGID_100_);}
	.st101{fill:url(#SVGID_101_);}
	.st102{fill:url(#SVGID_102_);}
	.st103{fill:url(#SVGID_103_);}
	.st104{fill:url(#SVGID_104_);}
	.st105{fill:url(#SVGID_105_);}
	.st106{fill:url(#SVGID_106_);}
	.st107{fill:url(#SVGID_107_);}
	.st108{fill:url(#SVGID_108_);}
	.st109{fill:url(#SVGID_109_);}
	.st110{fill:url(#SVGID_110_);}
	.st111{fill:url(#SVGID_111_);}
	.st112{fill:url(#SVGID_112_);}
	.st113{fill:url(#SVGID_113_);}
	.st114{fill:url(#SVGID_114_);}
	.st115{fill:url(#SVGID_115_);}
	.st116{fill:url(#SVGID_116_);}
	.st117{fill:url(#SVGID_117_);}
	.st118{fill:url(#SVGID_118_);}
	.st119{fill:url(#SVGID_119_);}
	.st120{fill:url(#SVGID_120_);}
	.st121{fill:url(#SVGID_121_);}
	.st122{fill:url(#SVGID_122_);}
	.st123{fill:url(#SVGID_123_);}
	.st124{fill:url(#SVGID_124_);}
	.st125{fill:url(#SVGID_125_);}
	.st126{fill:url(#SVGID_126_);}
	.st127{fill:url(#SVGID_127_);}
	.st128{fill:url(#SVGID_128_);}
	.st129{fill:url(#SVGID_129_);}
	.st130{fill:url(#SVGID_130_);}
	.st131{fill:url(#SVGID_131_);}
	.st132{fill:url(#SVGID_132_);}
	.st133{fill:url(#SVGID_133_);}
	.st134{fill:url(#SVGID_134_);}
	.st135{fill:url(#SVGID_135_);}
	.st136{fill:url(#SVGID_136_);}
	.st137{fill:url(#SVGID_137_);}
	.st138{fill:url(#SVGID_138_);}
	.st139{fill:url(#SVGID_139_);}
	.st140{fill:url(#SVGID_140_);}
	.st141{fill:url(#SVGID_141_);}
	.st142{fill:url(#SVGID_142_);}
	.st143{fill:url(#SVGID_143_);}
	.st144{fill:url(#SVGID_144_);}
	.st145{fill:url(#SVGID_145_);}
	.st146{fill:url(#SVGID_146_);}
	.st147{fill:url(#SVGID_147_);}
	.st148{fill:url(#SVGID_148_);}
	.st149{fill:url(#SVGID_149_);}
	.st150{fill:url(#SVGID_150_);}
	.st151{fill:url(#SVGID_151_);}
	.st152{fill:url(#SVGID_152_);}
	.st153{fill:url(#SVGID_153_);}
	.st154{fill:url(#SVGID_154_);}
	.st155{fill:url(#SVGID_155_);}
	.st156{fill:url(#SVGID_156_);}
	.st157{fill:url(#SVGID_157_);}
	.st158{fill:url(#SVGID_158_);}
	.st159{fill:url(#SVGID_159_);}
	.st160{fill:url(#SVGID_160_);}
	.st161{fill:url(#SVGID_161_);}
	.st162{fill:url(#SVGID_162_);}
	.st163{fill:url(#SVGID_163_);}
	.st164{fill:url(#SVGID_164_);}
	.st165{fill:url(#SVGID_165_);}
	.st166{fill:url(#SVGID_166_);}
	.st167{fill:url(#SVGID_167_);}
	.st168{fill:url(#SVGID_168_);}
	.st169{fill:url(#SVGID_169_);}
	.st170{fill:url(#SVGID_170_);}
	.st171{fill:url(#SVGID_171_);}
	.st172{fill:url(#SVGID_172_);}
	.st173{fill:url(#SVGID_173_);}
	.st174{fill:url(#SVGID_174_);}
	.st175{fill:url(#SVGID_175_);}
	.st176{fill:url(#SVGID_176_);}
	.st177{fill:url(#SVGID_177_);}
	.st178{fill:url(#SVGID_178_);}
	.st179{fill:url(#SVGID_179_);}
	.st180{fill:url(#SVGID_180_);}
	.st181{fill:url(#SVGID_181_);}
	.st182{fill:url(#SVGID_182_);}
	.st183{fill:url(#SVGID_183_);}
	.st184{fill:url(#SVGID_184_);}
	.st185{fill:url(#SVGID_185_);}
	.st186{fill:url(#SVGID_186_);}
	.st187{fill:url(#SVGID_187_);}
	.st188{fill:url(#SVGID_188_);}
</style>
<g id="Layer_2">
	<g>
		
			<linearGradient id="SVGID_1_" gradientUnits="userSpaceOnUse" x1="62.5102" y1="698.5841" x2="207.9009" y2="743.8229" gradientTransform="matrix(1.0039 0 0 1.0039 4.5954 -564.886)">
			<stop  offset="0" style="stop-color:#FFB92D"/>
			<stop  offset="1" style="stop-color:#F59500"/>
		</linearGradient>
		<path class="st0" d="M280.8,202.7L205,58.5c-4.2-8.1-12.4-13.3-21.5-13.9l-13.4-0.8l-49.2-2.9l-1-0.1c-0.5,0-1,0-1.4,0
			c-0.3,0-0.5,0-0.8,0c-5.4,0.1-10.5,1.9-14.7,5c-2.7,2-5.1,4.5-6.9,7.5l-33.3,54.8c-4.8,7.8-5.1,17.6-0.8,25.7l75.7,144.1
			c3.9,7.4,10.4,12.4,17.7,14.7c6,1.8,12.6,1.8,18.8-0.4c1.3-0.5,2.6-1,3.9-1.7l11.9-6.2l78.2-41.1
			C282.8,235.4,288.5,217.3,280.8,202.7z M130.7,111c-0.3,0.3-0.7,0.7-1,1c-0.2,0.1-0.3,0.3-0.5,0.4c-0.5,0.4-1.1,0.8-1.6,1.1
			c-0.2,0.1-0.4,0.2-0.6,0.3c-0.2,0.1-0.4,0.2-0.6,0.3c-6.5,3.4-14.8,2.4-20.3-3.1c-6.8-6.8-6.8-17.8,0-24.6
			c6.2-6.2,15.9-6.7,22.7-1.6c0.5,0.3,0.9,0.7,1.3,1.1c0.2,0.2,0.4,0.3,0.5,0.5C137.5,93.2,137.5,104.2,130.7,111z"/>
		
			<linearGradient id="SVGID_2_" gradientUnits="userSpaceOnUse" x1="246.15" y1="729.8248" x2="132.3704" y2="729.3604" gradientTransform="matrix(1.0039 0 0 1.0039 4.5954 -564.886)">
			<stop  offset="0" style="stop-color:#BE3F45;stop-opacity:0"/>
			<stop  offset="1" style="stop-color:#BE3F45"/>
		</linearGradient>
		<path class="st1" d="M137.7,277.9c3.9,7.4,10.4,12.4,17.7,14.7c6,1.8,12.6,1.8,18.8-0.4c1.3-0.5,2.6-1,3.9-1.7l11.9-6.2l78.2-41.1
			c14.6-7.7,20.3-25.8,12.6-40.4l-35.4-67.4l-52.2-52.2c-1.8-2.2-4-4.1-6.6-5.7l-11.5-6.9l-43-26c-3.5-2.1-7.4-3.3-11.4-3.7l-0.7,0
			c-0.2,0-0.4,0-0.6,0c-0.3,0-0.5,0-0.8,0c-0.5,0-0.9,0-1.4,0c-0.2,0-0.4,0-0.6,0c-4,0.3-7.9,1.5-11.4,3.6l-2.2,1.3
			c-2.7,2-5.1,4.5-6.9,7.5l-33.3,54.8c-4.8,7.8-5.1,17.6-0.8,25.7L137.7,277.9z M106.1,86.4c6.2-6.2,15.9-6.7,22.7-1.6
			c0.5,0.3,0.9,0.7,1.3,1.1c0.2,0.2,0.4,0.3,0.5,0.5c6.8,6.8,6.8,17.8,0,24.6c-0.3,0.3-0.7,0.7-1,1c-0.2,0.1-0.3,0.3-0.5,0.4
			c-0.5,0.4-1.1,0.8-1.6,1.1c-0.2,0.1-0.4,0.2-0.6,0.3c-0.2,0.1-0.4,0.2-0.6,0.3c-6.5,3.4-14.8,2.4-20.3-3.1
			C99.3,104.2,99.3,93.2,106.1,86.4z"/>
		
			<linearGradient id="SVGID_3_" gradientUnits="userSpaceOnUse" x1="36.3373" y1="666.9731" x2="143.9997" y2="774.6355" gradientTransform="matrix(1.0039 0 0 1.0039 4.5954 -564.886)">
			<stop  offset="0" style="stop-color:#FFF465"/>
			<stop  offset="1" style="stop-color:#FFE600"/>
		</linearGradient>
		<path class="st2" d="M186.6,77.5l-11.5-6.9l-43-26c-8.3-5-18.6-5-26.9,0l-55,33c-7.8,4.7-12.7,13.2-12.7,22.3v162.8
			c0,16.5,13.4,29.9,29.9,29.9h101.8c16.5,0,29.9-13.4,29.9-29.9V99.8C199.2,90.6,194.4,82.2,186.6,77.5z M106.1,111
			c-6.8-6.8-6.8-17.8,0-24.6c6.2-6.2,15.9-6.7,22.7-1.6c0.5,0.3,0.9,0.7,1.3,1.1c0.2,0.2,0.4,0.3,0.5,0.5c6.8,6.8,6.8,17.8,0,24.6
			c-0.3,0.3-0.7,0.7-1,1c-0.2,0.1-0.3,0.3-0.5,0.4c-0.5,0.4-1.1,0.8-1.6,1.1c-0.2,0.1-0.4,0.2-0.6,0.3c-0.2,0.1-0.4,0.2-0.6,0.3
			C119.8,117.5,111.6,116.5,106.1,111z"/>
		
			<linearGradient id="SVGID_4_" gradientUnits="userSpaceOnUse" x1="118.0981" y1="788.467" x2="70.8485" y2="741.2174" gradientTransform="matrix(1.0039 0 0 1.0039 4.5954 -564.886)">
			<stop  offset="0" style="stop-color:#FFE600;stop-opacity:0"/>
			<stop  offset="1" style="stop-color:#F59500"/>
		</linearGradient>
		<path class="st3" d="M199.2,262.6c0,0,0-0.7,0-2L98.9,160.3c-3.9-3.1-9-4.7-15.5-4.7c-14.1,0-21.1,6.5-21.1,19.5v23.4
			c0,7,2.1,12.1,6.2,15.4l78.6,78.6h22.2C185.8,292.5,199.2,279.2,199.2,262.6z"/>
		
			<linearGradient id="SVGID_5_" gradientUnits="userSpaceOnUse" x1="168.2658" y1="829.7455" x2="95.5223" y2="757.002" gradientTransform="matrix(1.0039 0 0 1.0039 4.5954 -564.886)">
			<stop  offset="0" style="stop-color:#FFE600;stop-opacity:0"/>
			<stop  offset="1" style="stop-color:#F59500"/>
		</linearGradient>
		<path class="st4" d="M151.6,151.2c-1.4-1.2-2.9-1.7-4.6-1.7c-2.3,0-3.9,1-4.7,2.9L84.3,268.7c-0.4,0.7-0.6,1.5-0.6,2.4
			c0,1.5,0.6,2.8,1.8,4l17.5,17.5h66.3c16.5,0,29.9-13.4,29.9-29.9c0,0,0-21.2,0-47.7v-16L151.6,151.2z"/>
		
			<linearGradient id="SVGID_6_" gradientUnits="userSpaceOnUse" x1="201.366" y1="855.3419" x2="129.3645" y2="783.3348" gradientTransform="matrix(1.0039 0 0 1.0039 4.5954 -564.886)">
			<stop  offset="0" style="stop-color:#FFE600;stop-opacity:0"/>
			<stop  offset="1" style="stop-color:#F59500"/>
		</linearGradient>
		<path class="st5" d="M168.7,213.7c-3.9-3.1-9-4.7-15.5-4.7c-14.1,0-21.1,6.5-21.1,19.5v23.4c0,7,2.1,12.1,6.2,15.4l25.3,25.3h5.7
			c16.5,0,29.9-13.4,29.9-29.9c0,0,0-7.2,0-18.5L168.7,213.7z"/>
		
			<linearGradient id="SVGID_7_" gradientUnits="userSpaceOnUse" x1="113.3517" y1="741.1732" x2="113.3517" y2="882.8936" gradientTransform="matrix(1.0039 0 0 1.0039 4.5954 -564.886)">
			<stop  offset="0" style="stop-color:#FFFFFF"/>
			<stop  offset="1" style="stop-color:#E2EDF2"/>
		</linearGradient>
		<path class="st6" d="M62.3,198.5v-23.4c0-13,7-19.5,21.1-19.5c6.4,0,11.6,1.6,15.5,4.7c3.9,3.1,5.8,8.1,5.8,14.8v23.4
			c0,6.8-1.9,11.7-5.8,14.8c-3.9,3.1-9,4.7-15.5,4.7C69.3,218,62.3,211.5,62.3,198.5z M73.5,198.3c0,6.1,3.3,9.1,9.9,9.1
			c6.7,0,10.1-3,10.1-9.1v-22.9c0-6.1-3.4-9.1-10.1-9.1c-6.6,0-9.9,3-9.9,9.1C73.5,175.4,73.5,198.3,73.5,198.3z M83.7,271
			c0-0.8,0.2-1.6,0.6-2.4l57.9-116.4c0.8-1.9,2.4-2.9,4.7-2.9c1.7,0,3.2,0.6,4.6,1.7c1.4,1.2,2.1,2.6,2.1,4.3c0,0.8-0.2,1.7-0.5,2.5
			L95.3,273.9c-0.9,2-2.7,3-5.4,3c-1.8,0-3.3-0.6-4.5-1.8C84.3,273.8,83.7,272.5,83.7,271z M132.1,252.2v-23.6
			c0-13.1,7-19.6,21.1-19.6c6.4,0,11.6,1.6,15.5,4.7c3.9,3.1,5.8,8.1,5.8,14.9v23.6c0,6.8-1.9,11.8-5.8,14.9
			c-3.9,3.1-9,4.7-15.5,4.7C139.1,271.9,132.1,265.3,132.1,252.2z M143.3,252c0,6.2,3.3,9.2,9.9,9.2c6.7,0,10.1-3.1,10.1-9.2v-23.2
			c0-6.2-3.4-9.2-10.1-9.2c-6.6,0-9.9,3.1-9.9,9.2V252L143.3,252z"/>
		
			<linearGradient id="SVGID_8_" gradientUnits="userSpaceOnUse" x1="186.7718" y1="676.8056" x2="71.327" y2="612.5298" gradientTransform="matrix(1.0039 0 0 1.0039 4.5954 -564.886)">
			<stop  offset="0" style="stop-color:#FFE600;stop-opacity:0"/>
			<stop  offset="1" style="stop-color:#F59500"/>
		</linearGradient>
		<path class="st7" d="M199.2,99.8v55.4L132.1,88c-0.4-0.6-0.9-1.1-1.4-1.6c-0.2-0.2-0.4-0.3-0.5-0.5c-0.1-0.1-0.2-0.2-0.4-0.3
			c-0.3-0.3-0.7-0.6-1-0.8c-6.5-4.9-15.6-4.6-21.8,0.8V43.5c7.2-3.6,15.5-3.6,22.7-0.2c0.8,0.4,1.6,0.8,2.4,1.3l43,26l11.5,6.9
			C194.4,82.2,199.2,90.6,199.2,99.8z"/>
		
			<linearGradient id="SVGID_9_" gradientUnits="userSpaceOnUse" x1="107.7884" y1="617.5417" x2="128.9323" y2="617.5417" gradientTransform="matrix(1.0039 0 0 1.0039 4.5954 -564.886)">
			<stop  offset="0" style="stop-color:#62E1FB"/>
			<stop  offset="1" style="stop-color:#00A2F3"/>
		</linearGradient>
		<path class="st8" d="M118.4,106.3c-6.3,0-11.4-5.1-11.4-11.4V15.2c0-6.3,5.1-11.4,11.4-11.4c6.3,0,11.4,5.1,11.4,11.4v79.6
			C129.8,101.2,124.7,106.3,118.4,106.3z"/>
	</g>
</g>
<g id="Layer_1">
</g>
</svg>
