<?xml version="1.0" encoding="utf-8"?>
<!-- Generator: Adobe Illustrator 23.0.0, SVG Export Plug-In . SVG Version: 6.00 Build 0)  -->
<svg version="1.1" id="Layer_1" xmlns="http://www.w3.org/2000/svg" xmlns:xlink="http://www.w3.org/1999/xlink" x="0px" y="0px"
	 viewBox="0 0 300 300" style="enable-background:new 0 0 300 300;" xml:space="preserve">
<style type="text/css">
	.st0{fill:url(#SVGID_1_);}
	.st1{fill:url(#SVGID_2_);}
	.st2{fill:url(#SVGID_3_);}
	.st3{fill:url(#SVGID_4_);}
	.st4{fill:url(#SVGID_5_);}
	.st5{fill:url(#SVGID_6_);}
	.st6{fill:url(#SVGID_7_);}
	.st7{fill:url(#SVGID_8_);}
	.st8{fill:url(#SVGID_9_);}
	.st9{fill:#FFB92D;}
	.st10{fill:url(#SVGID_10_);}
	.st11{fill:url(#SVGID_11_);}
	.st12{fill:url(#SVGID_12_);}
	.st13{fill:url(#SVGID_13_);}
	.st14{fill:url(#SVGID_14_);}
	.st15{fill:url(#SVGID_15_);}
	.st16{fill:url(#SVGID_16_);}
	.st17{fill:url(#SVGID_17_);}
	.st18{fill:url(#SVGID_18_);}
	.st19{fill:url(#SVGID_19_);}
	.st20{fill:url(#SVGID_20_);}
	.st21{fill:url(#SVGID_21_);}
	.st22{fill:url(#SVGID_22_);}
	.st23{fill:url(#SVGID_23_);}
	.st24{fill:url(#SVGID_24_);}
	.st25{fill:url(#SVGID_25_);}
	.st26{fill:url(#SVGID_26_);}
	.st27{fill:url(#SVGID_27_);}
	.st28{fill:url(#SVGID_28_);}
	.st29{fill:url(#SVGID_29_);}
	.st30{fill:url(#SVGID_30_);}
	.st31{fill:url(#SVGID_31_);}
	.st32{fill:url(#SVGID_32_);}
	.st33{fill:url(#SVGID_33_);}
	.st34{fill:url(#SVGID_34_);}
	.st35{fill:url(#SVGID_35_);}
	.st36{fill:url(#SVGID_36_);}
	.st37{fill:url(#SVGID_37_);}
	.st38{fill:url(#SVGID_38_);}
	.st39{fill:url(#SVGID_39_);}
	.st40{fill:url(#SVGID_40_);}
	.st41{fill:url(#SVGID_41_);}
	.st42{fill:url(#SVGID_42_);}
	.st43{fill:url(#SVGID_43_);}
	.st44{fill:url(#SVGID_44_);}
	.st45{fill:url(#SVGID_45_);}
	.st46{fill:url(#SVGID_46_);}
	.st47{fill:url(#SVGID_47_);}
	.st48{fill:url(#SVGID_48_);}
	.st49{fill:url(#SVGID_49_);}
	.st50{fill:url(#SVGID_50_);}
	.st51{fill:url(#SVGID_51_);}
	.st52{fill:url(#SVGID_52_);}
	.st53{fill:url(#SVGID_53_);}
	.st54{fill:url(#SVGID_54_);}
	.st55{fill:url(#SVGID_55_);}
	.st56{fill:url(#SVGID_56_);}
	.st57{fill:url(#SVGID_57_);}
	.st58{fill:url(#SVGID_58_);}
	.st59{fill:url(#SVGID_59_);}
	.st60{fill:url(#SVGID_60_);}
	.st61{fill:url(#SVGID_61_);}
	.st62{fill:url(#SVGID_62_);}
	.st63{fill:url(#SVGID_63_);}
	.st64{fill:url(#SVGID_64_);}
	.st65{fill:url(#SVGID_65_);}
	.st66{fill:url(#SVGID_66_);}
	.st67{fill:url(#SVGID_67_);}
	.st68{fill:url(#SVGID_68_);}
	.st69{fill:url(#SVGID_69_);}
	.st70{fill:url(#SVGID_70_);}
	.st71{fill:url(#SVGID_71_);}
	.st72{fill:url(#SVGID_72_);}
	.st73{fill:#FFFFFF;}
	.st74{fill:url(#SVGID_73_);}
	.st75{fill:url(#SVGID_74_);}
	.st76{fill:url(#SVGID_75_);}
	.st77{fill:url(#SVGID_76_);}
	.st78{fill:url(#SVGID_77_);}
	.st79{fill:url(#SVGID_78_);}
	.st80{fill:url(#SVGID_79_);}
	.st81{fill:url(#SVGID_80_);}
	.st82{fill:url(#SVGID_81_);}
	.st83{fill:url(#SVGID_82_);}
	.st84{fill:url(#SVGID_83_);}
	.st85{fill:url(#SVGID_84_);}
	.st86{fill:url(#SVGID_85_);}
	.st87{fill:url(#SVGID_86_);}
	.st88{fill:url(#SVGID_87_);}
	.st89{fill:url(#SVGID_88_);}
	.st90{fill:url(#SVGID_89_);}
	.st91{fill:url(#SVGID_90_);}
	.st92{fill:url(#SVGID_91_);}
	.st93{fill:url(#SVGID_92_);}
	.st94{fill:url(#SVGID_93_);}
	.st95{fill:url(#SVGID_94_);}
	.st96{fill:url(#SVGID_95_);}
	.st97{fill:url(#SVGID_96_);}
	.st98{fill:url(#SVGID_97_);}
	.st99{fill:url(#SVGID_98_);}
	.st100{fill:url(#SVGID_99_);}
	.st101{fill:url(#SVGID_100_);}
	.st102{fill:url(#SVGID_101_);}
	.st103{fill:url(#SVGID_102_);}
	.st104{fill:url(#SVGID_103_);}
	.st105{fill:url(#SVGID_104_);}
	.st106{fill:url(#SVGID_105_);}
	.st107{fill:url(#SVGID_106_);}
	.st108{fill:url(#SVGID_107_);}
	.st109{fill:url(#SVGID_108_);}
	.st110{fill:url(#SVGID_109_);}
	.st111{fill:url(#SVGID_110_);}
	.st112{fill:url(#SVGID_111_);}
	.st113{fill:url(#SVGID_112_);}
	.st114{fill:url(#SVGID_113_);}
	.st115{fill:url(#SVGID_114_);}
</style>
<g>
	
		<linearGradient id="SVGID_1_" gradientUnits="userSpaceOnUse" x1="227.8643" y1="607.2043" x2="277.1616" y2="656.5009" gradientTransform="matrix(1.0039 0 0 1.0039 1.7093 -565.5094)">
		<stop  offset="0" style="stop-color:#FF4C54"/>
		<stop  offset="1" style="stop-color:#BE3F45"/>
	</linearGradient>
	<path class="st0" d="M267.4,17.1c-16.5-0.8-30.3,12.2-30.6,28.5c0,0,0,0,0,0c-0.4-16.3-14.1-29.3-30.6-28.5
		c-18.2,0.9-30.2,18.7-27,36.6c5.4,30.1,42.4,50.9,54.1,56.7c2.2,1.1,4.8,1.1,7,0c11.7-5.8,48.8-26.6,54.1-56.7
		C297.7,35.7,285.6,18,267.4,17.1z"/>
	<g>
		
			<linearGradient id="SVGID_2_" gradientUnits="userSpaceOnUse" x1="116.4325" y1="661.9216" x2="136.0755" y2="706.8097" gradientTransform="matrix(1.0039 0 0 1.0039 1.7093 -565.5094)">
			<stop  offset="0" style="stop-color:#FFE7A5"/>
			<stop  offset="1" style="stop-color:#FFBF5C"/>
		</linearGradient>
		<path class="st1" d="M156.3,93.8c-1.4,15.9-5.3,31.1-11.5,45.8H92.4c12.8-19.3,18.7-39.6,18.3-62.1c-0.1-7.1,5-13.3,12.1-14.5
			c0.2,0,0.3,0,0.5-0.1C141.7,59.9,158,75.1,156.3,93.8z"/>
		
			<linearGradient id="SVGID_3_" gradientUnits="userSpaceOnUse" x1="127.7216" y1="754.3533" x2="248.77" y2="810.8416" gradientTransform="matrix(1.0039 0 0 1.0039 1.7093 -565.5094)">
			<stop  offset="0" style="stop-color:#FFE7A5"/>
			<stop  offset="1" style="stop-color:#FFBF5C"/>
		</linearGradient>
		<path class="st2" d="M230.7,135.8l-167.6,0v130h59.8h78.5h6.5c17,0,31.5-12.3,34.3-29l10-75.5
			C254.4,147.9,244.1,135.8,230.7,135.8z"/>
		
			<linearGradient id="SVGID_4_" gradientUnits="userSpaceOnUse" x1="201.985" y1="763.3497" x2="76.8427" y2="763.3497" gradientTransform="matrix(1.0039 0 0 1.0039 1.7093 -565.5094)">
			<stop  offset="0" style="stop-color:#FFE7A5;stop-opacity:0"/>
			<stop  offset="1" style="stop-color:#FFBF5C"/>
		</linearGradient>
		<path class="st3" d="M201.4,265.8h6.5c12,0,22.7-6.1,28.9-15.5L94.3,135.8l-31.3,0v130h59.8L201.4,265.8z"/>
		
			<linearGradient id="SVGID_5_" gradientUnits="userSpaceOnUse" x1="68.2464" y1="733.8779" x2="116.1022" y2="876.1402" gradientTransform="matrix(1.0039 0 0 1.0039 1.7093 -565.5094)">
			<stop  offset="0" style="stop-color:#F2F2F2"/>
			<stop  offset="1" style="stop-color:#C3C3C3"/>
		</linearGradient>
		<path class="st4" d="M87.9,273.7H72.4c-3.7,0-6.8-3-6.8-6.8V134.7c0-3.7,3-6.8,6.8-6.8h15.5c3.7,0,6.8,3,6.8,6.8V267
			C94.7,270.7,91.7,273.7,87.9,273.7z"/>
		
			<linearGradient id="SVGID_6_" gradientUnits="userSpaceOnUse" x1="76.6101" y1="765.4756" x2="26.0089" y2="740.9894" gradientTransform="matrix(1.0039 0 0 1.0039 1.7093 -565.5094)">
			<stop  offset="0" style="stop-color:#C3C3C3;stop-opacity:0"/>
			<stop  offset="1" style="stop-color:#777777"/>
		</linearGradient>
		<path class="st5" d="M77.6,127.9h-5.1c-3.7,0-6.8,3-6.8,6.8V267c0,3.7,3,6.8,6.8,6.8h15.5c3.7,0,6.8-3,6.8-6.8V145.1L77.6,127.9z"
			/>
		
			<linearGradient id="SVGID_7_" gradientUnits="userSpaceOnUse" x1="32.6916" y1="745.2028" x2="90.6391" y2="902.12" gradientTransform="matrix(1.0039 0 0 1.0039 1.7093 -565.5094)">
			<stop  offset="0" style="stop-color:#62E1FB"/>
			<stop  offset="1" style="stop-color:#00A2F3"/>
		</linearGradient>
		<path class="st6" d="M70.4,283H12.1c-3.9,0-7.1-3.2-7.1-7.1V125.8c0-3.9,3.2-7.1,7.1-7.1h58.4c3.9,0,7.1,3.2,7.1,7.1v150.1
			C77.5,279.8,74.3,283,70.4,283z"/>
		
			<linearGradient id="SVGID_8_" gradientUnits="userSpaceOnUse" x1="63.1141" y1="737.5972" x2="13.31" y2="687.7935" gradientTransform="matrix(1.0039 0 0 1.0039 1.7093 -565.5094)">
			<stop  offset="0" style="stop-color:#00A2F3;stop-opacity:0"/>
			<stop  offset="1" style="stop-color:#0075CD"/>
		</linearGradient>
		<path class="st7" d="M77.5,162.2l-23.1-23.1c-3.3-3.6-7.9-5.8-13.1-5.8c-9.9,0-17.8,8-17.8,17.8c0,5.2,2.2,9.9,5.8,13.1l48.3,48.3
			L77.5,162.2L77.5,162.2z"/>
		
			<linearGradient id="SVGID_9_" gradientUnits="userSpaceOnUse" x1="39.394" y1="702.7224" x2="39.394" y2="728.4217" gradientTransform="matrix(1.0039 0 0 1.0039 1.7093 -565.5094)">
			<stop  offset="0" style="stop-color:#FFF465"/>
			<stop  offset="1" style="stop-color:#FFE600"/>
		</linearGradient>
		<circle class="st8" cx="41.3" cy="151.1" r="17.8"/>
		
			<linearGradient id="SVGID_10_" gradientUnits="userSpaceOnUse" x1="39.394" y1="721.5776" x2="39.394" y2="703.8437" gradientTransform="matrix(1.0039 0 0 1.0039 1.7093 -565.5094)">
			<stop  offset="0" style="stop-color:#FFF465"/>
			<stop  offset="1" style="stop-color:#FFE600"/>
		</linearGradient>
		<circle class="st10" cx="41.3" cy="151.1" r="12.3"/>
		<g>
			<circle class="st9" cx="36.6" cy="146.5" r="2.5"/>
			<circle class="st9" cx="45.9" cy="146.5" r="2.5"/>
			<circle class="st9" cx="36.6" cy="155.8" r="2.5"/>
			<circle class="st9" cx="45.9" cy="155.8" r="2.5"/>
		</g>
	</g>
</g>
</svg>
