<?xml version="1.0" encoding="utf-8"?>
<!-- Generator: Adobe Illustrator 23.0.0, SVG Export Plug-In . SVG Version: 6.00 Build 0)  -->
<svg version="1.1" id="Layer_1" xmlns="http://www.w3.org/2000/svg" xmlns:xlink="http://www.w3.org/1999/xlink" x="0px" y="0px"
	 viewBox="0 0 300 300" style="enable-background:new 0 0 300 300;" xml:space="preserve">
<style type="text/css">
	.st0{fill:url(#SVGID_1_);}
	.st1{fill:url(#SVGID_2_);}
	.st2{fill:url(#SVGID_3_);}
	.st3{fill:url(#SVGID_4_);}
	.st4{fill:url(#SVGID_5_);}
	.st5{fill:url(#SVGID_6_);}
	.st6{fill:url(#SVGID_7_);}
	.st7{fill:url(#SVGID_8_);}
	.st8{fill:url(#SVGID_9_);}
	.st9{fill:#FFB92D;}
	.st10{fill:url(#SVGID_10_);}
	.st11{fill:url(#SVGID_11_);}
	.st12{fill:url(#SVGID_12_);}
	.st13{fill:url(#SVGID_13_);}
	.st14{fill:url(#SVGID_14_);}
	.st15{fill:url(#SVGID_15_);}
	.st16{fill:url(#SVGID_16_);}
	.st17{fill:url(#SVGID_17_);}
	.st18{fill:url(#SVGID_18_);}
	.st19{fill:url(#SVGID_19_);}
	.st20{fill:url(#SVGID_20_);}
	.st21{fill:url(#SVGID_21_);}
	.st22{fill:url(#SVGID_22_);}
	.st23{fill:url(#SVGID_23_);}
	.st24{fill:url(#SVGID_24_);}
	.st25{fill:url(#SVGID_25_);}
	.st26{fill:url(#SVGID_26_);}
	.st27{fill:url(#SVGID_27_);}
	.st28{fill:url(#SVGID_28_);}
	.st29{fill:url(#SVGID_29_);}
	.st30{fill:url(#SVGID_30_);}
	.st31{fill:url(#SVGID_31_);}
	.st32{fill:url(#SVGID_32_);}
	.st33{fill:url(#SVGID_33_);}
	.st34{fill:url(#SVGID_34_);}
	.st35{fill:url(#SVGID_35_);}
	.st36{fill:url(#SVGID_36_);}
	.st37{fill:url(#SVGID_37_);}
	.st38{fill:url(#SVGID_38_);}
	.st39{fill:url(#SVGID_39_);}
	.st40{fill:url(#SVGID_40_);}
	.st41{fill:url(#SVGID_41_);}
	.st42{fill:url(#SVGID_42_);}
	.st43{fill:url(#SVGID_43_);}
	.st44{fill:url(#SVGID_44_);}
	.st45{fill:url(#SVGID_45_);}
	.st46{fill:url(#SVGID_46_);}
	.st47{fill:url(#SVGID_47_);}
	.st48{fill:url(#SVGID_48_);}
	.st49{fill:url(#SVGID_49_);}
	.st50{fill:url(#SVGID_50_);}
	.st51{fill:url(#SVGID_51_);}
	.st52{fill:url(#SVGID_52_);}
	.st53{fill:url(#SVGID_53_);}
	.st54{fill:url(#SVGID_54_);}
	.st55{fill:url(#SVGID_55_);}
	.st56{fill:url(#SVGID_56_);}
	.st57{fill:url(#SVGID_57_);}
	.st58{fill:url(#SVGID_58_);}
	.st59{fill:url(#SVGID_59_);}
	.st60{fill:url(#SVGID_60_);}
	.st61{fill:url(#SVGID_61_);}
	.st62{fill:url(#SVGID_62_);}
	.st63{fill:url(#SVGID_63_);}
	.st64{fill:url(#SVGID_64_);}
	.st65{fill:url(#SVGID_65_);}
	.st66{fill:url(#SVGID_66_);}
	.st67{fill:url(#SVGID_67_);}
	.st68{fill:url(#SVGID_68_);}
	.st69{fill:url(#SVGID_69_);}
	.st70{fill:url(#SVGID_70_);}
	.st71{fill:url(#SVGID_71_);}
	.st72{fill:url(#SVGID_72_);}
	.st73{fill:#FFFFFF;}
	.st74{fill:url(#SVGID_73_);}
	.st75{fill:url(#SVGID_74_);}
	.st76{fill:url(#SVGID_75_);}
	.st77{fill:url(#SVGID_76_);}
	.st78{fill:url(#SVGID_77_);}
	.st79{fill:url(#SVGID_78_);}
	.st80{fill:url(#SVGID_79_);}
	.st81{fill:url(#SVGID_80_);}
	.st82{fill:url(#SVGID_81_);}
	.st83{fill:url(#SVGID_82_);}
	.st84{fill:url(#SVGID_83_);}
	.st85{fill:url(#SVGID_84_);}
	.st86{fill:url(#SVGID_85_);}
	.st87{fill:url(#SVGID_86_);}
	.st88{fill:url(#SVGID_87_);}
	.st89{fill:url(#SVGID_88_);}
	.st90{fill:url(#SVGID_89_);}
	.st91{fill:url(#SVGID_90_);}
	.st92{fill:url(#SVGID_91_);}
	.st93{fill:url(#SVGID_92_);}
	.st94{fill:url(#SVGID_93_);}
	.st95{fill:url(#SVGID_94_);}
	.st96{fill:url(#SVGID_95_);}
	.st97{fill:url(#SVGID_96_);}
	.st98{fill:url(#SVGID_97_);}
	.st99{fill:url(#SVGID_98_);}
	.st100{fill:url(#SVGID_99_);}
	.st101{fill:url(#SVGID_100_);}
	.st102{fill:url(#SVGID_101_);}
	.st103{fill:url(#SVGID_102_);}
	.st104{fill:url(#SVGID_103_);}
	.st105{fill:url(#SVGID_104_);}
	.st106{fill:url(#SVGID_105_);}
	.st107{fill:url(#SVGID_106_);}
	.st108{fill:url(#SVGID_107_);}
	.st109{fill:url(#SVGID_108_);}
	.st110{fill:url(#SVGID_109_);}
	.st111{fill:url(#SVGID_110_);}
	.st112{fill:url(#SVGID_111_);}
	.st113{fill:url(#SVGID_112_);}
	.st114{fill:url(#SVGID_113_);}
	.st115{fill:url(#SVGID_114_);}
</style>
<g>
	
		<linearGradient id="SVGID_1_" gradientUnits="userSpaceOnUse" x1="147.9865" y1="-190.9033" x2="147.9865" y2="-54.458" gradientTransform="matrix(1.0039 0 0 1.0039 1.4363 216.011)">
		<stop  offset="0" style="stop-color:#FF4C54"/>
		<stop  offset="1" style="stop-color:#BE3F45"/>
	</linearGradient>
	<path class="st0" d="M150,24.4c-70.8,0-128.2,57.4-128.2,128.2c0,3,0.1,5.9,0.3,8.8h38c-0.3-2.9-0.4-5.8-0.4-8.8
		c0-49.9,40.4-90.3,90.3-90.3c49.9,0,90.3,40.4,90.3,90.3c0,3-0.1,5.9-0.4,8.8h38c0.2-2.9,0.3-5.9,0.3-8.8
		C278.2,81.7,220.8,24.4,150,24.4z"/>
	
		<linearGradient id="SVGID_2_" gradientUnits="userSpaceOnUse" x1="147.9865" y1="-55.5334" x2="147.9865" y2="-177.6846" gradientTransform="matrix(1.0039 0 0 1.0039 1.4363 216.011)">
		<stop  offset="0" style="stop-color:#FF4C54"/>
		<stop  offset="1" style="stop-color:#BE3F45"/>
	</linearGradient>
	<path class="st1" d="M150,49.1c-54,0-97.8,47-97.8,105c0,2.4,0.1,4.8,0.2,7.2h7.7c-0.3-2.9-0.4-5.8-0.4-8.8
		c0-49.9,40.4-90.3,90.3-90.3c49.9,0,90.3,40.4,90.3,90.3c0,3-0.1,5.9-0.4,8.8h7.7c0.2-2.4,0.2-4.8,0.2-7.2
		C247.8,96.1,204,49.1,150,49.1z"/>
	
		<linearGradient id="SVGID_3_" gradientUnits="userSpaceOnUse" x1="76.1234" y1="-71.8402" x2="76.1234" y2="30.1242" gradientTransform="matrix(1.0039 0 0 1.0039 1.4363 216.011)">
		<stop  offset="0" style="stop-color:#F2F2F2"/>
		<stop  offset="1" style="stop-color:#C3C3C3"/>
	</linearGradient>
	<path class="st2" d="M125.9,270.6h-28c-37.6,0-68.1-30.6-68.1-68.1v-6.9h12.4v6.9c0,30.7,25,55.7,55.7,55.7h28V270.6z"/>
	
		<linearGradient id="SVGID_4_" gradientUnits="userSpaceOnUse" x1="51.5304" y1="3.7011" x2="33.7056" y2="-14.1237" gradientTransform="matrix(1.0039 0 0 1.0039 1.4363 216.011)">
		<stop  offset="0" style="stop-color:#C3C3C3;stop-opacity:0"/>
		<stop  offset="1" style="stop-color:#777777"/>
	</linearGradient>
	<path class="st3" d="M48.6,228.3c-4-7.7-6.3-16.5-6.3-25.7v-6.9H29.8v6.9c0,2.5,0.1,5,0.4,7.4L48.6,228.3z"/>
	
		<linearGradient id="SVGID_5_" gradientUnits="userSpaceOnUse" x1="32.5912" y1="-79.9133" x2="32.5912" y2="-5.7654" gradientTransform="matrix(1.0039 0 0 1.0039 1.4363 216.011)">
		<stop  offset="0" style="stop-color:#62E1FB"/>
		<stop  offset="1" style="stop-color:#00A2F3"/>
	</linearGradient>
	<path class="st4" d="M63.3,210.2H34.9C18.4,210.2,5,196.8,5,180.3v-14.6c0-16.5,13.4-29.9,29.9-29.9h28.4V210.2z"/>
	
		<linearGradient id="SVGID_6_" gradientUnits="userSpaceOnUse" x1="100.7844" y1="-0.3976" x2="115.29" y2="15.2862" gradientTransform="matrix(1.0039 0 0 1.0039 1.4363 216.011)">
		<stop  offset="0" style="stop-color:#FFB92D"/>
		<stop  offset="1" style="stop-color:#F59500"/>
	</linearGradient>
	<path class="st5" d="M63.2,214.8L63.2,214.8c-5.7,0-10.4-4.7-10.4-10.4v-62.8c0-5.7,4.7-10.4,10.4-10.4l0,0
		c5.7,0,10.4,4.7,10.4,10.4v62.8C73.6,210.2,69,214.8,63.2,214.8z"/>
	
		<linearGradient id="SVGID_7_" gradientUnits="userSpaceOnUse" x1="263.3818" y1="-79.9133" x2="263.3818" y2="-5.7654" gradientTransform="matrix(1.0039 0 0 1.0039 1.4363 216.011)">
		<stop  offset="0" style="stop-color:#62E1FB"/>
		<stop  offset="1" style="stop-color:#00A2F3"/>
	</linearGradient>
	<path class="st6" d="M236.7,210.2h28.4c16.5,0,29.9-13.4,29.9-29.9v-14.6c0-16.5-13.4-29.9-29.9-29.9h-28.4L236.7,210.2
		L236.7,210.2z"/>
	
		<linearGradient id="SVGID_8_" gradientUnits="userSpaceOnUse" x1="271.6894" y1="-9.8498" x2="189.1073" y2="-92.4318" gradientTransform="matrix(1.0039 0 0 1.0039 1.4363 216.011)">
		<stop  offset="0" style="stop-color:#00A2F3;stop-opacity:0"/>
		<stop  offset="1" style="stop-color:#0075CD"/>
	</linearGradient>
	<path class="st7" d="M245.4,135.8L245.4,135.8l-8.8,0v74.4h28.4c14.9,0,27.3-10.9,29.5-25.2L245.4,135.8z"/>
	
		<linearGradient id="SVGID_9_" gradientUnits="userSpaceOnUse" x1="273.6936" y1="-0.3998" x2="288.1992" y2="15.284" gradientTransform="matrix(1.0039 0 0 1.0039 1.4363 216.011)">
		<stop  offset="0" style="stop-color:#FFB92D"/>
		<stop  offset="1" style="stop-color:#F59500"/>
	</linearGradient>
	<path class="st8" d="M236.8,214.8L236.8,214.8c-5.7,0-10.4-4.7-10.4-10.4v-62.8c0-5.7,4.7-10.4,10.4-10.4l0,0
		c5.7,0,10.4,4.7,10.4,10.4v62.8C247.2,210.2,242.5,214.8,236.8,214.8z"/>
	
		<linearGradient id="SVGID_10_" gradientUnits="userSpaceOnUse" x1="147.986" y1="-159.8517" x2="147.986" y2="-103.9734" gradientTransform="matrix(1.0039 0 0 1.0039 1.4363 216.011)">
		<stop  offset="0" style="stop-color:#62E1FB"/>
		<stop  offset="1" style="stop-color:#00A2F3"/>
	</linearGradient>
	<path class="st10" d="M150,55.5c-33.4,0-62.7,21.4-79.1,53.5l0.1,0c4.3,4.1,11.3,3.2,14.4-2c14.2-23.5,37.9-38.8,64.7-38.8
		s50.5,15.4,64.7,38.8c3.1,5.1,10.1,6.1,14.4,2l0.1,0C212.7,76.9,183.4,55.5,150,55.5z"/>
	
		<linearGradient id="SVGID_11_" gradientUnits="userSpaceOnUse" x1="117.9995" y1="39.3" x2="117.9995" y2="54.9838" gradientTransform="matrix(1.0039 0 0 1.0039 1.4363 216.011)">
		<stop  offset="0" style="stop-color:#FFB92D"/>
		<stop  offset="1" style="stop-color:#F59500"/>
	</linearGradient>
	<path class="st11" d="M121.4,275.6h-3c-6.3,0-11.5-5.1-11.5-11.5l0,0c0-6.3,5.1-11.5,11.5-11.5h3c6.3,0,11.5,5.1,11.5,11.5l0,0
		C132.9,270.5,127.7,275.6,121.4,275.6z"/>
	<g>
		
			<linearGradient id="SVGID_12_" gradientUnits="userSpaceOnUse" x1="102.6306" y1="-46.4199" x2="102.6306" y2="51.0586" gradientTransform="matrix(1.0039 0 0 1.0039 1.4363 216.011)">
			<stop  offset="0" style="stop-color:#A7F3CE"/>
			<stop  offset="1" style="stop-color:#61DB99"/>
		</linearGradient>
		<circle class="st12" cx="104.5" cy="173.9" r="13.4"/>
		
			<linearGradient id="SVGID_13_" gradientUnits="userSpaceOnUse" x1="143.5008" y1="-46.4199" x2="143.5008" y2="51.0586" gradientTransform="matrix(1.0039 0 0 1.0039 1.4363 216.011)">
			<stop  offset="0" style="stop-color:#A7F3CE"/>
			<stop  offset="1" style="stop-color:#61DB99"/>
		</linearGradient>
		<circle class="st13" cx="145.5" cy="173.9" r="13.4"/>
		
			<linearGradient id="SVGID_14_" gradientUnits="userSpaceOnUse" x1="183.5121" y1="728.303" x2="201.6264" y2="746.4171" gradientTransform="matrix(1.0039 0 0 1.0039 2.9573 -565.5094)">
			<stop  offset="0" style="stop-color:#FF4C54"/>
			<stop  offset="1" style="stop-color:#BE3F45"/>
		</linearGradient>
		<path class="st14" d="M200.8,155.7c-6.1-0.3-11.1,4.5-11.2,10.5c0,0,0,0,0,0c-0.1-6-5.2-10.8-11.2-10.5
			c-6.7,0.3-11.1,6.9-9.9,13.4c2,11.1,15.6,18.7,19.9,20.8c0.8,0.4,1.8,0.4,2.6,0c4.3-2.1,17.9-9.8,19.9-20.8
			C211.9,162.6,207.5,156,200.8,155.7z"/>
	</g>
</g>
</svg>
